<svg width="516" height="292" viewBox="0 0 516 292" fill="none" xmlns="http://www.w3.org/2000/svg">
<g clip-path="url(#clip0)">
<path opacity="0.1" d="M384.678 286.344C348.679 286.344 319.496 280.823 319.496 274.012C319.496 267.202 348.679 261.681 384.678 261.681C420.677 261.681 449.859 267.202 449.859 274.012C449.859 280.823 420.677 286.344 384.678 286.344Z" fill="#07A557"/>
<path opacity="0.1" d="M298.65 41.1791C322.605 40.3511 345.421 32.6253 367.207 24.175C388.994 15.7248 410.573 6.36516 433.955 1.88866C448.993 -0.990939 466.194 -1.40125 478.308 6.6424C489.971 14.4051 493.739 27.7681 495.764 40.1773C497.289 49.5148 498.185 59.3438 494.01 68.0861C491.108 74.1558 485.963 79.257 482.402 85.0717C470.013 105.299 478.771 130.243 492.192 149.994C498.485 159.257 505.795 168.107 510.655 177.958C515.515 187.809 517.761 199.136 513.509 209.212C509.296 219.193 499.255 226.675 488.376 231.942C466.282 242.644 440.258 245.704 414.863 247.442C358.664 251.279 302.17 249.619 245.824 247.952C224.97 247.338 204.028 246.714 183.515 243.494C172.122 241.705 160.362 238.866 152.09 232.012C141.593 223.315 138.99 208.588 146.027 197.683C157.827 179.385 190.444 174.842 198.701 155.21C203.239 144.401 198.579 132.365 191.98 122.344C177.826 100.841 154.103 81.9777 152.856 57.4032C151.997 40.5248 163.401 23.6206 181.035 15.6324C199.516 7.25972 225.148 8.31323 238.776 22.1715C252.823 36.4253 277.497 41.9147 298.65 41.1791Z" fill="#07A557"/>
<path d="M317.686 133.718L329.024 126.084L323.305 117.582L353.249 115.198L364.009 123.508L377.478 115.967L388.712 117.316L388.845 114.359C388.985 111.276 389.295 108.203 389.775 105.154C389.726 104.23 389.693 103.169 389.697 102.016C389.697 97.1552 390.356 90.7122 393.25 86.4168L392.584 80.4358L397.988 74.0593C397.12 72.3329 396.131 70.6702 395.027 69.0838C394.842 68.8176 394.657 68.5588 394.457 68.3075C387.443 67.8011 381.909 62.0419 381.909 55C381.909 54.6747 381.909 54.3494 381.946 54.0278C381.946 53.8984 381.972 53.7653 381.987 53.636C381.302 54.0056 380.61 54.3753 379.918 54.7449C379.788 54.9297 379.64 55.1146 379.477 55.3327L379.444 55.3733L379.237 55.6284L379.17 55.706C379.096 55.7947 379.018 55.8797 378.941 55.9685L378.889 56.0276C378.693 56.2457 378.485 56.4675 378.263 56.6856C378.237 56.7071 378.212 56.7306 378.189 56.7558L377.912 57.0146L377.834 57.0848C377.597 57.2955 377.345 57.4988 377.094 57.691L377.012 57.7502L376.694 57.9683L376.59 58.0348C376.468 58.1088 376.342 58.1864 376.22 58.2566L376.176 58.2825C376.031 58.3601 375.883 58.434 375.735 58.5043L375.661 58.5339C375.535 58.5881 375.412 58.6398 375.291 58.6891L375.176 58.7298C375.047 58.7741 374.921 58.8148 374.788 58.8518L374.706 58.8739C374.543 58.9146 374.38 58.9479 374.214 58.9737H374.195C374.039 58.9991 373.88 59.0151 373.722 59.0218H373.614C373.472 59.0292 373.33 59.0292 373.189 59.0218H373.096C372.918 59.0116 372.742 58.9906 372.567 58.959C371.739 58.8502 370.943 58.5653 370.235 58.1235C370.054 58.0031 369.895 57.8546 369.761 57.6837C369.021 56.7152 369.835 55.6543 369.835 55.6543C370.124 54.9667 371.997 54.4825 371.997 54.4825C371.997 54.4825 377.919 52.0132 377.919 50.0466C377.919 48.0801 379.4 37.8776 394.683 35.5451C394.683 35.5451 404.625 34.987 407.419 40.3026L407.478 40.9236C408.3 41.4374 408.981 42.4687 409.792 42.7719C410.142 42.847 410.48 42.9714 410.795 43.1415V43.0713C410.888 43.153 410.965 43.2522 411.021 43.3633C411.195 43.7093 411.299 44.0861 411.328 44.4723C411.411 44.944 411.575 45.3979 411.813 45.8141C411.879 45.9324 411.953 46.046 412.035 46.1542L412.098 46.254C411.668 46.2874 411.236 46.2177 410.839 46.0507C410.902 46.5568 411.026 47.0533 411.209 47.5293C410.974 47.5369 410.741 47.4768 410.539 47.3562C410.337 47.2357 410.174 47.0596 410.069 46.8491V46.8196L410.021 46.753C409.928 46.5819 409.851 46.4024 409.792 46.217L409.832 46.2614C409.758 46.0211 409.692 45.7771 409.61 45.5406C409.573 45.4073 409.512 45.282 409.429 45.1709C409.33 45.0714 409.209 44.9965 409.076 44.9522C408.943 44.9079 408.802 44.8955 408.663 44.9158L408.814 48.1207H408.748C408.837 48.3539 408.946 48.5789 409.074 48.7935C409.599 49.6437 410.554 50.2241 410.906 51.1556C411.057 51.6049 411.115 52.0804 411.076 52.5529C411.076 52.8301 411.043 53.111 411.021 53.3883V53.3661C410.969 54.1054 410.954 54.8078 411.354 55.4029C411.628 55.8095 412.068 56.1163 412.22 56.5784C412.262 56.7071 412.281 56.8423 412.275 56.9776C412.246 57.3827 412.161 57.7819 412.024 58.1642C412.022 58.1569 412.022 58.1493 412.024 58.142C411.931 58.4233 411.91 58.7229 411.961 59.0144C412.127 59.7537 413.027 60.371 412.982 61.0771C412.985 61.1699 412.971 61.2625 412.942 61.3506C412.768 61.6955 412.469 61.9603 412.105 62.0899C411.534 62.414 410.879 62.5583 410.225 62.5039C409.98 62.4597 409.742 62.3787 409.521 62.2637C409.781 62.8588 410.047 63.4465 410.317 64.0047C410.358 64.0934 410.402 64.1821 410.447 64.2709C410.447 64.2709 412.734 62.7442 414.033 65.8567C414.413 66.5035 414.684 67.2076 414.837 67.9415C414.902 68.2351 414.993 68.5221 415.111 68.7991C415.687 69.7743 416.551 70.5486 417.583 71.017C420.233 72.2295 430.938 85.5629 431.126 89.0154C431.219 90.3632 431.447 91.6982 431.808 93.0003C432.65 96.0667 432.867 99.2711 432.444 102.423C432.312 103.441 432.093 104.447 431.789 105.428C430.653 108.877 429.894 115.313 429.894 115.313L428.665 126.483C428.711 128.025 428.644 129.568 428.465 131.1C429.72 132.531 434.758 138.493 432.833 140.116C431.352 141.395 428.761 141.185 427.307 140.922C428.532 143.95 430.46 149.213 430.716 152.829C431.086 158.178 430.083 165.264 428.495 167.984C426.907 170.705 421.614 177.684 421.614 177.684C421.614 177.684 421.862 187.258 419.97 190.737C418.079 194.215 417.317 201.431 417.317 201.431C417.317 201.431 415.551 207.523 416.436 209.763C417.32 212.003 414.796 213.866 417.446 215.355C420.096 216.845 423.487 250.421 423.487 250.421C423.487 250.421 424.853 272.426 423.487 273.546C423.414 273.599 423.336 273.645 423.254 273.683V281.076C423.254 281.076 424.201 282.629 420.348 282.943C417.709 283.154 410.228 283.63 405.79 283.908L402.352 284.122C402.352 284.122 394.209 285.741 390.611 284.122C387.013 282.503 380.636 282.54 381.583 278.263C381.709 277.681 381.877 277.109 382.087 276.551C383.127 273.897 384.892 273.594 388.146 272.855C388.335 272.814 388.516 272.777 388.683 272.748C392.11 272.153 393.235 273.746 395.156 271.672C396.826 269.879 402.141 267.872 403.951 267.236C403.906 267.103 403.851 266.974 403.807 266.837C404.319 266.75 404.796 266.518 405.18 266.168L400.275 266.478L397.355 266.66C397.355 266.66 390.433 268.038 387.361 266.66C384.289 265.281 378.885 265.318 379.692 261.684C379.798 261.189 379.94 260.702 380.118 260.228C381.002 257.973 382.505 257.725 385.27 257.1C385.429 257.067 385.577 257.034 385.725 257.008C388.638 256.502 389.593 257.854 391.225 256.095C392.625 254.594 397.04 252.912 398.628 252.339C398.628 251.519 399.739 250.35 400.438 249.179C401.26 247.811 399.742 243.024 399.742 243.024L398.876 223.163C398.546 223.016 398.198 222.916 397.84 222.867C397.84 222.867 393.924 219.133 394.808 215.156C394.989 213.953 395.083 212.739 395.09 211.522C393.802 210.328 392.029 208.565 391.525 207.478C390.704 205.708 391.525 197.128 391.525 197.128V164.321L384.974 164.983L379.029 165.593L377.219 165.778L371.275 166.376L357.613 167.755L345.302 165.426L339.976 164.421L329.024 162.351V135.588L317.686 133.718ZM407.856 45.0341L408.618 44.9528C408.367 44.9639 408.1 45.0119 407.856 45.0341Z" fill="url(#paint0_linear)"/>
<path d="M344.258 151.096C347.96 156.385 361.266 153.583 361.266 153.583L371.578 143.947L372.966 142.642L370.638 137.703C370.638 137.703 369.898 137.906 368.628 138.269C361.962 140.202 341.134 146.649 344.258 151.096Z" fill="#EFB7B9"/>
<path opacity="0.1" d="M368.636 138.269C369.091 139.851 370.338 142.22 371.578 143.947L372.966 142.642L370.638 137.703C370.638 137.703 369.89 137.906 368.636 138.269Z" fill="black"/>
<path d="M404.002 82.5762C404.002 82.5762 413.507 86.7866 413.041 97.1257C412.705 103.787 411.979 110.422 410.865 116.998C410.865 116.998 412.808 132.557 404.717 136.568C396.625 140.578 389.137 143.876 389.137 143.876C389.137 143.876 376.479 145.236 374.906 145.798C373.332 146.36 368.417 137.769 369.324 136.431C370.231 135.093 381.849 132.287 383.33 130.054C384.81 127.822 388.234 126.443 388.234 126.443C388.234 126.443 391.769 124.306 392.01 122.377C392.25 120.447 391.318 119.009 391.081 118.163C390.844 117.316 390.244 109.143 390.244 109.143C390.244 109.143 386.254 80.0515 404.002 82.5762Z" fill="#DCE6F2"/>
<path opacity="0.1" d="M397.729 116.574C397.729 116.574 410.769 118.755 409.507 123.313C409.507 123.313 404.773 118.393 397.729 116.574Z" fill="black"/>
<path opacity="0.1" d="M397.629 118.419C397.629 118.419 404.799 124.263 403.396 124.563C401.993 124.862 397.629 118.419 397.629 118.419Z" fill="black"/>
<path opacity="0.1" d="M394.183 120.456C394.183 120.456 396.104 124.385 394.923 124.119C393.742 123.853 394.183 120.456 394.183 120.456Z" fill="black"/>
<path opacity="0.1" d="M368.154 138.686L368.947 138.46C368.721 137.721 368.658 137.122 368.843 136.845C369.75 135.507 381.361 132.705 382.838 130.469C384.315 128.232 387.742 126.857 387.742 126.857C387.742 126.857 391.277 124.72 391.518 122.791C391.758 120.861 390.825 119.423 390.589 118.577C390.352 117.73 389.752 109.554 389.752 109.554C389.752 109.554 385.773 80.4656 403.521 82.9903C403.521 82.9903 413.026 87.2043 412.564 97.5435C412.228 104.205 411.5 110.84 410.384 117.416C410.384 117.416 412.327 132.975 404.236 136.985C396.144 140.996 388.656 144.294 388.656 144.294C388.656 144.294 376.001 145.65 374.425 146.216C373.829 146.43 372.752 145.325 371.697 143.806L371.097 144.364L360.785 153.997C360.785 153.997 347.478 156.803 343.777 151.513C340.649 147.062 361.473 140.615 368.154 138.686Z" fill="black"/>
<path d="M409.473 43.7705C409.835 43.8413 410.182 43.9751 410.498 44.1661C410.868 44.4729 410.868 44.9978 410.961 45.4561C411.07 46.0938 411.323 46.6981 411.701 47.2231C411.28 47.2539 410.857 47.1843 410.469 47.0198C410.532 47.5257 410.656 48.0222 410.839 48.4984C410.608 48.5042 410.381 48.4435 410.184 48.3236C409.987 48.2036 409.829 48.0294 409.728 47.8219C409.532 47.4054 409.378 46.9709 409.266 46.5244C409.231 46.3909 409.171 46.2654 409.088 46.1548C408.747 45.7519 408.115 45.933 407.589 45.9847C407.152 46.0216 406.712 45.9409 406.316 45.7511C405.921 45.5613 405.583 45.2693 405.338 44.9054C404.78 44.0589 404.746 41.8927 406.079 41.6635C407.47 41.4343 408.337 43.3491 409.473 43.7705Z" fill="#965D7B"/>
<g opacity="0.1">
<path opacity="0.1" d="M410.535 44.6201C410.502 44.439 410.48 44.2505 410.439 44.0693C410.791 44.3761 410.809 44.8974 410.902 45.3594C410.948 45.626 411.022 45.8873 411.12 46.1394C410.829 45.6755 410.63 45.1595 410.535 44.6201Z" fill="black"/>
<path opacity="0.1" d="M410.417 47.6729C410.232 47.1973 410.108 46.7006 410.047 46.1943C410.417 46.3501 410.818 46.4196 411.22 46.3976C411.337 46.6576 411.479 46.9053 411.646 47.1369C411.226 47.1694 410.804 47.1009 410.417 46.9373C410.478 47.4436 410.602 47.9403 410.787 48.4159C410.556 48.4213 410.329 48.3605 410.132 48.2405C409.935 48.1206 409.777 47.9467 409.676 47.7395C409.584 47.5715 409.51 47.3943 409.454 47.2109C409.563 47.3625 409.708 47.4843 409.876 47.565C410.044 47.6458 410.23 47.6829 410.417 47.6729Z" fill="black"/>
<path opacity="0.1" d="M407.167 45.1596C407.692 45.1078 408.329 44.9267 408.67 45.3296C408.751 45.4411 408.811 45.5663 408.847 45.6993C408.881 45.7954 408.91 45.8952 408.936 45.995C408.584 45.7177 408.014 45.8656 407.537 45.9137C407.1 45.9493 406.661 45.8681 406.265 45.6784C405.87 45.4888 405.532 45.1974 405.286 44.8343C405.174 44.6548 405.091 44.459 405.038 44.2539C405.292 44.5672 405.619 44.8137 405.99 44.9716C406.361 45.1295 406.765 45.194 407.167 45.1596Z" fill="black"/>
</g>
<path d="M398.332 74.2998L392.687 81.0792L393.423 87.9215L400.245 77.257L398.332 74.2998Z" fill="#DCE6F2"/>
<path opacity="0.1" d="M392.691 81.0792L393.383 87.5149L393.427 87.9215L399.583 78.2958L400.245 77.257L400.053 76.9576L398.335 74.2998L397.954 74.7582L392.691 81.0792Z" fill="black"/>
<path d="M389.759 65.1204C391.669 65.6674 393.494 67.5453 395.082 69.826C396.155 71.3997 397.115 73.0476 397.954 74.7572C398.476 75.7996 398.935 76.8014 399.316 77.6738L399.583 78.2948C400.227 79.8141 400.586 80.8306 400.586 80.8306C400.586 80.8306 415.206 69.8519 412.893 69.1126C412.116 68.8649 411.094 67.2015 410.084 65.1056L409.958 64.8394C409.317 63.4939 408.688 61.9931 408.129 60.581C406.986 57.6792 406.138 55.1582 406.138 55.1582C406.138 55.1582 383.93 63.4569 389.759 65.1204Z" fill="#EFB7B9"/>
<path d="M381.013 54.541C381.013 54.541 377.638 60.6403 373.103 59.8086C368.569 58.9769 370.435 56.5334 370.435 56.5334L381.013 54.541Z" fill="#444053"/>
<path d="M387.554 265.67C390.545 267.034 397.307 265.67 397.307 265.67L400.157 265.492C403.858 265.256 410.055 264.856 412.246 264.679C415.444 264.417 414.659 263.108 414.659 263.108V255.201L399.143 251.275C399.143 251.275 393.01 253.371 391.329 255.201C389.734 256.946 388.801 255.604 385.955 256.107C385.814 256.133 385.666 256.162 385.511 256.199C382.809 256.816 381.343 257.06 380.477 259.297C380.303 259.767 380.163 260.249 380.058 260.739C379.259 264.339 384.567 264.313 387.554 265.67Z" fill="#A36468"/>
<path opacity="0.1" d="M380.477 259.297C381.033 259.644 381.617 259.943 382.224 260.191C384.26 261.119 386.195 262.25 388.253 263.126C390.311 264.002 392.528 264.627 394.757 264.461C395.923 264.376 397.114 264.091 398.229 264.424C398.918 264.689 399.567 265.049 400.157 265.492C403.858 265.255 410.055 264.856 412.246 264.679C415.444 264.416 414.659 263.108 414.659 263.108V262.184C414.544 262.184 414.415 262.15 414.267 262.139C413.501 262.127 412.738 262.241 412.009 262.476C410.403 262.912 408.804 263.341 407.197 263.769C407.065 263.271 406.833 262.806 406.515 262.4C406.196 261.995 405.799 261.658 405.346 261.411C404.43 260.925 403.4 260.689 402.363 260.727C399.872 260.76 397.514 261.94 395.027 262.058C394.332 262.122 393.631 262.005 392.995 261.718C392.654 261.548 392.355 261.3 392.021 261.112C391.488 260.854 390.925 260.664 390.345 260.546C388.714 260.14 387.112 259.624 385.551 259.001C385.107 258.827 384.589 258.513 384.648 258.04C384.726 257.411 385.714 257.337 385.973 256.761C386.019 256.657 386.04 256.544 386.035 256.43C386.03 256.317 385.999 256.206 385.944 256.106C385.803 256.132 385.655 256.162 385.5 256.199C382.809 256.816 381.343 257.06 380.477 259.297Z" fill="black"/>
<path d="M390.714 282.969C394.23 284.573 402.188 282.969 402.188 282.969L405.538 282.773C409.876 282.495 417.183 282.033 419.763 281.815C423.527 281.505 422.602 279.967 422.602 279.967V270.648L404.343 266.027C404.343 266.027 397.125 268.493 395.148 270.648C393.272 272.7 392.187 271.121 388.823 271.713C388.656 271.742 388.482 271.779 388.301 271.82C385.121 272.559 383.396 272.836 382.379 275.468C382.172 276.021 382.008 276.588 381.886 277.165C380.968 281.401 387.198 281.368 390.714 282.969Z" fill="#A36468"/>
<path opacity="0.1" d="M382.386 275.47C383.04 275.878 383.727 276.23 384.44 276.523C386.835 277.614 389.115 278.944 391.536 279.976C393.957 281.007 396.566 281.739 399.19 281.547C400.56 281.447 401.963 281.103 403.262 281.502C404.076 281.819 404.842 282.247 405.538 282.774C409.876 282.497 417.183 282.035 419.763 281.817C423.527 281.506 422.602 279.968 422.602 279.968V278.882C422.448 278.857 422.294 278.839 422.139 278.83C421.237 278.813 420.339 278.947 419.481 279.225L413.822 280.748C413.664 280.161 413.388 279.612 413.011 279.134C412.634 278.657 412.163 278.262 411.627 277.972C410.548 277.398 409.336 277.12 408.114 277.166C405.183 277.207 402.411 278.593 399.483 278.734C398.667 278.808 397.847 278.672 397.099 278.338C396.696 278.135 396.359 277.843 395.952 277.625C395.326 277.319 394.662 277.095 393.979 276.959C392.07 276.478 390.195 275.871 388.367 275.141C387.846 274.934 387.235 274.564 387.305 274.009C387.398 273.27 388.56 273.181 388.867 272.501C388.919 272.379 388.942 272.246 388.936 272.113C388.93 271.98 388.893 271.85 388.83 271.732C388.664 271.762 388.49 271.799 388.308 271.84C385.129 272.549 383.404 272.838 382.386 275.47Z" fill="black"/>
<path d="M398.673 219.023L399.661 242.249C399.661 242.249 401.142 246.991 400.338 248.348C399.535 249.705 398.181 251.058 398.673 251.86C399.165 252.662 405.087 261.334 407.001 258.007C408.915 254.68 410.802 240.264 410.802 240.264L409.037 222.458L398.673 219.023Z" fill="#444053"/>
<path d="M394.386 161.157L391.64 164.824V196.718C391.64 196.718 390.837 205.22 391.64 206.976C392.443 208.732 396.515 212.243 396.515 212.243L399.938 194.685L399.198 176.11L394.386 161.157Z" fill="#444053"/>
<path opacity="0.1" d="M398.673 219.023L399.661 242.249C399.661 242.249 401.142 246.991 400.338 248.348C399.535 249.705 398.181 251.058 398.673 251.86C399.165 252.662 405.087 261.334 407.001 258.007C408.915 254.68 410.802 240.264 410.802 240.264L409.037 222.458L398.673 219.023Z" fill="black"/>
<path opacity="0.1" d="M394.386 161.157L391.64 164.824V196.718C391.64 196.718 390.837 205.22 391.64 206.976C392.443 208.732 396.515 212.243 396.515 212.243L399.938 194.685L399.198 176.11L394.386 161.157Z" fill="black"/>
<path d="M391.64 147.555V164.807L394.723 178.236C394.723 178.236 395.711 210.644 394.849 214.584C393.987 218.525 397.81 222.225 397.81 222.225C397.81 222.225 400.031 222.473 400.031 224.195C400.031 225.918 403.732 230.849 403.732 230.849L403.61 240.46C403.61 240.46 402.004 258.451 404.473 261.9C406.942 265.349 403.61 265.844 403.61 265.844C406.694 275.947 421.499 273.607 422.835 272.498C424.172 271.389 422.835 249.579 422.835 249.579C422.835 249.579 419.526 216.311 416.935 214.832C414.344 213.354 416.809 211.505 415.947 209.287C415.085 207.069 416.809 201.033 416.809 201.033C416.809 201.033 417.55 193.884 419.4 190.435C421.251 186.986 421.007 177.497 421.007 177.497C421.007 177.497 426.189 170.596 427.729 167.886C429.268 165.177 430.26 158.153 429.89 152.852C429.638 149.27 427.754 144.055 426.559 141.053C425.985 139.615 425.571 138.684 425.571 138.684L425.219 138.776L405.002 144.062L391.64 147.555Z" fill="#444053"/>
<path opacity="0.1" d="M389.759 65.1218C391.669 65.6689 393.494 67.5467 395.082 69.8275H395.496C397.824 69.8291 400.11 69.2171 402.125 68.0534C404.14 66.8896 405.811 65.2153 406.971 63.1996C407.455 62.3644 407.845 61.478 408.133 60.5566C406.989 57.6548 406.141 55.1338 406.141 55.1338C406.141 55.1338 383.929 63.4584 389.759 65.1218Z" fill="black"/>
<path d="M382.264 55.8803C382.261 57.9029 382.722 59.8993 383.613 61.7156C384.504 63.532 385.801 65.1198 387.403 66.3569C389.006 67.5939 390.871 68.4472 392.855 68.8509C394.84 69.2546 396.891 69.198 398.85 68.6855C400.809 68.1729 402.624 67.2181 404.156 65.8946C405.687 64.571 406.894 62.9141 407.683 61.0514C408.472 59.1886 408.823 57.1699 408.708 55.1505C408.592 53.1312 408.015 51.1652 407.019 49.404C406.618 48.6884 406.149 48.0126 405.62 47.3857C404.747 46.3472 403.721 45.4473 402.577 44.7168C400.645 43.4907 398.428 42.7861 396.142 42.6718C393.856 42.5575 391.579 43.0374 389.534 44.0647C387.489 45.0919 385.746 46.6314 384.475 48.5326C383.204 50.4338 382.449 52.6318 382.283 54.9118C382.275 55.2371 382.264 55.5587 382.264 55.8803Z" fill="#EFB7B9"/>
<path opacity="0.1" d="M393.383 87.5153L393.427 87.9219L399.583 78.311C400.227 79.8302 400.586 80.8468 400.586 80.8468C400.586 80.8468 415.206 69.8533 412.893 69.114C412.116 68.8663 411.094 67.2029 410.084 65.107L409.958 64.8408C408.884 68.0346 402.647 74.4185 400.053 76.9765C399.753 77.2722 399.505 77.5162 399.313 77.6936L398.916 78.0633L398.709 78.2703C397.765 79.2425 393.783 83.5305 393.383 87.5153Z" fill="black"/>
<path d="M388.782 120.126L389.456 141.777L389.574 145.632C389.574 145.632 397.554 144.893 405.002 144.08C410.998 143.425 416.65 142.719 417.52 142.305C418.63 141.784 421.01 141.381 422.887 141.126C424.338 140.93 425.478 140.827 425.478 140.827C425.478 140.827 425.903 140.952 426.559 141.071C427.987 141.329 430.497 141.54 431.959 140.272C433.828 138.649 428.916 132.753 427.691 131.338L427.421 131.031L427.884 126.761L429.087 115.69C429.087 115.69 429.827 109.314 430.937 105.894C431.234 104.922 431.448 103.927 431.578 102.919C431.99 99.7958 431.779 96.6222 430.956 93.5813C430.604 92.2892 430.381 90.9656 430.29 89.6297C430.105 86.2104 419.648 72.9953 417.057 71.794C415.892 71.2512 414.954 70.3171 414.407 69.1546C414.226 68.7891 414.091 68.4031 414.003 68.005C412.893 63.1995 410.084 65.1069 410.084 65.1069C409.406 68.8663 398.92 78.8174 398.92 78.8174L398.713 79.0244C397.673 80.089 393.039 85.0867 393.368 89.3525C393.434 90.9402 393.197 92.5259 392.669 94.0249C390.536 100.732 389.31 107.694 389.023 114.725L388.782 120.126Z" fill="#DCE6F2"/>
<path opacity="0.1" d="M403.64 94.417C403.64 94.417 406.231 100.701 408.174 101.718C410.117 102.734 402.714 103.862 403.64 94.417Z" fill="black"/>
<path opacity="0.1" d="M401.697 106.153C401.697 106.153 407.619 106.893 407.619 108.002C407.619 109.111 401.697 106.153 401.697 106.153Z" fill="black"/>
<path opacity="0.1" d="M395.496 113.361C395.496 113.361 404.102 131.659 406.508 132.214C408.914 132.768 395.496 113.361 395.496 113.361Z" fill="black"/>
<path opacity="0.1" d="M399.083 79.7451L406.201 82.8354L414.792 69.8754C414.611 69.5098 414.476 69.1238 414.389 68.7257C413.278 63.9202 410.469 65.8277 410.469 65.8277C409.791 69.587 399.305 79.5381 399.305 79.5381L399.083 79.7451Z" fill="black"/>
<path d="M398.713 79.0048L405.831 82.0951L414.422 69.1351C414.241 68.7696 414.106 68.3836 414.018 67.9855C412.908 63.18 410.099 65.0874 410.099 65.0874C409.421 68.8468 398.935 78.7978 398.935 78.7978L398.713 79.0048Z" fill="#DCE6F2"/>
<path opacity="0.1" d="M389.575 145.632C389.575 145.632 397.555 144.892 405.002 144.079L391.64 147.572V151.638C392.225 152.167 392.732 152.441 393.061 152.3C394.601 151.653 407.167 149.62 407.167 149.62C407.167 149.62 414.466 145.924 422.343 141.488C422.534 141.382 422.72 141.266 422.898 141.14C423.817 140.518 424.608 139.726 425.23 138.808C426.685 136.705 427.395 134.002 427.703 131.352C427.875 129.833 427.94 128.304 427.895 126.776C427.857 125.043 427.699 123.315 427.421 121.604C428.183 114.978 428.554 108.313 428.532 101.643C428.439 91.2927 418.723 87.5961 418.723 87.5961C400.864 86.0251 406.401 114.858 406.401 114.858C406.401 114.858 407.434 122.99 407.715 123.822C407.996 124.654 409.007 126.04 408.87 127.981C408.733 129.921 405.32 132.243 405.32 132.243C405.32 132.243 401.989 133.803 400.616 136.113C399.617 137.817 393.124 140.128 389.456 141.776L389.575 145.632Z" fill="black"/>
<path opacity="0.1" d="M383.593 47.6733C383.586 48.2822 383.713 48.8852 383.963 49.4403C384.153 49.8932 384.373 50.3329 384.622 50.7562C385.012 51.535 385.565 52.2209 386.243 52.7672C387.098 53.3771 388.179 53.5471 389.204 53.7948C390.23 54.0425 391.296 54.438 391.88 55.3104C392.197 55.8712 392.409 56.485 392.506 57.1217C392.604 57.7578 392.858 58.3598 393.246 58.8738C393.448 59.1248 393.728 59.3016 394.042 59.3766C394.355 59.4515 394.685 59.4203 394.979 59.2878C395.288 59.0794 395.523 58.7776 395.648 58.4265C396.07 57.4765 396.178 56.423 396.348 55.3991C396.518 54.3751 396.759 53.3216 397.388 52.4973C398.017 51.673 399.131 51.1296 400.12 51.4512C400.451 51.5784 400.752 51.771 401.007 52.0174C401.261 52.2639 401.463 52.5591 401.6 52.8854C401.874 53.5387 402.062 54.2246 402.159 54.9259C402.618 57.4346 403.16 59.9286 403.784 62.4077C403.803 62.5093 403.845 62.6054 403.906 62.6886C404.005 62.7866 404.137 62.8423 404.276 62.8439C405.106 62.9548 405.901 62.3744 406.738 62.4373C406.824 62.443 406.91 62.4566 406.993 62.4779C408.346 60.1305 408.943 57.4246 408.704 54.7268C408.465 52.0291 407.401 49.4699 405.657 47.3961L405.59 47.3776C405.034 47.1803 404.528 46.8622 404.11 46.4461C403.576 45.9121 403.081 45.3401 402.629 44.7346L402.333 44.3649C401.482 43.3414 400.513 42.4219 399.446 41.6258C399.155 41.3875 398.821 41.2068 398.462 41.0935C398.154 41.0337 397.839 41.0237 397.529 41.0639C396.25 41.2172 394.962 41.2654 393.676 41.2081C392.779 41.0674 391.876 40.9761 390.97 40.9346C388.627 41.0011 386.628 42.6535 385.148 44.4648C384.352 45.3926 383.641 46.4609 383.593 47.6733Z" fill="black"/>
<path d="M408.747 49.7556C409.262 50.5984 410.191 51.1714 410.539 52.0955C411.05 53.4374 410.187 55.1082 410.979 56.3059C411.242 56.7088 411.675 57.0082 411.823 57.4703C412.075 58.2503 411.387 59.082 411.564 59.8841C411.742 60.6863 412.8 61.3627 412.519 62.1464C412.353 62.4882 412.061 62.7529 411.705 62.8857C411.144 63.207 410.498 63.3501 409.854 63.296C408.844 63.1297 408.092 62.139 407.067 62.0651C406.234 62.0059 405.438 62.5826 404.609 62.4754C404.47 62.4706 404.338 62.4138 404.239 62.3164C404.176 62.2341 404.134 62.1376 404.117 62.0355C403.495 59.5588 402.952 57.0649 402.488 54.5537C402.394 53.8522 402.207 53.1661 401.933 52.5132C401.795 52.1876 401.592 51.8929 401.338 51.6466C401.084 51.4003 400.783 51.2073 400.453 51.079C399.464 50.7611 398.354 51.3008 397.721 52.1251C397.088 52.9494 396.847 54.0029 396.677 55.0269C396.507 56.0508 396.4 57.1043 395.981 58.0543C395.854 58.4067 395.618 58.7096 395.308 58.9193C394.752 59.2409 394.005 58.9859 393.579 58.5053C393.189 57.9911 392.935 57.3874 392.839 56.7495C392.742 56.1139 392.53 55.5013 392.213 54.9419C391.628 54.0695 390.559 53.674 389.537 53.4263C388.516 53.1786 387.438 53.0049 386.576 52.395C385.898 51.8493 385.345 51.1648 384.955 50.3877C384.407 49.434 383.896 48.399 383.941 47.3011C383.989 46.1035 384.699 45.0352 385.458 44.1036C386.939 42.2923 388.941 40.64 391.284 40.5771C392.191 40.615 393.094 40.7063 393.99 40.8507C395.276 40.9085 396.565 40.859 397.843 40.7028C398.154 40.6657 398.469 40.6769 398.776 40.7361C399.135 40.8457 399.469 41.0268 399.757 41.2684C400.825 42.0632 401.795 42.9814 402.648 44.0038C403.197 44.7315 403.793 45.4229 404.432 46.0739C404.85 46.4906 405.356 46.81 405.912 47.0091C406.282 47.1126 406.652 47.0387 407.004 47.1533C408.096 47.497 408.24 48.9202 408.747 49.7556Z" fill="#965D7B"/>
<path opacity="0.1" d="M373.103 59.8049C376.064 60.3483 378.518 57.9566 379.877 56.2118C380.294 55.682 380.674 55.1237 381.013 54.541L370.849 56.4558L370.438 56.5334C370.438 56.5334 368.569 58.9769 373.103 59.8049Z" fill="black"/>
<g opacity="0.1">
<path opacity="0.1" d="M411.564 58.8257C411.523 58.3423 411.597 57.8559 411.779 57.4062C411.779 57.4432 411.812 57.4802 411.824 57.5171C411.983 58.0125 411.768 58.5263 411.631 59.0401C411.602 58.9711 411.579 58.8992 411.564 58.8257Z" fill="black"/>
<path opacity="0.1" d="M410.683 52.7734C410.721 53.2846 410.712 53.7982 410.654 54.3075C410.616 53.7963 410.626 53.2828 410.683 52.7734Z" fill="black"/>
<path opacity="0.1" d="M384.977 49.3179C385.367 50.0966 385.92 50.7825 386.598 51.3288C387.453 51.9387 388.53 52.1087 389.559 52.3564C390.588 52.6041 391.651 52.9996 392.236 53.872C392.552 54.433 392.764 55.0467 392.861 55.6833C392.957 56.321 393.212 56.9246 393.601 57.4391C394.027 57.9197 394.775 58.1784 395.33 57.8531C395.641 57.6434 395.876 57.3405 396.004 56.9882C396.422 56.0381 396.533 54.9883 396.699 53.9607C396.866 52.9331 397.114 51.8832 397.743 51.0589C398.372 50.2346 399.487 49.6912 400.475 50.0128C400.805 50.1405 401.107 50.3333 401.361 50.5797C401.615 50.8261 401.818 51.1211 401.955 51.4471C402.229 52.0999 402.416 52.786 402.511 53.4875C402.972 55.9987 403.515 58.4926 404.139 60.9693C404.157 61.0715 404.198 61.1679 404.261 61.2503C404.36 61.3477 404.493 61.4044 404.632 61.4092C405.461 61.5164 406.256 60.9397 407.089 60.9989C408.115 61.0728 408.866 62.0635 409.876 62.2261C410.521 62.2839 411.168 62.1405 411.727 61.8158C411.984 61.7053 412.215 61.5415 412.404 61.3353C412.491 61.4591 412.548 61.601 412.572 61.7502C412.596 61.8994 412.585 62.052 412.541 62.1966C412.378 62.5407 412.086 62.8065 411.727 62.9359C411.168 63.2606 410.521 63.4039 409.876 63.3462C408.866 63.1835 408.115 62.1929 407.089 62.1189C406.256 62.0598 405.461 62.6365 404.632 62.5293C404.493 62.5244 404.36 62.4677 404.261 62.3703C404.198 62.2879 404.157 62.1915 404.139 62.0894C403.517 59.625 402.975 57.1311 402.511 54.6076C402.416 53.906 402.229 53.22 401.955 52.5671C401.818 52.2411 401.615 51.9462 401.361 51.6998C401.107 51.4534 400.805 51.2606 400.475 51.1329C399.487 50.8113 398.376 51.3546 397.743 52.179C397.11 53.0033 396.87 54.0568 396.699 55.0807C396.529 56.1047 396.422 57.1582 396.004 58.1082C395.876 58.4605 395.641 58.7635 395.33 58.9732C394.775 59.2948 394.027 59.0397 393.601 58.5592C393.212 58.0446 392.957 57.4411 392.861 56.8033C392.764 56.1668 392.552 55.5531 392.236 54.992C391.651 54.1197 390.581 53.7278 389.559 53.4765C388.538 53.2251 387.461 53.0587 386.598 52.4488C385.92 51.9025 385.367 51.2167 384.977 50.4379C384.429 49.4879 383.918 48.4529 383.963 47.355C383.97 47.2138 383.985 47.0732 384.007 46.9336C384.186 47.7797 384.514 48.5871 384.977 49.3179Z" fill="black"/>
</g>
<path opacity="0.1" d="M383.948 49.4308C382.999 51.1162 382.437 52.9911 382.301 54.9201C385.599 53.0718 388.701 51.0424 390.267 50.3364C392.995 49.1055 403.196 49.2903 407.03 49.4049C406.629 48.6893 406.161 48.0134 405.631 47.3866C404.755 46.3472 403.725 45.4472 402.577 44.7177C401.058 43.7543 399.357 43.1106 397.579 42.826C395.802 42.5413 393.985 42.6217 392.239 43.0621C390.494 43.5025 388.857 44.2938 387.428 45.3876C386 46.4813 384.809 47.8546 383.93 49.4234L383.948 49.4308Z" fill="black"/>
<path opacity="0.1" d="M372.178 58.2375C373.958 58.7846 376.864 57.7274 379.877 56.2119C380.294 55.682 380.674 55.1237 381.013 54.541L370.849 56.4558C370.176 56.9142 370.005 57.5685 372.178 58.2375Z" fill="black"/>
<path d="M394.708 36.6154C394.708 36.6154 404.424 36.0609 407.156 41.3285L407.597 45.9972L408.337 45.9159L408.485 49.0912C408.485 49.0912 393.635 48.4443 390.256 49.9673C386.876 51.4902 376.375 59.1642 372.167 57.8705C367.958 56.5767 372.537 55.3753 372.537 55.3753C372.537 55.3753 378.33 52.9245 378.33 51.0023C378.33 49.0801 379.766 38.9257 394.708 36.6154Z" fill="#444053"/>
<path opacity="0.1" d="M413.448 209.686C413.448 209.686 407.248 215.692 404.565 215.23C404.565 215.23 412.153 214.583 413.448 209.686Z" fill="black"/>
<path opacity="0.1" d="M414.744 212.47C414.744 212.47 414.189 215.56 412.708 215.257C411.228 214.954 414.744 212.47 414.744 212.47Z" fill="black"/>
<path opacity="0.1" d="M405.028 264.117C405.028 264.117 413.83 270.956 412.346 271.141C410.861 271.325 405.028 264.117 405.028 264.117Z" fill="black"/>
<path d="M393.253 128.391L364.753 123.759V150.706L391.832 149.291L393.253 128.391Z" fill="#07A557"/>
<path opacity="0.05" d="M393.253 128.391L364.753 123.759V150.706L391.832 149.291L393.253 128.391Z" fill="black"/>
<path d="M364.752 123.759L330.574 126.313L332.465 149.764L364.752 150.706V123.759Z" fill="#07A557"/>
<path opacity="0.1" d="M364.752 123.759L330.574 126.313L332.465 149.764L364.752 150.706V123.759Z" fill="black"/>
<path d="M354.244 115.534L364.752 123.759L330.574 126.313L324.988 117.896L354.244 115.534Z" fill="#07A557"/>
<path d="M403.573 119.409L377.915 116.289L364.753 123.76L393.254 128.391L403.573 119.409Z" fill="#07A557"/>
<path d="M358.505 130.757V167.601L371.856 166.233L377.663 165.642L379.432 165.457L385.236 164.862L393.253 164.041V128.392L364.756 130.329L358.505 130.757Z" fill="#07A557"/>
<path d="M330.574 126.313V162.244L341.275 164.295L346.479 165.293L358.505 167.6V130.757L330.574 126.313Z" fill="#07A557"/>
<path opacity="0.05" d="M330.574 126.313V162.244L341.275 164.295L346.479 165.293L358.505 167.6V130.757L330.574 126.313Z" fill="black"/>
<path d="M403.573 136.147L393.254 128.392L358.505 130.757L363.62 139.363L403.573 136.147Z" fill="#07A557"/>
<path opacity="0.1" d="M403.573 136.147L393.254 128.392L358.505 130.757L363.62 139.363L403.573 136.147Z" fill="white"/>
<path d="M330.574 126.313L358.505 130.757L349.414 138.889L319.496 133.877L330.574 126.313Z" fill="#07A557"/>
<path opacity="0.1" d="M330.574 126.313L358.505 130.757L349.414 138.889L319.496 133.877L330.574 126.313Z" fill="white"/>
<path opacity="0.1" d="M341.275 164.296L346.479 165.294V157.616L341.604 156.389L341.275 164.296Z" fill="white"/>
<path opacity="0.1" d="M371.856 161.153V166.232L377.663 165.641V161.153H371.856Z" fill="white"/>
<path opacity="0.1" d="M379.433 162.756V165.458L385.236 164.863V162.756H379.433Z" fill="white"/>
<path opacity="0.1" d="M361.999 158.459C365.978 163.542 379.118 160.03 379.118 160.03L388.882 149.857L390.208 148.478L387.617 143.673C387.617 143.673 386.876 143.917 385.64 144.346C379.096 146.63 358.649 154.182 361.999 158.459Z" fill="black"/>
<path d="M362.369 157.721C366.348 162.803 379.488 159.292 379.488 159.292L389.252 149.119L390.577 147.74L387.986 142.935C387.986 142.935 387.246 143.179 386.01 143.607C379.466 145.892 359.019 153.444 362.369 157.721Z" fill="#EFB7B9"/>
<path opacity="0.1" d="M386.025 143.607C386.565 145.16 387.938 147.459 389.267 149.119L390.592 147.74L388.001 142.935C388.001 142.935 387.257 143.179 386.025 143.607Z" fill="black"/>
<path d="M418.352 86.118C418.352 86.118 428.069 89.8146 428.161 100.165C428.183 106.835 427.813 113.5 427.051 120.126C427.051 120.126 429.827 135.559 421.961 139.995C414.096 144.431 406.786 148.127 406.786 148.127C406.786 148.127 394.219 150.16 392.676 150.807C391.132 151.454 385.769 143.137 386.602 141.751C387.435 140.365 398.876 136.945 400.234 134.635C401.593 132.325 404.939 130.768 404.939 130.768C404.939 130.768 408.351 128.443 408.488 126.503C408.625 124.562 407.618 123.176 407.333 122.344C407.048 121.512 406.016 113.38 406.016 113.38C406.016 113.38 400.493 84.5285 418.352 86.118Z" fill="#DCE6F2"/>
<path opacity="0.1" d="M413.911 120.385C413.911 120.385 427.051 121.863 426.033 126.484C426.033 126.484 421.039 121.823 413.911 120.385Z" fill="black"/>
<path opacity="0.1" d="M413.911 122.233C413.911 122.233 421.37 127.686 420 128.055C418.631 128.425 413.911 122.233 413.911 122.233Z" fill="black"/>
<path opacity="0.1" d="M410.58 124.451C410.58 124.451 412.708 128.273 411.505 128.074C410.302 127.874 410.58 124.451 410.58 124.451Z" fill="black"/>
<path d="M273.769 41.5465C273.769 41.5465 287.834 40.7 286.191 50.555C286.191 50.555 286.52 52.296 284.94 53.0871C284.94 53.0871 284.914 52.3478 283.496 52.6028C282.991 52.6877 282.478 52.7125 281.967 52.6768C281.275 52.6307 280.617 52.3593 280.094 51.9042C280.094 51.9042 276.138 50.274 274.598 43.8125C274.598 43.8125 273.458 42.4004 273.487 42.0382L275.864 43.0547C275.864 43.0547 275.053 44.7662 275.694 46.1894C275.694 46.1894 275.768 43.1175 276.227 43.1878C276.319 43.1878 277.459 43.7829 277.459 43.7829C277.459 43.7829 276.064 46.7623 277.119 48.9322C277.119 48.9322 276.719 45.2578 277.896 43.9973L279.569 44.9732C279.569 44.9732 277.937 48.0524 279.043 50.566C279.043 50.566 278.758 46.7106 279.92 45.2098L281.438 46.389C281.438 46.389 279.902 49.4275 280.838 51.5124C280.838 51.5124 280.961 47.0248 281.767 46.6847C281.767 46.6847 283.093 47.8528 283.292 48.3333C283.292 48.3333 282.245 50.5513 282.896 51.7009C282.896 51.7009 283.296 48.7104 283.637 48.6956C283.637 48.6956 284.958 50.6769 285.095 52.0225C285.031 50.7681 284.639 49.5523 283.959 48.496C284.72 48.6399 285.423 49.0036 285.98 49.5421C285.98 49.5421 285.776 48.1411 283.633 48.0191C283.633 48.0191 282.523 46.5147 282.249 46.4222C282.249 46.4222 284.381 46.2448 285.672 46.8178C285.672 46.8178 284.536 45.4981 281.856 46.0785L280.376 44.8586C280.376 44.8586 283.181 44.489 284.373 44.8993C284.373 44.8993 283.004 43.7312 279.972 44.5814L278.344 43.6092C278.344 43.6092 280.735 43.0917 282.16 43.2802C282.16 43.2802 280.657 42.4706 277.866 43.3467L276.7 42.8255C276.7 42.8255 278.455 42.4817 278.966 42.4263C279.476 42.3708 279.506 42.2304 279.506 42.2304C278.396 42.0459 277.257 42.1739 276.215 42.6C276.215 42.6 273.717 41.7018 273.769 41.5465Z" fill="#07A557"/>
<path opacity="0.1" d="M231.032 90.8346C231.032 90.8346 245.098 89.9881 243.454 99.843C243.454 99.843 243.784 101.584 242.203 102.375C242.203 102.375 242.177 101.636 240.756 101.891C240.251 101.976 239.738 102.001 239.227 101.965C238.543 101.915 237.894 101.646 237.377 101.196C237.377 101.196 233.416 99.5621 231.876 93.1006C231.876 93.1006 230.74 91.6922 230.785 91.3299L233.161 92.3428C233.161 92.3428 232.35 94.0543 232.987 95.4774C232.987 95.4774 233.065 92.4056 233.52 92.4759C233.612 92.4759 234.756 93.071 234.756 93.071C234.756 93.071 233.357 96.0541 234.412 98.2203C234.412 98.2203 234.012 94.5459 235.193 93.2854L236.847 94.2502C236.847 94.2502 235.215 97.3294 236.322 99.843C236.322 99.843 236.037 95.9876 237.199 94.4868L238.713 95.6697C238.713 95.6697 237.18 98.7045 238.113 100.789C238.113 100.789 238.235 96.3018 239.042 95.9617C239.042 95.9617 240.367 97.1298 240.571 97.6103C240.571 97.6103 239.52 99.8283 240.171 100.978C240.171 100.978 240.571 97.9874 240.911 97.9726C240.911 97.9726 242.233 99.9539 242.37 101.299C242.304 100.045 241.911 98.8293 241.23 97.773C241.992 97.9172 242.696 98.2808 243.254 98.8191C243.254 98.8191 243.047 97.4181 240.904 97.2961C240.904 97.2961 239.812 95.7916 239.52 95.6992C239.52 95.6992 241.652 95.5218 242.944 96.0948C242.944 96.0948 241.807 94.7751 239.131 95.3739L237.651 94.1541C237.651 94.1541 240.46 93.7844 241.648 94.1947C241.648 94.1947 240.279 93.0266 237.247 93.8768L235.619 92.9046C235.619 92.9046 238.013 92.3908 239.438 92.5757C239.438 92.5757 237.932 91.7661 235.141 92.6422L233.975 92.121C233.975 92.121 235.73 91.7772 236.244 91.7218C236.759 91.6663 236.784 91.5259 236.784 91.5259C235.673 91.3412 234.533 91.4692 233.49 91.8955C233.49 91.8955 230.988 90.9899 231.032 90.8346Z" fill="#07A557"/>
<path opacity="0.1" d="M316.48 82.0842C316.48 82.0842 313.241 68.3737 323.249 68.3257C323.249 68.3257 324.911 67.7047 325.959 69.1241C325.959 69.1241 325.244 69.2757 325.729 70.6286C325.897 71.107 326.009 71.6032 326.062 72.1072C326.134 72.7943 325.98 73.4861 325.622 74.0775C325.622 74.0775 324.686 78.2546 318.589 80.8717C318.589 80.8717 317.39 82.232 317.027 82.2468L317.62 79.7369C317.62 79.7369 319.448 80.2433 320.744 79.3672C320.744 79.3672 317.697 79.8145 317.694 79.3672C317.694 79.2748 318.064 78.0512 318.064 78.0512C318.064 78.0512 321.243 78.9162 323.205 77.5079C323.205 77.5079 319.648 78.5281 318.201 77.5855L318.867 75.7668C318.867 75.7668 322.198 76.8499 324.478 75.3306C324.478 75.3306 320.721 76.2695 319.041 75.3824L319.948 73.6893C319.948 73.6893 323.205 74.68 325.104 73.4047C325.104 73.4047 320.662 74.0479 320.181 73.316C320.181 73.316 321.106 71.8115 321.547 71.5306C321.547 71.5306 323.901 72.1886 324.937 71.3494C324.937 71.3494 321.921 71.464 321.85 71.1461C321.85 71.1461 323.579 69.5086 324.897 69.1389C323.669 69.4181 322.534 70.0118 321.606 70.8615C321.62 70.0868 321.859 69.3328 322.294 68.6916C322.294 68.6916 320.947 69.1352 321.184 71.2792C321.184 71.2792 319.889 72.61 319.848 72.9131C319.848 72.9131 319.311 70.8467 319.655 69.4753C319.655 69.4753 318.545 70.8208 319.592 73.353L318.645 75.0349C318.645 75.0349 317.786 72.3364 318.004 71.0944C318.004 71.0944 317.083 72.6395 318.441 75.4785L317.757 77.2491C317.757 77.2491 316.842 74.9794 316.783 73.5526C316.783 73.5526 316.239 75.1717 317.583 77.7703L317.264 79.005C317.264 79.005 316.628 77.3378 316.487 76.8425C316.346 76.3472 316.202 76.3435 316.202 76.3435C316.208 77.468 316.527 78.5688 317.124 79.5225C317.124 79.5225 316.639 82.1026 316.48 82.0842Z" fill="#07A557"/>
<path opacity="0.1" d="M347.282 86.758C347.282 86.758 358.579 78.3189 362.617 87.4604C362.617 87.4604 363.85 88.7357 362.965 90.2623C362.965 90.2623 362.543 89.6672 361.485 90.6542C361.11 91.0025 360.695 91.3053 360.248 91.5561C359.644 91.8923 358.946 92.0221 358.261 91.9258C358.261 91.9258 354.056 92.7353 349.214 88.1849C349.214 88.1849 347.486 87.6304 347.323 87.3051L349.873 86.8578C349.873 86.8578 350.14 88.732 351.454 89.5711C351.454 89.5711 349.829 86.9613 350.251 86.7728C350.336 86.7321 351.609 86.588 351.609 86.588C351.609 86.588 352.083 89.8483 354.156 91.0793C354.156 91.0793 351.798 88.2292 352.09 86.5288L354.026 86.4253C354.026 86.4253 354.356 89.8964 356.665 91.3898C356.665 91.3898 354.308 88.3254 354.444 86.4327L356.362 86.588C356.362 86.588 356.75 89.9629 358.679 91.1902C358.679 91.1902 356.314 87.3753 356.799 86.6508C356.799 86.6508 358.549 86.8985 358.982 87.1868C358.982 87.1868 359.319 89.6043 360.504 90.218C360.504 90.218 359.19 87.501 359.456 87.3125C359.456 87.3125 361.651 88.2403 362.514 89.2975C361.767 88.2853 360.77 87.4851 359.619 86.9761C360.335 86.6789 361.122 86.5967 361.884 86.7395C361.884 86.7395 360.944 85.6823 359.086 86.758C359.086 86.758 357.346 86.1037 357.05 86.1851C357.05 86.1851 358.734 84.8654 360.13 84.6362C360.13 84.6362 358.449 84.1557 356.543 86.1148L354.622 85.9189C354.622 85.9189 356.758 84.0706 357.983 83.7601C357.983 83.7601 356.195 83.5346 354.134 85.9078L352.238 85.9928C352.238 85.9928 353.952 84.2481 355.244 83.6197C355.244 83.6197 353.545 83.7675 351.694 86.0335L350.432 86.2368C350.432 86.2368 351.709 84.9874 352.109 84.6621C352.509 84.3368 352.453 84.2 352.453 84.2C351.423 84.6554 350.541 85.3874 349.903 86.3144C349.903 86.3144 347.33 86.9096 347.282 86.758Z" fill="#07A557"/>
<path opacity="0.1" d="M309.672 8.35146C309.672 8.35146 320.969 -0.091413 325.007 9.0538C325.007 9.0538 326.24 10.3291 325.355 11.8558C325.355 11.8558 324.933 11.2606 323.875 12.2476C323.498 12.5942 323.082 12.8956 322.635 13.1459C322.03 13.4823 321.332 13.6121 320.647 13.5155C320.647 13.5155 316.442 14.3251 311.601 9.77093C311.601 9.77093 309.872 9.22015 309.713 8.89116L312.263 8.45127C312.263 8.45127 312.526 10.3254 313.844 11.1645C313.844 11.1645 312.215 8.55477 312.637 8.36625C312.722 8.32559 313.996 8.18142 313.996 8.18142C313.996 8.18142 314.484 11.4492 316.557 12.6727C316.557 12.6727 314.203 9.82268 314.492 8.12228L316.427 8.01878C316.427 8.01878 316.761 11.4898 319.067 12.9795C319.067 12.9795 316.709 9.9151 316.846 8.02247L318.759 8.17773C318.759 8.17773 319.152 11.5564 321.08 12.7836C321.08 12.7836 318.711 8.96878 319.196 8.24426C319.196 8.24426 320.947 8.49193 321.38 8.78026C321.38 8.78026 321.717 11.1978 322.901 11.8114C322.901 11.8114 321.587 9.09447 321.854 8.90225C321.854 8.90225 324.049 9.83377 324.911 10.891C324.166 9.87765 323.168 9.07721 322.017 8.56956C322.733 8.27016 323.522 8.18789 324.286 8.33298C324.286 8.33298 323.342 7.27577 321.484 8.35146C321.484 8.35146 319.744 7.69348 319.448 7.7785C319.448 7.7785 321.132 6.45884 322.527 6.22596C322.527 6.22596 320.851 5.74911 318.944 7.70457L317.023 7.50865C317.023 7.50865 319.155 5.66039 320.384 5.34618C320.384 5.34618 318.596 5.12439 316.531 7.49756L314.636 7.57889C314.636 7.57889 316.35 5.83413 317.645 5.20941C317.645 5.20941 315.943 5.35727 314.092 7.62325L312.833 7.82655C312.833 7.82655 314.114 6.59191 314.514 6.27401C314.914 5.95611 314.858 5.81564 314.858 5.81564C313.828 6.27053 312.945 7.00263 312.308 7.93006C312.308 7.93006 309.735 8.49193 309.672 8.35146Z" fill="#07A557"/>
<path opacity="0.1" d="M266.507 19.0439C266.507 19.0439 271.023 5.69569 279.539 10.9411C279.539 10.9411 281.279 11.3107 281.416 13.0518C281.416 13.0518 280.731 12.8004 280.428 14.2051C280.315 14.7048 280.145 15.1898 279.921 15.6505C279.615 16.2704 279.116 16.7749 278.499 17.0884C278.499 17.0884 275.494 20.138 268.92 19.1289C268.92 19.1289 267.184 19.6538 266.866 19.4727L268.717 17.6577C268.717 17.6577 269.997 19.0513 271.559 18.9958C271.559 18.9958 268.735 17.7686 268.968 17.373C269.016 17.2954 269.982 16.4563 269.982 16.4563C269.982 16.4563 272.225 18.8701 274.631 18.7112C274.631 18.7112 271.074 17.6983 270.349 16.1236L271.881 14.9444C271.881 14.9444 274.124 17.6133 276.874 17.532C276.874 17.532 273.173 16.3454 272.237 14.7041L273.902 13.7467C273.902 13.7467 276.123 16.3084 278.425 16.2271C278.425 16.2271 274.309 14.4269 274.298 13.5545C274.298 13.5545 275.879 12.7672 276.401 12.7598C276.401 12.7598 278.051 14.56 279.362 14.3973C279.362 14.3973 276.741 12.9002 276.852 12.5934C276.852 12.5934 279.184 12.1166 280.498 12.501C279.31 12.0878 278.034 11.9922 276.797 12.2238C277.219 11.5728 277.822 11.059 278.533 10.7452C278.533 10.7452 277.156 10.4088 276.234 12.3458C276.234 12.3458 274.428 12.793 274.235 13.0259C274.235 13.0259 274.872 10.9891 275.89 10.0058C275.89 10.0058 274.235 10.564 273.784 13.2662L272.089 14.1903C272.089 14.1903 272.788 11.4512 273.632 10.4938C273.632 10.4938 272.029 11.3218 271.681 14.4454L270.164 15.5876C270.164 15.5876 270.586 13.1775 271.296 11.928C271.296 11.928 269.979 13.0148 269.742 15.9314L268.82 16.8112C268.82 16.8112 269.161 15.059 269.301 14.5637C269.442 14.0683 269.327 14.0351 269.327 14.0351C268.739 14.994 268.428 16.0968 268.428 17.2215C268.428 17.2215 266.636 19.14 266.507 19.0439Z" fill="#07A557"/>
<path opacity="0.1" d="M295.977 19.7023C295.977 19.7023 310.006 18.1424 308.847 28.0823C308.847 28.0823 309.265 29.8049 307.737 30.6699C307.737 30.6699 307.674 29.9306 306.256 30.2633C305.755 30.3709 305.244 30.4218 304.731 30.4148C304.039 30.4024 303.37 30.1649 302.825 29.7384C302.825 29.7384 298.787 28.3078 296.903 21.9313C296.903 21.9313 295.696 20.5821 295.722 20.2161L298.146 21.1107C298.146 21.1107 297.406 22.8591 298.146 24.249C298.146 24.249 298.069 21.1772 298.516 21.2253C298.609 21.2253 299.779 21.7576 299.779 21.7576C299.779 21.7576 298.535 24.8072 299.697 26.9327C299.697 26.9327 299.112 23.2805 300.226 21.9646L301.948 22.8517C301.948 22.8517 300.467 26.0123 301.707 28.4668C301.707 28.4668 301.226 24.6298 302.31 23.0735L303.883 24.1825C303.883 24.1825 302.507 27.2913 303.547 29.3281C303.547 29.3281 303.439 24.8405 304.228 24.4597C304.228 24.4597 305.612 25.5687 305.838 26.0271C305.838 26.0271 304.901 28.2819 305.608 29.4094C305.608 29.4094 305.856 26.4041 306.182 26.3745C306.182 26.3745 307.603 28.2856 307.811 29.6349C307.682 28.384 307.228 27.1885 306.493 26.1675C307.261 26.2735 307.981 26.6011 308.566 27.1101C308.566 27.1101 308.292 25.724 306.145 25.7092C306.145 25.7092 304.979 24.2638 304.664 24.1862C304.664 24.1862 306.785 23.9016 308.107 24.408C308.107 24.408 306.904 23.1438 304.261 23.8794L302.703 22.7372C302.703 22.7372 305.519 22.1679 306.711 22.5375C306.711 22.5375 305.283 21.4286 302.299 22.4451L300.623 21.5543C300.623 21.5543 302.988 20.9185 304.42 21.0331C304.42 21.0331 302.877 20.2937 300.134 21.3177L298.942 20.8556C298.942 20.8556 300.678 20.4231 301.189 20.3418C301.7 20.2605 301.718 20.12 301.718 20.12C300.599 19.9918 299.466 20.1761 298.446 20.6523C298.446 20.6523 295.951 19.8576 295.977 19.7023Z" fill="#07A557"/>
<path opacity="0.1" d="M173.239 128.444C173.239 128.444 187.26 126.884 186.101 136.813C186.101 136.813 186.52 138.535 184.991 139.4C184.991 139.4 184.928 138.661 183.51 138.99C183.01 139.101 182.498 139.152 181.985 139.141C181.293 139.131 180.623 138.893 180.079 138.465C180.079 138.465 176.041 137.034 174.175 130.662C174.175 130.662 172.969 129.309 172.995 128.946L175.419 129.837C175.419 129.837 174.679 131.589 175.419 132.979C175.419 132.979 175.341 129.904 175.789 129.956C175.882 129.956 177.051 130.484 177.051 130.484C177.051 130.484 175.808 133.534 176.97 135.659C176.97 135.659 176.385 132.011 177.499 130.691L179.22 131.582C179.22 131.582 177.74 134.743 178.976 137.197C178.976 137.197 178.499 133.36 179.583 131.8L181.156 132.909C181.156 132.909 179.779 136.018 180.819 138.051C180.819 138.051 180.712 133.563 181.501 133.186C181.501 133.186 182.881 134.295 183.111 134.754C183.111 134.754 182.17 137.009 182.881 138.136C182.881 138.136 183.129 135.131 183.455 135.101C183.455 135.101 184.876 137.012 185.084 138.361C184.955 137.111 184.501 135.915 183.766 134.894C184.534 134.998 185.255 135.326 185.839 135.837C185.839 135.837 185.565 134.447 183.418 134.432C183.418 134.432 182.248 132.987 181.937 132.913C181.937 132.913 184.058 132.624 185.38 133.131C185.38 133.131 184.177 131.87 181.53 132.606L179.976 131.464C179.976 131.464 182.759 130.939 183.969 131.301C183.969 131.301 182.541 130.192 179.557 131.205L177.881 130.318C177.881 130.318 180.246 129.682 181.678 129.797C181.678 129.797 180.135 129.057 177.392 130.081L176.2 129.615C176.2 129.615 177.936 129.183 178.447 129.105C178.958 129.028 178.976 128.884 178.976 128.884C177.858 128.753 176.725 128.936 175.704 129.412C175.704 129.412 173.202 128.603 173.239 128.444Z" fill="#07A557"/>
<path opacity="0.1" d="M151.804 141.522C151.804 141.522 165.825 139.966 164.667 149.891C164.667 149.891 165.081 151.614 163.556 152.479C163.556 152.479 163.493 151.74 162.076 152.072C161.576 152.181 161.066 152.23 160.555 152.22C159.866 152.206 159.2 151.97 158.656 151.547C158.656 151.547 154.621 150.117 152.756 143.74C152.756 143.74 151.545 142.391 151.575 142.025L153.999 142.916C153.999 142.916 153.259 144.668 153.999 146.058C153.999 146.058 153.922 142.986 154.37 143.034C154.462 143.034 155.632 143.563 155.632 143.563C155.632 143.563 154.388 146.612 155.55 148.738C155.55 148.738 154.965 145.089 156.08 143.773L157.801 144.661C157.801 144.661 156.32 147.821 157.556 150.276C157.556 150.276 157.079 146.439 158.163 144.882L159.737 145.991C159.737 145.991 158.36 149.1 159.396 151.137C159.396 151.137 159.292 146.646 160.081 146.269C160.081 146.269 161.461 147.378 161.691 147.836C161.691 147.836 160.751 150.091 161.461 151.218C161.461 151.218 161.709 148.213 162.035 148.183C162.035 148.183 163.456 150.095 163.66 151.444C163.532 150.193 163.079 148.998 162.346 147.976C163.114 148.082 163.834 148.41 164.419 148.919C164.419 148.919 164.141 147.529 161.994 147.518C161.994 147.518 160.828 146.073 160.514 145.995C160.514 145.995 162.635 145.71 163.956 146.217C163.956 146.217 162.753 144.953 160.107 145.688L158.552 144.546C158.552 144.546 161.336 144.021 162.546 144.383C162.546 144.383 161.117 143.274 158.134 144.291L156.457 143.4C156.457 143.4 158.822 142.764 160.255 142.879C160.255 142.879 158.711 142.14 155.969 143.164L154.777 142.701C154.777 142.701 156.513 142.269 157.02 142.188C157.527 142.106 157.553 141.966 157.553 141.966C156.434 141.838 155.301 142.022 154.281 142.498C154.281 142.498 151.767 141.681 151.804 141.522Z" fill="#07A557"/>
<path opacity="0.1" d="M199.393 31.3606C199.393 31.3606 210.689 22.9214 214.728 32.0629C214.728 32.0629 215.96 33.3382 215.075 34.8649C215.075 34.8649 214.653 34.2697 213.595 35.2567C213.22 35.6051 212.805 35.9078 212.359 36.1587C211.754 36.4946 211.056 36.6244 210.371 36.5283C210.371 36.5283 206.166 37.3379 201.321 32.7874C201.321 32.7874 199.596 32.2329 199.433 31.9077L201.976 31.4493C201.976 31.4493 202.243 33.3234 203.557 34.1625C203.557 34.1625 201.932 31.5528 202.354 31.3643C202.439 31.3236 203.709 31.1794 203.709 31.1794C203.709 31.1794 204.186 34.4398 206.259 35.6707C206.259 35.6707 203.901 32.8207 204.193 31.1203L206.129 31.0168C206.129 31.0168 206.459 34.4878 208.768 35.9812C208.768 35.9812 206.407 32.9168 206.547 31.0242L208.465 31.1794C208.465 31.1794 208.835 34.5544 210.782 35.7816C210.782 35.7816 208.413 31.9668 208.902 31.2423C208.902 31.2423 210.652 31.4899 211.085 31.7783C211.085 31.7783 211.418 34.1958 212.603 34.8094C212.603 34.8094 211.293 32.0925 211.559 31.904C211.559 31.904 213.754 32.8318 214.616 33.889C213.87 32.8767 212.873 32.0765 211.722 31.5676C212.438 31.2704 213.225 31.1882 213.987 31.331C213.987 31.331 213.043 30.2738 211.185 31.3495C211.185 31.3495 209.449 30.6952 209.153 30.7765C209.153 30.7765 210.837 29.4569 212.233 29.2277C212.233 29.2277 210.552 28.7471 208.646 30.7063L206.725 30.5104C206.725 30.5104 208.857 28.6621 210.086 28.3516C210.086 28.3516 208.298 28.1261 206.237 30.4993L204.338 30.5843C204.338 30.5843 206.055 28.8395 207.347 28.2111C207.347 28.2111 205.644 28.359 203.797 30.625L202.535 30.8283C202.535 30.8283 203.812 29.5788 204.212 29.2535C204.612 28.9282 204.552 28.821 204.552 28.821C203.524 29.2772 202.643 30.0091 202.006 30.9355C202.006 30.9355 199.441 31.5121 199.393 31.3606Z" fill="#07A557"/>
<path opacity="0.1" d="M190.665 92.2885C190.665 92.2885 194.559 78.7481 203.317 83.609C203.317 83.609 205.071 83.8788 205.29 85.631C205.29 85.631 204.594 85.4129 204.353 86.8287C204.264 87.3373 204.115 87.8336 203.909 88.3073C203.634 88.9443 203.159 89.474 202.554 89.8155C202.554 89.8155 199.689 92.9945 193.079 92.2848C193.079 92.2848 191.369 92.8836 191.043 92.7209L192.794 90.8209C192.794 90.8209 194.137 92.1591 195.692 92.0334C195.692 92.0334 192.82 90.9244 193.042 90.5289C193.086 90.4476 194.011 89.5641 194.011 89.5641C194.011 89.5641 196.358 91.8781 198.757 91.6083C198.757 91.6083 195.155 90.7581 194.363 89.2277L195.844 87.9783C195.844 87.9783 198.205 90.5437 200.948 90.3441C200.948 90.3441 197.217 89.3201 196.188 87.7269L197.809 86.6956C197.809 86.6956 200.159 89.1538 202.439 88.969C202.439 88.969 198.246 87.3536 198.194 86.4849C198.194 86.4849 199.741 85.6273 200.263 85.5977C200.263 85.5977 201.992 87.3203 203.306 87.0985C203.306 87.0985 200.618 85.7197 200.715 85.4092C200.715 85.4092 203.024 84.8289 204.353 85.1505C203.15 84.794 201.874 84.7571 200.652 85.0432C201.043 84.3744 201.622 83.8347 202.317 83.4907C202.317 83.4907 200.926 83.2135 200.097 85.1911C200.097 85.1911 198.316 85.716 198.131 85.96C198.131 85.96 198.675 83.8936 199.649 82.8697C199.649 82.8697 198.02 83.4981 197.691 86.2187L196.04 87.2205C196.04 87.2205 196.617 84.4481 197.417 83.4722C197.417 83.4722 195.855 84.3705 195.644 87.5051L194.163 88.7139C194.163 88.7139 194.478 86.289 195.129 85.0174C195.129 85.0174 193.86 86.1633 193.756 89.0836L192.875 90.0077C192.875 90.0077 193.134 88.2408 193.245 87.738C193.356 87.2353 193.245 87.1651 193.245 87.1651C192.697 88.1483 192.435 89.2645 192.486 90.3884C192.486 90.3884 190.799 92.3772 190.665 92.2885Z" fill="#07A557"/>
<path opacity="0.1" d="M277.433 122.799C277.433 122.799 284.995 110.903 292.017 118.023C292.017 118.023 293.623 118.762 293.342 120.518C293.342 120.518 292.731 120.111 292.102 121.405C291.876 121.864 291.595 122.293 291.265 122.684C290.824 123.218 290.219 123.592 289.544 123.749C289.544 123.749 285.898 125.996 279.754 123.453C279.754 123.453 277.944 123.549 277.678 123.301L279.898 121.971C279.898 121.971 280.813 123.634 282.341 123.948C282.341 123.948 279.891 122.1 280.22 121.76C280.283 121.693 281.423 121.109 281.423 121.109C281.423 121.109 283.026 123.985 285.402 124.403C285.402 124.403 282.186 122.573 281.853 120.88L283.626 120.1C283.626 120.1 285.169 123.224 287.856 123.797C287.856 123.797 284.562 121.767 284.026 119.949L285.876 119.416C285.876 119.416 287.438 122.436 289.678 122.899C289.678 122.899 286.109 120.171 286.306 119.32C286.306 119.32 288.03 118.932 288.526 119.05C288.526 119.05 289.7 121.191 291.025 121.346C291.025 121.346 288.834 119.269 289.015 118.995C289.015 118.995 291.395 119.087 292.579 119.771C291.523 119.088 290.305 118.693 289.048 118.625C289.611 118.093 290.318 117.737 291.08 117.601C291.08 117.601 289.826 116.947 288.489 118.611C288.489 118.611 286.639 118.611 286.383 118.795C286.383 118.795 287.494 116.947 288.711 116.256C288.711 116.256 286.972 116.404 285.891 118.921L284.022 119.416C284.022 119.416 285.358 116.921 286.398 116.208C286.398 116.208 284.647 116.629 283.563 119.583L281.816 120.322C281.816 120.322 282.8 118.086 283.789 117.04C283.789 117.04 282.249 117.779 281.327 120.555L280.217 121.194C280.217 121.194 280.957 119.572 281.22 119.124C281.483 118.677 281.379 118.574 281.379 118.574C280.578 119.364 280.013 120.361 279.747 121.453C279.747 121.453 277.533 122.924 277.433 122.799Z" fill="#07A557"/>
<path d="M227.735 62.0207C227.735 62.0207 234.926 49.8997 242.17 56.7975C242.17 56.7975 243.799 57.4998 243.569 59.252C243.569 59.252 242.951 58.8601 242.359 60.1724C242.147 60.6389 241.88 61.0782 241.563 61.481C241.138 62.0261 240.545 62.4159 239.875 62.5899C239.875 62.5899 236.303 64.9483 230.081 62.5899C230.081 62.5899 228.275 62.7415 228.001 62.5012L230.174 61.1039C230.174 61.1039 231.136 62.7341 232.676 63.0039C232.676 63.0039 230.17 61.2185 230.485 60.8821C230.551 60.8119 231.669 60.1909 231.669 60.1909C231.669 60.1909 233.361 63.0187 235.741 63.3625C235.741 63.3625 232.469 61.6325 232.087 59.9543L233.834 59.1337C233.834 59.1337 235.474 62.2129 238.18 62.7045C238.18 62.7045 234.823 60.7786 234.231 58.9784L236.059 58.387C236.059 58.387 237.717 61.3442 239.968 61.7508C239.968 61.7508 236.318 59.1337 236.488 58.2798C236.488 58.2798 238.198 57.8362 238.709 57.9397C238.709 57.9397 239.949 60.043 241.278 60.1576C241.278 60.1576 239.024 58.1541 239.194 57.8731C239.194 57.8731 241.578 57.8916 242.781 58.5385C241.703 57.8894 240.474 57.5326 239.216 57.5035C239.763 56.954 240.459 56.5762 241.219 56.4167C241.219 56.4167 239.942 55.7994 238.628 57.5035C238.628 57.5035 236.777 57.5663 236.529 57.7549C236.529 57.7549 237.577 55.9066 238.776 55.1451C238.776 55.1451 237.044 55.3447 236.041 57.8953L234.19 58.4498C234.19 58.4498 235.445 55.914 236.466 55.1673C236.466 55.1673 234.727 55.6441 233.735 58.6272L232.013 59.4294C232.013 59.4294 232.928 57.1634 233.864 56.1025C233.864 56.1025 232.35 56.8899 231.51 59.6918L230.426 60.3646C230.426 60.3646 231.121 58.7197 231.366 58.265C231.61 57.8103 231.506 57.7105 231.506 57.7105C230.73 58.5249 230.196 59.5384 229.963 60.6382C229.963 60.6382 227.842 62.1426 227.735 62.0207Z" fill="#07A557"/>
<path d="M273.236 87.5082C273.236 87.5082 272.866 73.4245 282.663 75.4095C282.663 75.4095 284.418 75.1397 285.158 76.7439C285.158 76.7439 284.418 76.7439 284.625 78.1671C284.693 78.6746 284.7 79.1883 284.647 79.6975C284.58 80.3882 284.288 81.0377 283.815 81.5457C283.815 81.5457 282.049 85.4419 275.531 86.7652C275.531 86.7652 274.084 87.8557 273.721 87.7966L274.831 85.4604C274.831 85.4604 276.515 86.3253 277.963 85.7376C277.963 85.7376 274.891 85.5565 274.976 85.1055C274.976 85.0131 275.612 83.8893 275.612 83.8893C275.612 83.8893 278.551 85.3864 280.754 84.4031C280.754 84.4031 277.052 84.6804 275.842 83.4642L276.874 81.8267C276.874 81.8267 279.902 83.5566 282.456 82.5364C282.456 82.5364 278.588 82.6917 277.122 81.4829L278.355 80.0043C278.355 80.0043 281.342 81.6382 283.459 80.7732C283.459 80.7732 278.973 80.5033 278.647 79.6864C278.647 79.6864 279.862 78.4037 280.35 78.2078C280.35 78.2078 282.519 79.3167 283.704 78.7179C283.704 78.7179 280.742 78.2226 280.724 77.8936C280.724 77.8936 282.749 76.6404 284.114 76.548C282.855 76.5705 281.623 76.9223 280.543 77.5683C280.711 76.8127 281.097 76.1228 281.653 75.5832C281.653 75.5832 280.243 75.7422 280.05 77.8751C280.05 77.8751 278.507 78.9175 278.407 79.2058C278.407 79.2058 278.3 77.0729 278.918 75.8013C278.918 75.8013 277.556 76.8918 278.066 79.5829L276.797 81.0393C276.797 81.0393 276.508 78.2226 276.971 77.0508C276.971 77.0508 275.757 78.3778 276.504 81.4311L275.479 83.0243C275.479 83.0243 275.042 80.6179 275.275 79.2021C275.275 79.2021 274.417 80.6807 275.201 83.4938L274.639 84.6397C274.639 84.6397 274.354 82.8765 274.317 82.3627C274.28 81.8488 274.139 81.8156 274.139 81.8156C273.916 82.9183 274.005 84.0611 274.395 85.1166C274.395 85.1166 273.399 87.5563 273.236 87.5082Z" fill="#07A557"/>
<path opacity="0.1" d="M257.038 266.464C251.533 266.464 247.071 265.711 247.071 264.783C247.071 263.854 251.533 263.101 257.038 263.101C262.544 263.101 267.006 263.854 267.006 264.783C267.006 265.711 262.544 266.464 257.038 266.464Z" fill="#07A557"/>
<path opacity="0.1" d="M293.375 292C287.87 292 283.407 291.247 283.407 290.318C283.407 289.389 287.87 288.636 293.375 288.636C298.88 288.636 303.343 289.389 303.343 290.318C303.343 291.247 298.88 292 293.375 292Z" fill="#07A557"/>
<path opacity="0.1" d="M481.28 278.919C475.775 278.919 471.312 278.166 471.312 277.237C471.312 276.308 475.775 275.555 481.28 275.555C486.785 275.555 491.248 276.308 491.248 277.237C491.248 278.166 486.785 278.919 481.28 278.919Z" fill="#07A557"/>
<path opacity="0.1" d="M217.77 290.319C212.265 290.319 207.803 289.566 207.803 288.637C207.803 287.708 212.265 286.955 217.77 286.955C223.276 286.955 227.738 287.708 227.738 288.637C227.738 289.566 223.276 290.319 217.77 290.319Z" fill="#07A557"/>
<path d="M207.392 269.81C199.172 269.81 192.508 268.684 192.508 267.296C192.508 265.908 199.172 264.782 207.392 264.782C215.611 264.782 222.275 265.908 222.275 267.296C222.275 268.684 215.611 269.81 207.392 269.81Z" fill="#07A557"/>
<path d="M201.221 263.183C200.542 262.632 200.047 261.886 199.804 261.046C199.619 260.196 199.981 259.18 200.792 258.869C201.703 258.522 202.676 259.15 203.416 259.786C204.157 260.422 204.997 261.15 205.963 261.017C205.467 260.567 205.096 259.996 204.886 259.361C204.676 258.726 204.634 258.047 204.764 257.39C204.806 257.118 204.921 256.863 205.097 256.651C205.604 256.111 206.518 256.344 207.125 256.769C209.05 258.122 209.587 260.732 209.598 263.083C209.79 262.237 209.627 261.353 209.631 260.496C209.635 259.638 209.875 258.647 210.612 258.196C211.064 257.945 211.575 257.817 212.092 257.827C212.959 257.797 213.925 257.882 214.513 258.514C215.253 259.298 215.057 260.617 214.421 261.471C213.784 262.325 212.81 262.876 211.915 263.475C211.198 263.902 210.586 264.485 210.123 265.179C210.071 265.276 210.027 265.377 209.994 265.482H204.567C203.353 264.871 202.227 264.098 201.221 263.183Z" fill="#07A557"/>
<path d="M487.972 269.418C487.972 269.418 482.291 269.244 480.569 268.025C478.848 266.805 471.823 265.352 471.397 267.308C470.972 269.263 462.855 277.026 469.273 277.077C475.691 277.129 484.186 276.079 485.896 275.037C487.606 273.995 487.972 269.418 487.972 269.418Z" fill="#A8A8A8"/>
<path opacity="0.2" d="M469.165 276.397C475.584 276.448 484.078 275.399 485.788 274.356C487.091 273.565 487.609 270.722 487.783 269.41H487.972C487.972 269.41 487.602 273.99 485.903 275.029C484.204 276.068 475.698 277.121 469.28 277.069C467.429 277.069 466.789 276.397 466.822 275.421C467.082 276.016 467.788 276.386 469.165 276.397Z" fill="black"/>
</g>
<path d="M93.1715 202.631H79.2092V220.621H53.2984V202.631H3.62483V185.313L45.7802 126.644H73.3021L35.04 181.554H54.1039V165.577H79.2092V181.554H93.1715V202.631ZM140.052 222.501C131.997 222.501 124.837 220.576 118.572 216.728C112.306 212.879 107.384 207.285 103.804 199.946C100.313 192.517 98.5678 183.746 98.5678 173.633C98.5678 163.519 100.313 154.792 103.804 147.453C107.384 140.025 112.306 134.386 118.572 130.537C124.837 126.689 131.997 124.765 140.052 124.765C148.018 124.765 155.133 126.689 161.398 130.537C167.663 134.386 172.541 140.025 176.032 147.453C179.612 154.792 181.402 163.519 181.402 173.633C181.402 183.746 179.612 192.517 176.032 199.946C172.541 207.285 167.663 212.879 161.398 216.728C155.133 220.576 148.018 222.501 140.052 222.501ZM140.052 200.752C144.527 200.752 148.062 198.604 150.658 194.308C153.343 189.922 154.686 183.03 154.686 173.633C154.686 164.235 153.343 157.388 150.658 153.092C148.062 148.706 144.527 146.514 140.052 146.514C135.487 146.514 131.863 148.706 129.177 153.092C126.582 157.388 125.284 164.235 125.284 173.633C125.284 183.03 126.582 189.922 129.177 194.308C131.863 198.604 135.487 200.752 140.052 200.752ZM279.08 202.631H265.118V220.621H239.207V202.631H189.534V185.313L231.689 126.644H259.211L220.949 181.554H240.013V165.577H265.118V181.554H279.08V202.631Z" fill="#FF7308"/>
<defs>
<linearGradient id="paint0_linear" x1="433.218" y1="160.214" x2="317.686" y2="160.214" gradientUnits="userSpaceOnUse">
<stop offset="1" stop-color="#808080" stop-opacity="0.25"/>
<stop offset="0.54" stop-color="#808080" stop-opacity="0.12"/>
<stop offset="1" stop-color="#808080" stop-opacity="0.1"/>
</linearGradient>
<clipPath id="clip0">
<rect width="373.671" height="292" fill="white" transform="matrix(-1 0 0 1 515.755 0)"/>
</clipPath>
</defs>
</svg>
