<svg width="701" height="458" viewBox="0 0 701 458" fill="none" xmlns="http://www.w3.org/2000/svg">
<path fill-rule="evenodd" clip-rule="evenodd" d="M194.348 22.4931C200.046 22.4931 222.606 22.4931 225.455 22.4931C228.304 22.4931 229.444 22.7371 230.014 20.7852C230.583 18.8335 229.253 18.1012 228.114 17.6134C226.975 17.1255 224.8 14.6856 222.901 14.4415C221.002 14.1975 220.622 14.6858 220.622 14.6858C219.111 11.4519 205.24 11.7352 203.085 12.4898C200.996 13.2214 200.616 15.1734 200.616 15.1734C195.284 13.6845 195.711 15.1542 191.499 17.6134C191.499 17.6134 189.98 18.3459 189.6 20.2973C189.221 22.2486 190.55 22.4931 192.449 22.4931C194.348 22.4931 194.348 22.4931 194.348 22.4931Z" fill="white"/>
<path fill-rule="evenodd" clip-rule="evenodd" d="M263.255 351.155C325.38 345.055 400.678 346.015 448.611 329.389C509.119 308.402 519.221 268.271 523.435 249.8C530.989 216.697 505.856 191.837 505.856 191.837L532.295 189.577L577.653 186.999C646.517 260.331 603.119 378.748 484.473 392.195C426.713 398.742 407.737 436.792 406.237 436.788L134.249 436.092C144.289 397.569 146.686 362.602 263.255 351.155Z" fill="url(#paint0_linear)"/>
<path fill-rule="evenodd" clip-rule="evenodd" d="M674.01 73.3688H648.797L648.867 84.5394L648.921 93.1361V93.3902H641.928V73.3688V60.2781C641.928 59.1795 641.028 58.2787 639.927 58.2787H624.68C623.58 58.2787 622.68 59.1795 622.68 60.2781V78.557H604.223C603.122 78.557 602.222 79.4565 602.222 80.5563V86.6083H591.856V64.4658C591.856 63.3669 590.956 62.4665 589.855 62.4665H568.927C567.826 62.4665 566.926 63.3669 566.926 64.4658V73.8247H552.15V65.5682C552.15 64.4693 551.249 63.5692 550.149 63.5692H542.678C541.577 63.5692 540.677 64.4693 540.677 65.5682V86.6083H523.08V48.1122V40.4742C523.08 40.3409 523.072 40.2101 523.057 40.0822H498.011C497.995 40.2101 497.987 40.3409 497.987 40.4742V48.1122V71.9435H486.636V66.0073C486.636 64.9076 485.737 64.0083 484.635 64.0083H467.666V54.1051C467.666 53.0058 466.766 52.1067 465.665 52.1067H422.239C421.137 52.1067 420.238 53.0058 420.238 54.1051V75.0302H405.03C403.93 75.0302 403.03 75.9291 403.03 77.0284V94.5435H393.99V68.6523C393.99 68.5804 393.986 68.51 393.979 68.4404V67.2107C393.979 67.0917 393.973 66.9747 393.96 66.8595H350.56C350.548 66.9747 350.541 67.0917 350.541 67.2107V68.4484C350.535 68.5154 350.532 68.5833 350.532 68.6523V98.5143H326.492V27.875C326.492 26.7772 325.593 25.8779 324.492 25.8779H283.819C282.718 25.8779 281.819 26.7772 281.819 27.875V99.2841H276.37V59.8866C276.37 58.7863 275.47 57.8877 274.37 57.8877H259.103V50.5192C259.103 49.917 258.833 49.3752 258.408 49.0079H245.517C245.092 49.3752 244.822 49.917 244.822 50.5192V55.2029V59.8866V75.0383H239.972V66.3688V57.3972V56.4785C239.972 56.0206 239.877 55.5895 239.698 55.2029H196.808C196.629 55.5895 196.534 56.0206 196.534 56.4785V57.1084C196.52 57.2028 196.513 57.299 196.513 57.3972V79.8566H177.285C176.185 79.8566 175.285 80.7563 175.285 81.8556V92.4525H171.639V70.1749C171.639 69.0747 170.738 68.1756 169.638 68.1756H156.332C155.232 68.1756 154.331 69.0747 154.331 70.1749V76.5823H144.018V51.8429C144.018 50.7433 143.118 49.8436 142.017 49.8436H122.514V49.7518H97.4906V96.0762H83.3567C82.3732 96.0762 81.5688 96.881 81.5688 97.8627V134.43C81.5688 135.412 82.3741 136.217 83.3567 136.217H97.4906H103.169H106.893H118.265H657.829H674.01H687.045C687.888 136.217 688.577 135.528 688.577 134.686V110.836C688.577 109.994 687.888 109.305 687.045 109.305H674.01V103.259V73.3688Z" fill="url(#paint1_linear)"/>
<path fill-rule="evenodd" clip-rule="evenodd" d="M657.338 146.928H114.071H101.9C79.284 146.928 76.3432 145.846 75.9866 141.769C75.7902 139.525 76.3432 135.088 84.8275 131.44C88.4146 129.897 88.8391 130.345 90.8118 126.904C93.5229 122.173 95.6645 119.023 101.007 117.005C105.795 115.196 112.449 114.837 116.695 117.393C118.076 118.224 121.837 118.855 124.113 118.323C129.472 117.07 135.258 112.73 144.551 113.559C157.789 114.74 173.319 119.957 173.319 119.957L270.097 117.372C281.131 117.077 319.516 107.626 330.907 108.298C346.669 109.228 358.354 117.122 361.078 118.531C364.12 120.105 378.695 106.438 398.628 106.438C424.587 106.438 433.544 122.002 438.301 122.002C443.415 122.002 448.694 114.345 464.998 113.909C471.486 113.736 482.033 115.74 484.815 119.461C487.597 123.182 577.105 125.973 577.105 125.973C577.105 125.973 581.453 114.339 597.905 113.874C624.506 113.123 626.433 125.077 631.636 125.077C635.705 125.077 637.91 117.517 655.371 117.145C677.89 116.664 705.294 143.521 687.862 146.439C685.963 146.757 675.578 146.928 673.491 146.928C672.602 146.928 671.725 146.896 670.864 146.836C666.251 147.46 661.301 146.928 657.338 146.928Z" fill="#F4FCD2"/>
<path fill-rule="evenodd" clip-rule="evenodd" d="M657.338 149.368H114.071H101.9C79.284 149.368 76.3432 148.286 75.9866 144.209C75.7902 141.965 76.3432 137.528 84.8275 133.88C88.4146 132.338 88.8391 132.786 90.8118 129.344C93.5229 124.613 95.6645 121.464 101.007 119.445C105.795 117.636 112.449 117.277 116.695 119.833C118.076 120.664 121.837 121.295 124.113 120.763C129.472 119.51 135.258 115.17 144.551 115.999C157.789 117.181 173.319 122.398 173.319 122.398L270.097 119.813C281.131 119.518 319.516 110.066 330.907 110.738C346.669 111.668 358.354 119.562 361.078 120.971C364.12 122.546 378.695 108.878 398.628 108.878C424.587 108.878 433.544 124.442 438.301 124.442C443.415 124.442 448.694 116.785 464.998 116.35C471.486 116.177 482.033 118.18 484.815 121.902C487.597 125.623 577.105 128.413 577.105 128.413C577.105 128.413 581.453 116.779 597.905 116.315C624.506 115.564 626.433 127.517 631.636 127.517C635.705 127.517 637.91 119.958 655.371 119.585C677.89 119.104 705.294 145.961 687.862 148.88C685.963 149.198 675.578 149.368 673.491 149.368C672.602 149.368 671.725 149.337 670.864 149.277C666.251 149.9 661.301 149.368 657.338 149.368Z" fill="#ECF5C9"/>
<path fill-rule="evenodd" clip-rule="evenodd" d="M620.029 173.942C630.615 173.942 645.16 176.492 645.16 179.638C645.16 182.784 630.615 185.334 620.029 185.334C609.442 185.334 600.86 182.784 600.86 179.638C600.86 176.492 609.442 173.942 620.029 173.942Z" fill="#EDE8DC"/>
<path fill-rule="evenodd" clip-rule="evenodd" d="M622.751 174.623C622.751 174.623 622.814 174.623 622.93 174.619C622.972 174.618 623.008 174.618 623.049 174.619C623.166 174.623 623.229 174.623 623.229 174.623V174.606C625.514 174.478 635.367 173.396 638.069 164.214C641.133 153.806 638.376 149.826 637.15 147.377C635.925 144.928 635.005 143.092 635.618 139.112C636.231 135.132 638.069 133.602 635.618 129.316C633.167 125.03 631.329 124.418 631.329 120.744C631.329 115.668 631.192 107.581 623.67 107.581H622.309C614.787 107.581 614.65 115.668 614.65 120.744C614.65 124.418 612.812 125.03 610.361 129.316C607.91 133.602 609.748 135.132 610.361 139.112C610.974 143.092 610.055 144.928 608.829 147.377C607.604 149.826 604.847 153.806 607.91 164.214C610.613 173.396 620.465 174.478 622.751 174.606L622.751 174.623Z" fill="#CEDE8C"/>
<path d="M621.818 121.968C621.818 121.455 622.235 121.038 622.749 121.038C623.264 121.038 623.68 121.455 623.68 121.968V178.297C623.68 178.81 623.264 179.227 622.749 179.227C622.235 179.227 621.818 178.81 621.818 178.297V121.968Z" fill="#968978"/>
<path d="M629.184 142.504C629.509 142.109 630.094 142.052 630.49 142.377C630.885 142.702 630.942 143.287 630.617 143.682L623.519 152.275C623.194 152.67 622.609 152.727 622.213 152.402C621.817 152.077 621.761 151.492 622.086 151.097L629.184 142.504Z" fill="#968978"/>
<path d="M616.811 127.369C616.477 126.98 616.523 126.394 616.913 126.061C617.302 125.728 617.889 125.773 618.222 126.163L623.485 132.288C623.819 132.677 623.773 133.264 623.384 133.597C622.994 133.93 622.407 133.884 622.074 133.495L616.811 127.369Z" fill="#968978"/>
<path fill-rule="evenodd" clip-rule="evenodd" d="M524.935 185.048C562.516 185.048 614.151 188.086 614.151 191.834C614.151 195.582 562.516 198.62 524.935 198.62C487.354 198.62 456.889 195.582 456.889 191.834C456.889 188.086 487.354 185.048 524.935 185.048Z" fill="#EDE8DC"/>
<path d="M479.537 187.686H584.248L584.569 116.001L572.486 100.584H490.934L479.537 112.344V187.686Z" fill="#CFC2B2"/>
<path d="M558.488 119.663L559.372 123.226L559.665 127.618C559.824 129.96 563.961 131.895 568.858 131.895C573.755 131.895 577.548 129.96 577.291 127.618L576.807 123.226L575.355 119.663H558.488ZM506.091 119.663L505.209 123.226L504.916 127.618C504.758 129.96 508.637 131.895 513.535 131.895C518.431 131.895 522.486 129.96 522.541 127.618L522.646 123.226L522.959 119.663H506.091ZM488.675 119.663L487.206 123.226L486.717 127.618C486.456 129.96 490.246 131.895 495.143 131.895C500.04 131.895 504.18 129.96 504.341 127.618L504.64 123.226L505.541 119.663H488.675ZM523.532 119.663L523.238 123.226L523.14 127.618C523.087 129.96 527.05 131.895 531.949 131.895C536.846 131.895 540.812 129.96 540.765 127.618L540.672 123.226L540.398 119.663H523.532ZM540.949 119.663L541.242 123.226L541.34 127.618C541.391 129.96 545.441 131.895 550.338 131.895C555.236 131.895 559.117 129.96 558.964 127.618L558.677 123.226L557.816 119.663H540.949Z" fill="#C2B5A5"/>
<path d="M574.775 112.736L577.377 123.21L577.867 127.605C578.073 129.457 580.722 131.05 584.246 131.642V112.736H574.775Z" fill="#C2B5A5"/>
<path d="M479.537 112.736V131.745C483.421 131.283 486.457 129.584 486.663 127.605L487.151 123.21L489.767 112.736H479.537Z" fill="#C2B5A5"/>
<path d="M512.381 100.469H499.829L487.207 121.365H504.64L512.381 100.469Z" fill="#B5C76A"/>
<path d="M487.206 121.364L486.717 125.49C486.456 127.691 490.246 129.51 495.143 129.51C500.04 129.51 504.179 127.691 504.341 125.49L504.64 121.364H487.206Z" fill="#83943D"/>
<path d="M525.341 100.469H512.789L505.209 121.365H522.646L525.341 100.469Z" fill="#E1D6C8"/>
<path d="M505.211 121.364L504.918 125.49C504.76 127.691 508.638 129.51 513.536 129.51C518.432 129.51 522.487 127.691 522.542 125.49L522.647 121.364H505.211Z" fill="#A89B8A"/>
<path d="M523.238 121.364L523.14 125.49C523.087 127.691 527.051 129.51 531.949 129.51C536.846 129.51 540.813 127.691 540.765 125.49L540.672 121.364H523.238Z" fill="#83943D"/>
<path d="M538.319 100.469H525.766L523.239 121.365H540.673L538.319 100.469Z" fill="#B5C76A"/>
<path d="M551.278 100.469H538.728L541.242 121.365H558.678L551.278 100.469Z" fill="#E1D6C8"/>
<path d="M541.242 121.364L541.339 125.49C541.392 127.691 545.442 129.51 550.338 129.51C555.236 129.51 559.117 127.691 558.964 125.49L558.678 121.364H541.242Z" fill="#A89B8A"/>
<path d="M564.332 100.469H551.78L559.372 121.365H576.807L564.332 100.469Z" fill="#B5C76A"/>
<path d="M576.807 121.364H559.372L559.665 125.49C559.824 127.691 563.961 129.51 568.858 129.51C573.756 129.51 577.549 127.691 577.291 125.49L576.807 121.364Z" fill="#83943D"/>
<path d="M577.291 100.469H572.778H564.741L577.376 121.365H594.811L577.291 100.469Z" fill="#E1D6C8"/>
<path d="M594.81 121.364H577.376L577.865 125.49C578.127 127.691 582.351 129.51 587.249 129.51C592.146 129.51 595.526 127.691 595.162 125.49L594.81 121.364Z" fill="#A89B8A"/>
<path d="M499.796 100.469H487.244L469.725 121.365H487.159L499.796 100.469Z" fill="#E1D6C8"/>
<path d="M469.724 121.364L469.373 125.49C469.011 127.691 472.389 129.51 477.287 129.51C482.185 129.51 486.408 127.691 486.669 125.49L487.158 121.364H469.724Z" fill="#A89B8A"/>
<path d="M515.789 134.825H483.668V182.663H515.901V134.825H515.789ZM518.298 182.663H550.53V134.825H518.298V182.663Z" fill="#968978"/>
<path d="M485.289 181.506H515.171H515.901V135.985H515.854H491.349H485.289V151.647V181.506ZM518.299 181.506H536.908H548.911V169.017V135.985H518.299V181.506Z" fill="#DCF5F5"/>
<path d="M548.911 172.813V169.017V167.52L518.299 149.86V155.152L548.911 172.813ZM515.901 148.476L494.249 135.985H491.349H485.289V136.109L515.901 153.769V148.476Z" fill="#EDFFFF"/>
<path d="M514.877 181.507H515.171H515.901V170.077L485.289 152.416V164.437L514.877 181.507ZM518.299 181.507H535.715L518.299 171.46V181.507Z" fill="#EDFFFF"/>
<path d="M553.235 186.879H580.44V134.829H553.235V186.879Z" fill="#968978"/>
<path d="M556.097 158.747H577.578V137.051H556.097V158.747Z" fill="#DCF5F5"/>
<path d="M577.578 156.608V151.316L556.097 138.923V144.216L577.578 156.608Z" fill="#EDFFFF"/>
<path d="M475.774 191.835H588.791C589.274 191.835 589.667 191.441 589.667 190.959V188.642C589.667 188.16 589.274 187.767 588.791 187.767H475.774C475.291 187.767 474.898 188.16 474.898 188.642V190.959C474.898 191.441 475.291 191.835 475.774 191.835Z" fill="#BAAD9C"/>
<path fill-rule="evenodd" clip-rule="evenodd" d="M557.057 160.002H560.563C561.286 160.002 561.877 160.593 561.877 161.315V161.315C561.877 162.038 561.286 162.629 560.563 162.629H557.057C556.334 162.629 555.743 162.038 555.743 161.315V161.315C555.743 160.593 556.334 160.002 557.057 160.002Z" fill="#CFC2B2"/>
<path fill-rule="evenodd" clip-rule="evenodd" d="M661.419 182.314C671.697 182.314 685.819 184.62 685.819 187.464C685.819 190.308 671.697 192.613 661.419 192.613C651.141 192.613 642.809 190.308 642.809 187.464C642.809 184.62 651.141 182.314 661.419 182.314Z" fill="#EDE8DC"/>
<path fill-rule="evenodd" clip-rule="evenodd" d="M662.601 182.93C662.601 182.93 662.658 182.93 662.763 182.927C662.8 182.925 662.833 182.925 662.87 182.927C662.976 182.93 663.033 182.93 663.033 182.93V182.914C665.099 182.799 674.007 181.821 676.45 173.52C679.22 164.11 676.727 160.512 675.619 158.298C674.511 156.084 673.68 154.423 674.234 150.825C674.788 147.227 676.45 145.843 674.234 141.968C672.018 138.093 670.356 137.54 670.356 134.219C670.356 129.63 670.232 122.317 663.432 122.317H662.201C655.401 122.317 655.277 129.63 655.277 134.219C655.277 137.54 653.615 138.093 651.399 141.968C649.183 145.843 650.845 147.227 651.399 150.825C651.953 154.423 651.122 156.084 650.015 158.298C648.907 160.512 646.414 164.11 649.183 173.52C651.627 181.821 660.534 182.799 662.601 182.914V182.93Z" fill="#B5C76A"/>
<path d="M661.669 135.329C661.669 134.815 662.086 134.398 662.6 134.398C663.115 134.398 663.532 134.815 663.532 135.329V186.254C663.532 186.768 663.115 187.185 662.6 187.185C662.086 187.185 661.669 186.768 661.669 186.254V135.329Z" fill="#968978"/>
<path d="M668.35 164.32C668.675 163.925 669.26 163.868 669.655 164.193C670.051 164.518 670.108 165.103 669.783 165.498L663.365 173.267C663.04 173.662 662.455 173.719 662.059 173.394C661.664 173.069 661.607 172.485 661.932 172.089L668.35 164.32Z" fill="#968978"/>
<path d="M666.454 140.793C666.787 140.404 667.374 140.358 667.763 140.692C668.152 141.025 668.198 141.611 667.865 142L664.139 146.337C663.806 146.726 663.219 146.771 662.83 146.438C662.44 146.105 662.395 145.519 662.728 145.13L666.454 140.793Z" fill="#968978"/>
<path fill-rule="evenodd" clip-rule="evenodd" d="M514.57 134.825H515.901V182.663H514.57V134.825Z" fill="#968978"/>
<path fill-rule="evenodd" clip-rule="evenodd" d="M518.299 134.825H519.631V182.663H518.299V134.825Z" fill="#968978"/>
<path fill-rule="evenodd" clip-rule="evenodd" d="M316.834 37.6309H312.845C312.531 37.6309 312.275 37.8871 312.275 38.2004V43.3251C312.275 43.6383 312.531 43.8946 312.845 43.8946H316.834C317.147 43.8946 317.404 43.6383 317.404 43.3251V38.2004C317.404 37.8871 317.147 37.6309 316.834 37.6309Z" fill="#FFFCF2"/>
<path fill-rule="evenodd" clip-rule="evenodd" d="M308.309 37.6309H304.32C304.006 37.6309 303.75 37.8871 303.75 38.2004V43.3251C303.75 43.6383 304.006 43.8946 304.32 43.8946H308.309C308.622 43.8946 308.878 43.6383 308.878 43.3251V38.2004C308.878 37.8871 308.622 37.6309 308.309 37.6309Z" fill="#FFFCF2"/>
<path fill-rule="evenodd" clip-rule="evenodd" d="M384.173 75.6904H380.184C379.871 75.6904 379.615 75.9465 379.615 76.2597V81.3848C379.615 81.698 379.871 81.9541 380.184 81.9541H384.173C384.487 81.9541 384.743 81.698 384.743 81.3848V76.2597C384.743 75.9465 384.487 75.6904 384.173 75.6904Z" fill="#FFFCF2"/>
<path fill-rule="evenodd" clip-rule="evenodd" d="M375.65 75.6904H371.661C371.347 75.6904 371.091 75.9465 371.091 76.2597V81.3848C371.091 81.698 371.347 81.9541 371.661 81.9541H375.65C375.963 81.9541 376.22 81.698 376.22 81.3848V76.2597C376.22 75.9465 375.963 75.6904 375.65 75.6904Z" fill="#FFFCF2"/>
<path fill-rule="evenodd" clip-rule="evenodd" d="M118.233 59.0342H114.243C113.93 59.0342 113.673 59.2903 113.673 59.6035V64.7285C113.673 65.0417 113.93 65.2978 114.243 65.2978H118.233C118.546 65.2978 118.802 65.0417 118.802 64.7285V59.6035C118.802 59.2903 118.546 59.0342 118.233 59.0342Z" fill="#FFFCF2"/>
<path fill-rule="evenodd" clip-rule="evenodd" d="M109.709 59.0342H105.719C105.406 59.0342 105.15 59.2903 105.15 59.6035V64.7285C105.15 65.0417 105.406 65.2978 105.719 65.2978H109.709C110.022 65.2978 110.279 65.0417 110.279 64.7285V59.6035C110.279 59.2903 110.022 59.0342 109.709 59.0342Z" fill="#FFFCF2"/>
<path fill-rule="evenodd" clip-rule="evenodd" d="M163.562 74.6934H159.573C159.259 74.6934 159.002 74.9494 159.002 75.2629V80.3877C159.002 80.7011 159.259 80.9569 159.573 80.9569H163.562C163.875 80.9569 164.131 80.7011 164.131 80.3877V75.2629C164.131 74.9494 163.875 74.6934 163.562 74.6934Z" fill="#FFFCF2"/>
<path fill-rule="evenodd" clip-rule="evenodd" d="M302.682 66.3369H298.693C298.38 66.3369 298.123 66.5932 298.123 66.9064V72.0314C298.123 72.3446 298.38 72.6009 298.693 72.6009H302.682C302.995 72.6009 303.252 72.3446 303.252 72.0314V66.9064C303.252 66.5932 302.995 66.3369 302.682 66.3369Z" fill="#FFFCF2"/>
<path fill-rule="evenodd" clip-rule="evenodd" d="M294.158 66.3369H290.168C289.855 66.3369 289.598 66.5932 289.598 66.9064V72.0314C289.598 72.3446 289.855 72.6009 290.168 72.6009H294.158C294.471 72.6009 294.728 72.3446 294.728 72.0314V66.9064C294.728 66.5932 294.471 66.3369 294.158 66.3369Z" fill="#FFFCF2"/>
<path fill-rule="evenodd" clip-rule="evenodd" d="M442.633 79.9131H438.644C438.33 79.9131 438.074 80.1694 438.074 80.4828V85.6075C438.074 85.9208 438.33 86.1771 438.644 86.1771H442.633C442.947 86.1771 443.203 85.9208 443.203 85.6075V80.4828C443.203 80.1694 442.947 79.9131 442.633 79.9131Z" fill="#FFFCF2"/>
<path fill-rule="evenodd" clip-rule="evenodd" d="M434.108 79.9131H430.119C429.806 79.9131 429.55 80.1694 429.55 80.4828V85.6075C429.55 85.9208 429.806 86.1771 430.119 86.1771H434.108C434.422 86.1771 434.678 85.9208 434.678 85.6075V80.4828C434.678 80.1694 434.422 79.9131 434.108 79.9131Z" fill="#FFFCF2"/>
<path fill-rule="evenodd" clip-rule="evenodd" d="M459.919 58.5576H455.93C455.616 58.5576 455.36 58.8137 455.36 59.1269V64.2521C455.36 64.5651 455.616 64.8214 455.93 64.8214H459.919C460.233 64.8214 460.489 64.5651 460.489 64.2521V59.1269C460.489 58.8137 460.233 58.5576 459.919 58.5576Z" fill="#FFFCF2"/>
<path fill-rule="evenodd" clip-rule="evenodd" d="M451.396 58.5576H447.406C447.093 58.5576 446.837 58.8137 446.837 59.1269V64.2521C446.837 64.5651 447.093 64.8214 447.406 64.8214H451.396C451.709 64.8214 451.965 64.5651 451.965 64.2521V59.1269C451.965 58.8137 451.709 58.5576 451.396 58.5576Z" fill="#FFFCF2"/>
<path fill-rule="evenodd" clip-rule="evenodd" d="M434.108 58.5576H430.119C429.806 58.5576 429.55 58.8137 429.55 59.1269V64.2521C429.55 64.5651 429.806 64.8214 430.119 64.8214H434.108C434.422 64.8214 434.678 64.5651 434.678 64.2521V59.1269C434.678 58.8137 434.422 58.5576 434.108 58.5576Z" fill="#FFFCF2"/>
<path fill-rule="evenodd" clip-rule="evenodd" d="M516.645 47.0264H512.656C512.342 47.0264 512.086 47.2825 512.086 47.5959V52.7209C512.086 53.0342 512.342 53.2902 512.656 53.2902H516.645C516.959 53.2902 517.215 53.0342 517.215 52.7209V47.5959C517.215 47.2825 516.959 47.0264 516.645 47.0264Z" fill="#FFFCF2"/>
<path fill-rule="evenodd" clip-rule="evenodd" d="M508.121 47.0264H504.132C503.818 47.0264 503.562 47.2825 503.562 47.5959V52.7209C503.562 53.0342 503.818 53.2902 504.132 53.2902H508.121C508.435 53.2902 508.691 53.0342 508.691 52.7209V47.5959C508.691 47.2825 508.435 47.0264 508.121 47.0264Z" fill="#FFFCF2"/>
<path fill-rule="evenodd" clip-rule="evenodd" d="M585.29 67.3848H581.301C580.988 67.3848 580.731 67.6411 580.731 67.9543V73.0793C580.731 73.3923 580.988 73.6486 581.301 73.6486H585.29C585.604 73.6486 585.86 73.3923 585.86 73.0793V67.9543C585.86 67.6411 585.604 67.3848 585.29 67.3848Z" fill="#FFFCF2"/>
<path fill-rule="evenodd" clip-rule="evenodd" d="M576.766 67.3848H572.777C572.463 67.3848 572.207 67.6411 572.207 67.9543V73.0793C572.207 73.3923 572.463 73.6486 572.777 73.6486H576.766C577.08 73.6486 577.336 73.3923 577.336 73.0793V67.9543C577.336 67.6411 577.08 67.3848 576.766 67.3848Z" fill="#FFFCF2"/>
<path fill-rule="evenodd" clip-rule="evenodd" d="M585.29 83.0908H581.301C580.988 83.0908 580.731 83.3469 580.731 83.6601V88.7852C580.731 89.0984 580.988 89.3545 581.301 89.3545H585.29C585.604 89.3545 585.86 89.0984 585.86 88.7852V83.6601C585.86 83.3469 585.604 83.0908 585.29 83.0908Z" fill="#FFFCF2"/>
<path fill-rule="evenodd" clip-rule="evenodd" d="M209.531 66.3369H205.542C205.229 66.3369 204.972 66.5932 204.972 66.9064V72.0314C204.972 72.3446 205.229 72.6009 205.542 72.6009H209.531C209.844 72.6009 210.101 72.3446 210.101 72.0314V66.9064C210.101 66.5932 209.844 66.3369 209.531 66.3369Z" fill="#FFFCF2"/>
<path fill-rule="evenodd" clip-rule="evenodd" d="M631.143 66.3369H627.153C626.84 66.3369 626.583 66.5932 626.583 66.9064V72.0314C626.583 72.3446 626.84 72.6009 627.153 72.6009H631.143C631.456 72.6009 631.712 72.3446 631.712 72.0314V66.9064C631.712 66.5932 631.456 66.3369 631.143 66.3369Z" fill="#FFFCF2"/>
<path fill-rule="evenodd" clip-rule="evenodd" d="M657.166 80.9541H653.177C652.863 80.9541 652.607 81.2102 652.607 81.5236V86.6485C652.607 86.9617 652.863 87.2178 653.177 87.2178H657.166C657.48 87.2178 657.736 86.9617 657.736 86.6485V81.5236C657.736 81.2102 657.48 80.9541 657.166 80.9541Z" fill="#FFFCF2"/>
<path fill-rule="evenodd" clip-rule="evenodd" d="M664.938 36.5453C650.973 36.5453 619.319 36.5453 612.337 36.5453C605.355 36.5453 602.562 37.0104 601.165 33.2894C599.769 29.5684 603.027 28.1728 605.82 27.2425C608.613 26.3122 607.682 21.6611 612.337 21.1958C616.992 20.7308 617.923 21.6611 617.923 21.6611C621.625 15.4963 638.244 16.0362 643.526 17.4748C648.646 18.8699 649.577 22.5912 649.577 22.5912C662.646 19.752 661.598 22.5539 671.921 27.2425C671.921 27.2425 675.645 28.6383 676.576 32.3591C677.507 36.0798 674.248 36.5453 669.593 36.5453C664.938 36.5453 664.938 36.5453 664.938 36.5453Z" fill="white"/>
<path fill-rule="evenodd" clip-rule="evenodd" d="M378.513 41.4931C386.368 41.4931 417.47 41.4931 421.397 41.4931C425.325 41.4931 426.896 41.8293 427.681 39.1385C428.467 36.4478 426.634 35.4382 425.063 34.7658C423.492 34.0931 420.494 30.7294 417.876 30.3931C415.258 30.0569 414.734 30.73 414.734 30.73C412.651 26.2719 393.528 26.6623 390.557 27.7025C387.677 28.7111 387.154 31.4022 387.154 31.4022C379.802 29.3492 380.392 31.3755 374.585 34.7658C374.585 34.7658 372.491 35.7756 371.967 38.4658C371.444 41.1562 373.276 41.4931 375.895 41.4931C378.513 41.4931 378.513 41.4931 378.513 41.4931Z" fill="white"/>
<path d="M656.805 153.367C656.452 152.995 656.466 152.407 656.838 152.054C657.209 151.701 657.798 151.716 658.151 152.087L662.949 157.107C663.302 157.478 663.288 158.066 662.916 158.419C662.545 158.772 661.956 158.757 661.603 158.386L656.805 153.367Z" fill="#968978"/>
<path fill-rule="evenodd" clip-rule="evenodd" d="M124.002 167.103C131.283 167.103 141.287 168.856 141.287 171.02C141.287 173.183 131.283 174.937 124.002 174.937C116.721 174.937 110.818 173.183 110.818 171.02C110.818 168.856 116.721 167.103 124.002 167.103Z" fill="#EDE8DC"/>
<path fill-rule="evenodd" clip-rule="evenodd" d="M125.874 167.573C125.874 167.573 125.917 167.573 125.997 167.571C126.026 167.57 126.051 167.57 126.079 167.571C126.159 167.573 126.203 167.573 126.203 167.573L126.202 167.562C127.775 167.474 134.551 166.729 136.41 160.415C138.517 153.256 136.62 150.519 135.777 148.834C134.935 147.15 134.302 145.887 134.724 143.15C135.145 140.412 136.41 139.36 134.724 136.412C133.038 133.464 131.774 133.043 131.774 130.517C131.774 127.026 131.68 121.463 126.506 121.463H125.57C120.397 121.463 120.303 127.026 120.303 130.517C120.303 133.043 119.038 133.464 117.353 136.412C115.667 139.36 116.931 140.412 117.353 143.15C117.774 145.887 117.142 147.15 116.299 148.834C115.456 150.519 113.56 153.256 115.667 160.415C117.526 166.729 124.302 167.474 125.874 167.562L125.874 167.573Z" fill="#CEDE8C"/>
<path d="M124.943 131.36C124.943 130.847 125.359 130.43 125.874 130.43C126.388 130.43 126.804 130.847 126.804 131.36V170.101C126.804 170.615 126.388 171.032 125.874 171.032C125.359 171.032 124.943 170.615 124.943 170.101V131.36Z" fill="#968978"/>
<path d="M130.076 145.297C130.401 144.902 130.986 144.845 131.382 145.17C131.777 145.495 131.834 146.079 131.509 146.475L126.627 152.385C126.302 152.78 125.717 152.837 125.321 152.512C124.926 152.187 124.869 151.602 125.194 151.207L130.076 145.297Z" fill="#968978"/>
<path d="M121.568 135.262C121.235 134.873 121.281 134.286 121.67 133.953C122.06 133.62 122.646 133.666 122.98 134.055L126.6 138.268C126.933 138.657 126.887 139.244 126.498 139.576C126.108 139.91 125.522 139.864 125.188 139.475L121.568 135.262Z" fill="#968978"/>
<path d="M374.879 207.312C375.272 206.873 375.832 206.593 376.499 206.538C376.719 206.523 376.954 206.528 377.198 206.564C377.402 206.588 377.602 206.638 377.796 206.703C377.98 206.758 378.156 206.833 378.335 206.912V204.635C378.335 202.722 377.443 200.918 375.926 199.747L358.147 182.938C357.584 183.402 356.771 183.557 355.858 183.278C354.173 182.755 352.803 180.96 352.803 179.271C352.803 178.837 352.897 178.455 353.056 178.131L350.014 175.255C347.795 173.566 345.307 173.197 343.611 173.94L328.465 181.239C327.094 181.833 326.246 183.218 326.246 184.753V200.828C326.72 200.743 327.243 200.763 327.808 200.939C329.767 201.545 331.353 203.624 331.353 205.577C331.353 207.535 329.767 208.631 327.808 208.023C327.243 207.854 326.72 207.545 326.246 207.166V209.374C326.246 211.098 327.418 212.598 329.094 213.016L373.668 226.136C376.036 226.729 378.335 224.936 378.335 222.494V213.983C377.372 213.829 376.444 213.29 375.712 212.538C375.696 212.524 375.682 212.503 375.667 212.483C375.502 212.309 375.348 212.13 375.204 211.936C375.158 211.875 375.118 211.806 375.079 211.741C374.974 211.586 374.869 211.437 374.785 211.272C374.715 211.144 374.665 211.008 374.61 210.875C374.565 210.77 374.505 210.665 374.469 210.556C374.38 210.305 374.315 210.057 374.275 209.803C374.236 209.544 374.215 209.293 374.225 209.06C374.241 208.592 374.351 208.164 374.54 207.804C374.629 207.62 374.744 207.456 374.879 207.312Z" fill="#EEAF4B"/>
<path d="M377.198 206.565C377.586 206.614 377.966 206.748 378.335 206.912V204.635C378.335 202.861 377.098 201.337 375.363 200.963L355.789 195.138C355.798 195.243 355.818 195.347 355.818 195.452C355.818 197.141 354.452 198.088 352.762 197.565C351.071 197.041 349.7 195.248 349.7 193.558C349.7 193.479 349.72 193.408 349.725 193.335L328.227 186.936C327.029 186.706 326.44 185.799 326.316 184.768L326.246 184.753V200.829C326.72 200.743 327.243 200.764 327.807 200.939C329.767 201.54 331.353 203.619 331.353 205.577C331.353 207.535 329.767 208.632 327.807 208.023C327.243 207.85 326.72 207.545 326.246 207.166V209.374C326.246 211.098 327.423 212.598 329.093 213.017L373.667 226.137C376.036 226.73 378.335 224.937 378.335 222.495V213.983C376.414 213.675 374.609 211.827 374.275 209.798C373.935 207.746 375.247 206.295 377.198 206.565Z" fill="#FCDF76"/>
<path d="M352.611 206.242C352.611 208.545 350.746 209.829 348.448 209.117C346.144 208.404 344.278 205.963 344.278 203.665C344.278 201.364 346.144 200.078 348.448 200.79C350.746 201.498 352.611 203.94 352.611 206.242Z" fill="#F4C44E"/>
<path d="M348.448 200.793C346.738 200.264 345.27 200.838 344.627 202.109C345.27 203.777 346.738 205.257 348.448 205.791C350.154 206.319 351.619 205.74 352.262 204.47C351.619 202.802 350.154 201.321 348.448 200.793Z" fill="#EEAF4B"/>
<path d="M369.873 211.888C369.873 213.496 368.565 214.398 366.956 213.901C365.344 213.402 364.039 211.692 364.039 210.084C364.039 208.474 365.344 207.572 366.956 208.07C368.565 208.568 369.873 210.278 369.873 211.888Z" fill="#F4C44E"/>
<path d="M341.272 209.847C341.272 211.462 339.965 212.358 338.354 211.86C336.744 211.362 335.436 209.653 335.436 208.043C335.436 206.433 336.744 205.531 338.354 206.03C339.965 206.528 341.272 208.237 341.272 209.847Z" fill="#EEAF4B"/>
<path d="M361.699 217.63C361.699 218.676 360.85 219.264 359.803 218.94C358.756 218.616 357.909 217.505 357.909 216.459C357.909 215.412 358.756 214.824 359.803 215.148C360.85 215.471 361.699 216.583 361.699 217.63Z" fill="#EEAF4B"/>
<path d="M360.97 205.502C360.97 206.543 360.123 207.131 359.076 206.807C358.029 206.483 357.18 205.372 357.18 204.326C357.18 203.28 358.029 202.697 359.076 203.02C360.123 203.344 360.97 204.451 360.97 205.502Z" fill="#EEAF4B"/>
<path d="M335.437 194.781C335.437 195.933 334.505 196.576 333.357 196.217C332.206 195.863 331.274 194.643 331.274 193.492C331.274 192.34 332.206 191.697 333.357 192.057C334.505 192.41 335.437 193.631 335.437 194.781Z" fill="#F4C44E"/>
<path d="M355.818 195.454C355.818 197.144 354.452 198.09 352.761 197.567C351.07 197.044 349.699 195.25 349.699 193.56C349.699 191.876 351.07 190.93 352.761 191.453C354.447 191.975 355.818 193.765 355.818 195.454Z" fill="#F4C44E"/>
<path d="M319.186 251.371C319.186 251.371 306.764 253.673 303.419 242.76C303.419 242.76 302.452 240.206 304.426 238.819C306.369 237.457 309.061 238.883 309.761 241.341C310.396 243.556 312.649 246.898 319.186 251.371Z" fill="#88C057"/>
<path d="M319.185 251.374C319.185 251.374 309.293 259.137 315.105 267.966C315.105 267.966 316.87 271.294 319.555 271.326C322.054 271.355 323.246 268.295 321.639 266.384C319.877 264.288 317.994 259.973 319.185 251.374Z" fill="#88C057"/>
<path d="M303.825 242.316C303.825 242.316 303.796 242.222 303.758 242.1C303.479 242.211 303.198 242.342 302.924 242.512C300.391 244.087 301.145 246.298 301.145 246.298C303.439 255.86 318.403 251.868 318.403 251.868C317.845 251.617 317.331 251.37 316.83 251.127C312.971 251.122 306.169 249.966 303.825 242.316Z" fill="#88C057"/>
<path d="M315.106 267.966C310.622 261.157 315.481 254.98 317.939 252.513C317.958 252.446 317.976 252.385 317.998 252.314C317.998 252.314 305.188 260.963 310.699 268.231C310.699 268.231 312.277 271.034 315.432 270.657C315.972 270.595 316.479 270.438 316.934 270.219C315.783 269.239 315.106 267.966 315.106 267.966Z" fill="#A4E869"/>
<path d="M301.087 260.373C303.386 263.43 308.294 261.884 308.294 261.884C309.208 261.354 310.085 260.751 310.926 260.104C312.86 256.456 316.89 253.224 318.819 251.813C318.986 251.581 319.134 251.379 319.235 251.229C317.438 251.668 312.274 252.75 307.897 251.915C306.623 252.216 305.371 252.605 304.223 253.103C298.075 255.769 301.087 260.373 301.087 260.373Z" fill="#659C35"/>
<path d="M319.186 251.371C319.186 251.371 306.764 253.673 303.419 242.76C303.419 242.76 302.452 240.206 304.426 238.819C306.369 237.457 309.061 238.883 309.761 241.341C310.396 243.556 312.649 246.898 319.186 251.371Z" fill="#A4E869"/>
<path d="M318.277 252.077C318.678 251.712 318.929 251.512 318.929 251.512C318.929 251.512 318.457 251.599 317.681 251.658C317.876 251.799 318.073 251.935 318.277 252.077Z" fill="#F2681C"/>
<path d="M314.955 244.698C314.248 245.537 313.919 246.506 313.805 247.489C315.116 248.71 316.79 250.051 318.928 251.512C318.533 254.347 318.478 256.705 318.64 258.683C319.581 259.452 320.711 260.018 322.058 260.026C326.293 260.054 351.422 242.432 357.524 235.314C357.611 235.213 357.676 235.109 357.72 235.004L357.755 234.908C357.927 234.352 357.538 233.816 356.827 233.819C347.449 233.869 317.669 241.455 314.955 244.698Z" fill="#ED8F20"/>
<path d="M348.337 239.519C348.796 239.989 349.223 240.512 349.594 241.073C349.861 241.478 350.408 241.586 350.813 241.319C351.219 241.05 351.327 240.504 351.059 240.1C350.625 239.447 350.134 238.837 349.599 238.289C349.501 238.192 349.391 238.12 349.273 238.077C348.963 237.964 348.605 238.029 348.354 238.276C348.006 238.615 347.998 239.171 348.337 239.519Z" fill="#DD7017"/>
<path d="M317.004 245.877C318.459 247.142 319.604 248.875 320.404 251.026C320.576 251.482 321.081 251.713 321.536 251.546C321.992 251.375 322.224 250.87 322.056 250.414C321.15 247.982 319.842 246.006 318.16 244.548C318.076 244.477 317.984 244.419 317.887 244.384C317.552 244.261 317.165 244.352 316.916 244.633C316.598 245.001 316.636 245.559 317.004 245.877Z" fill="#DD7017"/>
<path d="M328.206 257.36C327.916 257.158 327.756 256.792 327.845 256.427C328.193 255.026 328.136 253.024 327.226 251.711C326.952 251.308 327.051 250.764 327.451 250.485C327.697 250.319 327.997 250.287 328.259 250.383C328.424 250.443 328.57 250.557 328.679 250.71C329.906 252.482 329.956 254.876 329.62 256.532L328.206 257.36Z" fill="#DD7017"/>
<path d="M328.679 250.71C328.57 250.557 328.424 250.443 328.259 250.383C327.997 250.287 327.697 250.319 327.451 250.485C327.051 250.764 326.952 251.308 327.226 251.711C328.136 253.024 328.193 255.026 327.845 256.427C327.756 256.792 327.915 257.158 328.206 257.36C328.661 257.096 329.131 256.824 329.618 256.536C329.956 254.876 329.905 252.482 328.679 250.71Z" fill="#DD7017"/>
<path d="M327.553 239.658C329.021 240.484 330.77 242.059 331.319 244.105C331.444 244.576 331.165 245.06 330.698 245.187C330.23 245.312 329.746 245.034 329.617 244.565C329.203 243.022 327.711 241.684 326.417 241.04C326.068 240.871 325.896 240.502 325.944 240.135L327.553 239.658Z" fill="#DD7017"/>
<path d="M326.417 241.04C327.711 241.684 329.203 243.022 329.617 244.565C329.742 245.032 330.226 245.31 330.694 245.185C331.165 245.06 331.444 244.576 331.319 244.105C330.765 242.057 329.021 240.484 327.552 239.658C327.004 239.819 326.469 239.976 325.944 240.135C325.896 240.502 326.068 240.871 326.417 241.04Z" fill="#DD7017"/>
<path d="M337.963 251.131C337.661 250.934 337.499 250.564 337.589 250.194C337.807 249.313 337.776 248.061 337.217 247.252C336.939 246.849 337.039 246.304 337.438 246.024C337.683 245.858 337.987 245.828 338.246 245.922C338.411 245.983 338.557 246.097 338.666 246.251C339.479 247.427 339.576 248.983 339.393 250.142L337.963 251.131Z" fill="#DD7017"/>
<path d="M338.665 246.247C338.556 246.093 338.411 245.98 338.245 245.919C337.983 245.823 337.683 245.855 337.437 246.021C337.04 246.297 336.938 246.846 337.212 247.247C337.775 248.058 337.806 249.31 337.588 250.191C337.493 250.563 337.66 250.931 337.963 251.128C338.435 250.803 338.915 250.471 339.39 250.137C339.573 248.978 339.479 247.424 338.665 246.247Z" fill="#DD7017"/>
<path d="M340.307 236.399C341.376 236.956 342.718 238.116 343.13 239.649C343.255 240.12 342.982 240.606 342.509 240.73C342.042 240.857 341.558 240.578 341.432 240.11C341.173 239.156 340.237 238.323 339.428 237.921C338.99 237.706 338.812 237.179 339.027 236.744C339.041 236.718 339.06 236.702 339.077 236.681L340.307 236.399Z" fill="#DD7017"/>
<path d="M339.428 237.921C340.237 238.323 341.177 239.158 341.431 240.11C341.557 240.578 342.037 240.855 342.508 240.73C342.981 240.606 343.259 240.122 343.129 239.649C342.717 238.116 341.375 236.956 340.306 236.399C339.899 236.488 339.487 236.584 339.078 236.677C339.061 236.697 339.04 236.718 339.028 236.741C338.812 237.179 338.989 237.706 339.428 237.921Z" fill="#DD7017"/>
<path d="M306.298 146.35C304.573 146.234 302.901 145.699 301.431 144.792C293.769 140.079 286.553 138.639 281.611 154.339C279.081 162.379 283.271 175.196 291.749 175.944C293.271 176.082 294.755 176.557 296.072 177.327C303.41 181.638 314.27 173.635 316.88 165.621C321.984 149.974 315.274 146.958 306.298 146.35Z" fill="#D13834"/>
<path d="M286.761 151.569C286.335 151.433 286.098 150.974 286.235 150.548C287.599 146.288 291.834 143.82 295.674 145.048C296.101 145.185 296.333 145.641 296.196 146.068C296.06 146.494 295.606 146.731 295.178 146.594C292.191 145.639 288.875 147.636 287.784 151.043C287.647 151.469 287.188 151.706 286.761 151.569Z" fill="#F75B57"/>
<path d="M302.871 148.476C302.456 148.343 302.218 147.901 302.336 147.482C303.282 144.177 303.34 139.67 300.669 136.923C300.36 136.604 300.366 136.089 300.686 135.776C301.011 135.464 301.521 135.474 301.834 135.794C304.989 139.032 304.97 144.185 303.901 147.924C303.776 148.355 303.328 148.606 302.893 148.483C302.886 148.48 302.878 148.478 302.871 148.476Z" fill="#4C312C"/>
<path d="M301.91 151.23C300.612 150.815 299.555 149.916 298.928 148.705C298.722 148.305 298.879 147.815 299.278 147.61C299.677 147.404 300.168 147.561 300.373 147.96C300.799 148.786 301.522 149.402 302.406 149.684C303.293 149.968 304.24 149.887 305.067 149.462C305.465 149.256 305.956 149.413 306.162 149.812C306.367 150.21 306.21 150.701 305.812 150.907C304.597 151.528 303.213 151.647 301.91 151.23Z" fill="#994530"/>
<path d="M303.851 142.864L305.335 139.856C306.899 136.679 310.358 134.899 313.854 135.473L317.167 136.012L315.682 139.019C314.116 142.196 310.657 143.972 307.163 143.404L303.851 142.864Z" fill="#659C35"/>
<path d="M374.67 182.084C374.67 185.359 372.01 188.01 368.739 188.01C365.462 188.01 362.808 185.359 362.808 182.084C362.808 178.815 365.462 176.164 368.739 176.164C372.01 176.164 374.67 178.815 374.67 182.084Z" fill="#9777A8"/>
<path d="M378.621 161.35C378.621 164.618 375.966 167.27 372.69 167.27C369.415 167.27 366.76 164.618 366.76 161.35C366.76 158.075 369.415 155.424 372.69 155.424C375.966 155.424 378.621 158.075 378.621 161.35Z" fill="#583E68"/>
<path d="M378.621 174.186C376.072 174.186 373.906 175.791 373.067 178.048C374.056 179.103 374.669 180.522 374.669 182.083C374.669 182.811 374.528 183.506 374.288 184.147C375.373 185.305 376.907 186.038 378.621 186.038C381.897 186.038 384.552 183.385 384.552 180.112C384.552 176.837 381.897 174.186 378.621 174.186Z" fill="#583E68"/>
<path d="M373.067 178.049C373.655 176.473 374.901 175.223 376.464 174.611C376.571 174.158 376.642 173.685 376.642 173.198C376.642 169.924 373.989 167.271 370.711 167.271C367.441 167.271 364.787 169.924 364.787 173.198C364.787 174.563 365.25 175.82 366.026 176.819C366.843 176.399 367.759 176.164 368.739 176.164C370.645 176.164 372.338 177.065 373.424 178.463C373.308 178.319 373.192 178.178 373.067 178.049Z" fill="#6F58A8"/>
<path d="M388.505 171.226C385.677 171.226 383.321 173.197 382.723 175.839C383.847 176.915 384.553 178.428 384.553 180.112C384.553 180.56 384.495 180.999 384.398 181.418C385.464 182.44 386.907 183.071 388.505 183.071C391.78 183.071 394.435 180.421 394.435 177.146C394.435 173.877 391.78 171.226 388.505 171.226Z" fill="#6F58A8"/>
<path d="M385.902 171.846C386.289 171.06 386.525 170.187 386.525 169.252C386.525 165.978 383.872 163.325 380.595 163.325C379.678 163.325 378.81 163.543 378.033 163.915C377.449 165.124 376.47 166.103 375.258 166.687C374.944 167.337 374.747 168.056 374.689 168.813C375.886 169.898 376.643 171.461 376.643 173.2C376.643 173.35 376.629 173.49 376.615 173.63C376.894 173.885 377.194 174.108 377.516 174.305C377.873 174.233 378.241 174.189 378.622 174.189C379.756 174.189 380.812 174.513 381.715 175.067C382.245 174.965 382.733 174.778 383.201 174.551C383.78 173.374 384.73 172.424 385.902 171.846Z" fill="#9777A8"/>
<path d="M390.476 161.354C389.714 161.354 388.99 161.512 388.32 161.772C387.909 163.456 386.786 164.853 385.285 165.629H385.28C386.061 166.628 386.524 167.887 386.524 169.251C386.524 169.974 386.38 170.664 386.139 171.3C386.236 171.406 386.337 171.502 386.443 171.599C387.084 171.358 387.775 171.228 388.504 171.228C390.066 171.228 391.486 171.836 392.542 172.824C394.8 171.984 396.407 169.82 396.407 167.273C396.407 164.005 393.754 161.354 390.476 161.354Z" fill="#583E68"/>
<path d="M398.386 167.271C397.681 167.271 397.006 167.402 396.379 167.628C396.238 170.016 394.693 172.022 392.541 172.823C392.532 172.813 392.518 172.798 392.504 172.788C393.686 173.869 394.434 175.421 394.434 177.147C394.434 177.297 394.419 177.442 394.41 177.586C395.462 178.54 396.852 179.124 398.386 179.124C401.662 179.124 404.317 176.473 404.317 173.198C404.317 169.924 401.662 167.271 398.386 167.271Z" fill="#9777A8"/>
<path d="M400.359 157.396C399.988 157.396 399.622 157.435 399.269 157.502C398.82 159.899 396.933 161.784 394.535 162.232C394.496 162.444 394.473 162.666 394.453 162.884C395.65 163.969 396.407 165.53 396.407 167.27C396.407 167.416 396.384 167.555 396.373 167.695C396.397 167.667 397.685 167.27 398.386 167.27C399.949 167.27 401.368 167.884 402.424 168.871C404.682 168.033 406.289 165.868 406.289 163.321C406.289 160.048 403.636 157.396 400.359 157.396Z" fill="#583E68"/>
<path d="M387.515 144.563C385.082 144.563 382.993 146.029 382.082 148.122C382.394 148.85 382.573 149.646 382.573 150.49C382.573 151.328 382.394 152.129 382.082 152.852C382.341 153.449 382.708 153.99 383.143 154.467C384.644 154.612 385.98 155.316 386.945 156.371C387.133 156.386 387.322 156.416 387.515 156.416C387.515 153.141 390.168 150.49 393.445 150.49C393.445 147.215 390.791 144.563 387.515 144.563Z" fill="#9777A8"/>
<path d="M376.642 144.563C373.366 144.563 370.712 147.215 370.712 150.49C370.712 152.587 371.812 154.429 373.462 155.48C374.341 155.595 375.161 155.903 375.875 156.358C376.126 156.391 376.381 156.416 376.642 156.416C379.92 156.416 382.573 153.763 382.573 150.49C382.573 147.215 379.92 144.563 376.642 144.563Z" fill="#6F58A8"/>
<path d="M387.568 157.178C387.568 157.178 387.563 157.173 387.563 157.168C386.512 155.524 384.672 154.435 382.573 154.435C381.951 154.435 381.353 154.541 380.793 154.715C380.136 155.355 379.336 155.848 378.442 156.132C377.994 156.57 377.604 157.072 377.309 157.636C378.129 158.653 378.622 159.941 378.622 161.349C378.622 162.284 378.395 163.161 378.009 163.947C378.014 163.937 378.022 163.923 378.028 163.91C378.81 163.538 379.678 163.32 380.595 163.32C382.505 163.32 384.199 164.228 385.285 165.625C387.191 164.642 388.504 162.655 388.504 160.361C388.504 160.095 388.479 159.839 388.446 159.589C387.993 158.876 387.684 158.056 387.568 157.178Z" fill="#6F58A8"/>
<path d="M393.445 150.489C390.167 150.489 387.514 153.14 387.514 156.415C387.514 158.483 388.58 160.306 390.192 161.366C390.289 161.361 390.38 161.353 390.476 161.353C391.678 161.353 392.798 161.709 393.729 162.322C396.87 162.173 399.375 159.587 399.375 156.415C399.375 153.14 396.721 150.489 393.445 150.489Z" fill="#6F58A8"/>
<path d="M418.152 159.375C411.593 159.375 406.29 154.076 406.29 147.522C412.848 147.522 418.152 152.827 418.152 159.375Z" fill="#88C057"/>
<path d="M396.407 152.46V150.489C403.492 150.489 409.259 143.401 409.259 134.688H411.231C411.231 144.489 404.582 152.46 396.407 152.46Z" fill="#7A3726"/>
<path d="M232.147 205.97L219.324 189.585L241.035 150.075L254.517 165.263L232.147 205.97Z" fill="#D1D1D1"/>
<path d="M258.197 212.471L232.146 205.968L254.516 165.261L280.567 171.763L258.197 212.471Z" fill="#EBEBEC"/>
<path d="M281.395 150.408L256.002 142.706L258.633 137.919L284.025 145.621L281.395 150.408Z" fill="#E8E8E9"/>
<path d="M254.517 165.262L241.036 150.074L256.003 142.706L254.517 165.262Z" fill="#DADADB"/>
<path d="M280.567 171.764L254.517 165.262L256.002 142.706L281.395 150.408L280.567 171.764Z" fill="#EFEFEF"/>
<path d="M268.065 194.516L235.436 199.984L245.303 182.027L278.591 175.36L268.065 194.516Z" fill="#3DABEF"/>
<path d="M222.613 183.599L235.436 199.985L245.304 182.028L232.481 165.643L222.613 183.599Z" fill="#2B9DD6"/>
<path d="M268.389 163.335C265.352 162.573 265.78 159.688 266.241 157.866C266.695 156.044 267.684 153.301 270.721 154.062C273.76 154.824 273.323 157.712 272.865 159.529C272.411 161.35 271.428 164.096 268.389 163.335Z" fill="white"/>
<path d="M276.047 148.792L278.718 149.596L281.349 144.808L278.681 143.999L276.047 148.792Z" fill="#F1F1F1"/>
<path d="M270.697 147.162L273.371 147.975L276.002 143.189L273.327 142.375L270.697 147.162Z" fill="#F1F1F1"/>
<path d="M265.35 145.546L268.03 146.353L270.66 141.567L267.984 140.753L265.35 145.546Z" fill="#F1F1F1"/>
<path d="M260.009 143.925L262.684 144.738L265.315 139.95L262.64 139.137L260.009 143.925Z" fill="#F1F1F1"/>
<path d="M212.586 199.928C213.569 196.464 213.819 192.871 213.776 189.273C213.728 184.87 216.075 179.539 219.351 177.509C221.012 176.479 222.202 174.802 222.885 172.958C227.279 161.035 221.872 155.782 220.278 154.544C219.939 154.283 219.714 153.914 219.643 153.495C219.504 152.633 219.625 151.588 219.832 150.634C220.021 149.749 219.515 148.891 218.652 148.647C218.137 148.503 217.607 148.334 217.069 148.133C216.532 147.932 216.029 147.715 215.546 147.486C214.734 147.103 213.782 147.417 213.35 148.21C212.874 149.064 212.284 149.933 211.613 150.492C211.284 150.762 210.864 150.889 210.439 150.865C208.428 150.755 200.891 151.168 196.379 163.046C195.676 164.883 195.473 166.929 196.056 168.798C197.193 172.478 195.459 178.039 192.532 181.329C190.136 184.015 187.961 186.889 186.428 190.147C184.833 193.538 182.929 197.8 181.403 201.835L181.179 202.431C180.389 204.56 179.716 206.609 179.26 208.414C178.338 210.874 181.193 214.213 190.217 217.587C199.236 220.96 205.07 220.87 205.992 218.41C208.499 213.467 210.959 205.621 212.586 199.928Z" fill="#DAE7EF"/>
<path d="M196.62 162.461C196.545 162.661 196.456 162.84 196.379 163.047C195.676 164.884 195.473 166.93 196.056 168.799C197.193 172.479 195.459 178.04 192.532 181.33C190.136 184.016 187.962 186.89 186.428 190.148C186.346 190.331 186.25 190.53 186.165 190.719C189.183 192.88 193.602 195.173 198.734 197.092C203.866 199.011 208.708 200.181 212.409 200.533C212.464 200.333 212.528 200.122 212.586 199.93C213.569 196.466 213.819 192.872 213.776 189.274C213.728 184.871 216.069 179.538 219.352 177.51C221.012 176.48 222.202 174.803 222.883 172.965C222.963 172.752 223.016 172.559 223.084 172.356C219.371 172.014 214.479 170.847 209.29 168.906C204.103 166.967 199.645 164.638 196.62 162.461Z" fill="#3DABEF"/>
<path d="M189.811 212.133C187.198 211.156 185.547 209.856 184.891 208.257C184.328 206.871 184.708 205.74 184.862 205.385L185.401 203.948C185.665 203.243 186.446 202.886 187.16 203.153C187.866 203.417 188.222 204.199 187.958 204.904L187.346 206.519C187.352 206.522 187.242 206.836 187.451 207.285C187.7 207.819 188.539 208.867 191.385 209.789C192.123 210.014 192.496 210.802 192.258 211.517C192.018 212.233 191.245 212.62 190.528 212.387C190.282 212.303 190.041 212.22 189.811 212.133Z" fill="white"/>
<path d="M187.863 201.249C187.155 200.985 186.801 200.203 187.064 199.498L187.626 197.998C187.89 197.293 188.673 196.932 189.381 197.196C190.093 197.462 190.447 198.249 190.183 198.954L189.621 200.454C189.358 201.159 188.575 201.515 187.863 201.249Z" fill="white"/>
<path d="M204.355 161.748C204.279 161.72 204.207 161.685 204.136 161.644C203.488 161.259 203.274 160.425 203.66 159.773C206.276 155.361 211.182 154.858 211.386 154.844C212.139 154.775 212.803 155.322 212.869 156.075C212.94 156.819 212.39 157.49 211.643 157.56C211.569 157.568 207.891 157.993 206.01 161.17C205.665 161.747 204.965 161.976 204.355 161.748Z" fill="white"/>
<path d="M218.737 143.682C216.445 142.825 214.351 142.747 214.063 143.514L212.507 147.668C212.222 148.429 213.851 149.751 216.144 150.607C218.444 151.468 220.535 151.537 220.82 150.776L222.376 146.623C222.663 145.855 221.038 144.542 218.737 143.682Z" fill="#003879"/>
<path d="M217.187 147.232L216.15 146.845C215.793 146.711 215.613 146.318 215.746 145.961C215.877 145.611 216.272 145.432 216.629 145.566L217.666 145.953C218.023 146.087 218.203 146.481 218.072 146.831C217.939 147.188 217.543 147.366 217.187 147.232Z" fill="#1A69B7"/>
<path d="M301.255 194.932C300.063 193.187 297.61 190.414 294.077 190.507C293.737 190.517 293.499 190.173 293.633 189.861L294.79 187.146C295.057 186.519 294.849 185.822 294.33 185.601L292.906 184.995C292.385 184.774 291.741 185.107 291.474 185.734L290.247 188.612C290.131 188.884 289.797 188.984 289.552 188.813C288.458 188.057 285.507 186.344 281.764 186.857C281.254 186.927 281.218 187.663 281.722 187.778C283.22 188.118 285.121 188.72 286.147 189.731C286.417 189.997 286.274 190.457 285.902 190.522C284.783 190.725 282.604 191.351 280.513 193.317C280.156 193.652 280.508 194.237 280.976 194.1C282.804 193.559 285.677 192.997 287.463 194.045C287.672 194.17 287.763 194.422 287.664 194.646C287.106 195.905 285.288 200.215 285.639 202.289C285.696 202.616 286.062 202.786 286.345 202.615C287.404 201.982 289.885 200.169 291.441 196.353C291.542 196.101 291.832 195.984 292.074 196.098C293.016 196.536 295.151 197.761 296.191 200.261C296.363 200.673 296.953 200.63 297.075 200.206C297.408 199.035 297.509 197.099 295.853 194.857C295.603 194.518 295.873 194.04 296.291 194.107C297.136 194.245 298.526 194.627 300.666 195.623C301.102 195.822 301.522 195.326 301.255 194.932Z" fill="#88C057"/>
<path d="M301.334 196.125C301.292 196.059 301.235 196.001 301.168 195.962C300.925 195.821 300.68 195.684 300.44 195.541C300.352 195.493 300.261 195.447 300.175 195.399C298.324 194.575 297.086 194.24 296.307 194.111C295.884 194.042 295.601 194.515 295.856 194.859C297.514 197.098 297.408 199.036 297.076 200.204C296.953 200.631 296.364 200.671 296.196 200.26C295.151 197.76 293.017 196.534 292.078 196.098C291.832 195.985 291.546 196.1 291.443 196.35C289.885 200.17 287.404 201.983 286.347 202.613C286.062 202.787 285.699 202.618 285.644 202.288C285.289 200.212 287.107 195.903 287.665 194.644C287.764 194.42 287.673 194.168 287.463 194.046C285.677 192.998 282.807 193.561 280.977 194.098C280.509 194.234 280.16 193.651 280.517 193.316C282.604 191.352 284.78 190.725 285.9 190.527C286.274 190.457 286.416 189.993 286.141 189.73C285.942 189.538 285.715 189.361 285.462 189.193C285.417 189.168 285.365 189.142 285.311 189.129C283.673 188.68 282.023 188.328 280.374 188.094C280.301 188.082 280.229 188.088 280.157 188.109C275.737 189.435 272.023 192.471 270.172 196.814C266.681 205.005 271.135 214.75 280.123 218.574C289.111 222.399 299.232 218.856 302.723 210.665C304.776 205.847 304.08 200.493 301.334 196.125Z" fill="#D13834"/>
<path d="M271.946 202.223C271.725 202.129 271.559 201.929 271.527 201.676C271.393 200.664 271.46 199.642 271.725 198.631C271.821 198.258 272.203 198.037 272.574 198.137C272.954 198.232 273.167 198.614 273.07 198.981C272.854 199.807 272.798 200.675 272.907 201.493C272.954 201.874 272.688 202.222 272.309 202.274C272.18 202.29 272.056 202.27 271.946 202.223Z" fill="#ED7161"/>
<path d="M273.34 196.813C273.325 196.807 273.313 196.798 273.298 196.792C272.956 196.615 272.82 196.198 272.995 195.858C273.416 195.035 273.939 194.285 274.557 193.63C274.818 193.346 275.255 193.333 275.539 193.594C275.821 193.858 275.833 194.298 275.57 194.577C275.043 195.138 274.595 195.784 274.232 196.488C274.066 196.816 273.674 196.956 273.34 196.813Z" fill="#ED7161"/>
<path d="M192.115 234.989L202.309 219.896C202.967 218.922 204.155 218.445 205.304 218.697C206.256 218.901 207.485 218.407 208.03 217.599L208.035 217.593L223.796 228.223L223.792 228.23C223.246 229.037 223.247 230.361 223.792 231.166C224.456 232.137 224.458 233.416 223.8 234.39L213.605 249.482L216.022 245.903L205.831 260.991C205.172 261.966 203.985 262.442 202.833 262.194C201.885 261.986 200.656 262.481 200.11 263.288L200.106 263.295L184.344 252.665L184.349 252.657C184.894 251.851 184.893 250.527 184.345 249.725C183.684 248.75 183.682 247.473 184.341 246.497L194.532 231.41L192.115 234.989Z" fill="#003879"/>
<path d="M211.224 246.833C208.288 251.18 202.375 252.326 198.024 249.392C193.674 246.457 192.526 240.55 195.463 236.203C198.4 231.854 204.312 230.708 208.663 233.643C213.013 236.577 214.162 242.484 211.224 246.833Z" fill="#F9D70B"/>
<path d="M203.137 241.533C204.976 238.81 204.434 235.189 201.99 233.108C199.669 233.424 197.493 234.679 196.078 236.772C193.448 240.666 194.472 245.955 198.373 248.586C200.177 249.803 202.284 250.226 204.286 249.954C201.843 247.873 201.298 244.255 203.137 241.533Z" fill="#ED3F32"/>
<path d="M208.231 225.019L204.649 222.603C204.254 222.337 204.15 221.798 204.416 221.403C204.683 221.008 205.222 220.904 205.617 221.17L209.199 223.586C209.595 223.853 209.7 224.391 209.432 224.786C209.166 225.181 208.627 225.286 208.231 225.019Z" fill="#155BA0"/>
<path d="M220.411 233.237L211.096 226.954C210.701 226.688 210.6 226.151 210.867 225.757C211.134 225.361 211.669 225.254 212.064 225.521L221.379 231.803C221.774 232.07 221.88 232.608 221.612 233.003C221.346 233.398 220.806 233.503 220.411 233.237Z" fill="#155BA0"/>
<path d="M189.858 252.218L186.276 249.802C185.881 249.536 185.776 248.998 186.043 248.602C186.31 248.207 186.849 248.103 187.244 248.369L190.826 250.785C191.222 251.052 191.326 251.59 191.059 251.985C190.792 252.381 190.254 252.485 189.858 252.218Z" fill="#0A0E30"/>
<path d="M202.04 260.434L192.724 254.152C192.329 253.886 192.228 253.35 192.495 252.954C192.762 252.56 193.297 252.453 193.692 252.719L203.007 259.001C203.402 259.268 203.507 259.807 203.241 260.201C202.974 260.597 202.434 260.701 202.04 260.434Z" fill="#0A0E30"/>
<path d="M270.79 246.945C271.286 247.842 271.842 248.724 272.508 249.552C273.27 250.518 274.117 251.374 275.024 252.148L273.174 255.22C274.393 256.42 275.322 257.21 275.322 257.21C280.008 260.345 285.472 260.796 290.394 256.884L321.433 232.257C328.203 226.883 329.343 216.952 323.966 210.188C318.589 203.424 308.65 202.285 301.88 207.657L270.841 232.292C265.867 236.239 265.102 241.729 267.179 247.048L270.79 246.945Z" fill="#773F3A"/>
<path d="M264.819 240.153C265.215 236.707 266.967 233.618 269.995 231.222L301.03 206.585C308.405 200.732 319.173 201.966 325.037 209.336C330.896 216.707 329.66 227.473 322.284 233.326L291.245 257.953C286.227 261.937 280.144 262.079 274.561 258.344L274.431 258.248C274.389 258.211 273.452 257.406 272.214 256.196L271.448 255.445L273.274 252.411C272.601 251.77 271.988 251.095 271.434 250.401C270.935 249.774 270.469 249.097 270.014 248.333L266.246 248.437L265.9 247.538C264.903 244.981 264.552 242.485 264.819 240.153ZM325.901 221.585C326.319 217.941 325.353 214.132 322.893 211.037C317.969 204.842 308.926 203.806 302.731 208.727L271.691 233.361C266.629 237.372 267.117 242.484 268.131 245.653L271.581 245.558L271.981 246.282C272.5 247.214 273.02 248.006 273.578 248.7C274.254 249.556 275.033 250.364 275.908 251.115L276.788 251.867L274.906 254.995C275.523 255.575 275.987 255.983 276.152 256.124C280.729 259.153 285.477 259.045 289.542 255.818L320.581 231.184C323.678 228.726 325.482 225.235 325.901 221.585Z" fill="#773F3A"/>
<path d="M323.965 210.189C324.504 210.868 324.966 211.593 325.377 212.338L332.682 212.135C333.726 212.107 334.128 210.77 333.284 210.17L328.163 206.502C327.938 206.342 327.785 206.11 327.734 205.843L327.129 202.981C326.925 202.018 325.646 201.805 325.138 202.645L321.893 208.045C322.632 208.688 323.33 209.398 323.965 210.189Z" fill="#965E5E"/>
<path d="M272.508 249.553C271.842 248.725 271.286 247.843 270.791 246.946L261.915 247.192C260.655 247.228 260.161 248.843 261.186 249.577L267.406 254.029C267.679 254.222 267.862 254.505 267.931 254.829L268.663 258.301C268.91 259.471 270.465 259.736 271.08 258.707L275.024 252.15C274.117 251.375 273.27 250.519 272.508 249.553Z" fill="#965E5E"/>
<path d="M299.323 208.454C299.325 208.433 299.327 208.42 299.336 208.4C299.449 207.655 300.14 207.143 300.886 207.256C319.363 210.025 322.53 225.222 321.625 233.112C321.615 233.198 321.604 233.29 321.595 233.377C321.495 234.125 320.818 234.651 320.061 234.556C319.321 234.458 318.792 233.787 318.877 233.045C318.887 233.019 318.883 232.999 318.887 232.96C319.057 231.483 320.755 212.997 300.482 209.956C299.755 209.845 299.24 209.174 299.323 208.454Z" fill="#965E5E"/>
<path d="M289.695 216.093C289.696 216.081 289.699 216.06 289.7 216.048C289.812 215.303 290.51 214.784 291.257 214.897C309.728 217.672 312.9 232.868 311.995 240.753C311.984 240.845 311.974 240.931 311.957 241.017C311.865 241.764 311.18 242.297 310.431 242.198C309.683 242.105 309.152 241.42 309.249 240.672C309.324 239.856 311.53 220.697 290.852 217.595C290.118 217.492 289.611 216.822 289.695 216.093Z" fill="#965E5E"/>
<path d="M280.065 223.739C280.066 223.727 280.068 223.714 280.071 223.694C280.182 222.949 280.878 222.437 281.626 222.548C300.308 225.347 303.344 240.905 302.326 248.67C302.234 249.417 301.55 249.943 300.803 249.844C300.059 249.752 299.532 249.074 299.616 248.338C299.613 248.317 299.621 248.292 299.626 248.251C299.796 246.775 301.495 228.283 281.221 225.248C280.489 225.138 279.982 224.468 280.065 223.739Z" fill="#965E5E"/>
<path d="M270.426 231.385C270.429 231.364 270.43 231.352 270.44 231.333C270.553 230.586 271.242 230.076 271.988 230.187C290.466 232.963 293.632 248.153 292.727 256.043C292.717 256.13 292.706 256.222 292.696 256.309C292.596 257.056 291.912 257.581 291.164 257.49C290.422 257.391 289.896 256.718 289.981 255.977C289.983 255.957 289.986 255.931 289.991 255.891C290.16 254.414 291.859 235.928 271.583 232.887C270.853 232.775 270.343 232.114 270.426 231.385Z" fill="#965E5E"/>
<path d="M312.799 209.919C312.843 209.541 313.045 209.188 313.38 208.951C313.629 208.779 313.841 208.628 314.024 208.496C314.926 207.833 315.465 207.479 316.92 207.142C317.658 206.979 318.391 207.438 318.556 208.175C318.727 208.906 318.266 209.638 317.527 209.809C316.55 210.026 316.357 210.172 315.632 210.694C315.434 210.845 315.214 211.007 314.936 211.197C314.317 211.623 313.467 211.472 313.034 210.852C312.838 210.568 312.763 210.236 312.799 209.919Z" fill="#965E5E"/>
<path d="M303.333 217.484C303.373 217.133 303.545 216.804 303.84 216.57L307.595 213.589C308.186 213.12 309.041 213.219 309.511 213.809C309.98 214.4 309.882 215.255 309.291 215.73L305.537 218.703C304.945 219.179 304.09 219.081 303.62 218.483C303.386 218.188 303.293 217.829 303.333 217.484Z" fill="#965E5E"/>
<path d="M293.622 225.185C293.662 224.842 293.834 224.506 294.131 224.27L298.04 221.168C298.638 220.7 299.493 220.798 299.964 221.388C300.433 221.979 300.334 222.839 299.743 223.309L295.832 226.411C295.243 226.882 294.38 226.783 293.911 226.191C293.674 225.896 293.583 225.53 293.622 225.185Z" fill="#965E5E"/>
<path d="M283.727 233.039C283.766 232.696 283.939 232.36 284.234 232.125L287.944 229.181C288.536 228.711 289.396 228.809 289.867 229.401C290.335 229.991 290.236 230.852 289.647 231.323L285.937 234.267C285.344 234.735 284.484 234.637 284.013 234.047C283.779 233.75 283.687 233.383 283.727 233.039Z" fill="#965E5E"/>
<path d="M271.643 243.383C271.674 243.119 271.783 242.863 271.968 242.649C273.619 240.731 275.632 238.821 278.114 236.81C278.7 236.332 279.557 236.423 280.033 237.009C280.509 237.594 280.424 238.456 279.833 238.926C277.476 240.837 275.584 242.641 274.036 244.431C273.547 244.998 272.679 245.068 272.11 244.573C271.758 244.263 271.594 243.814 271.643 243.383Z" fill="#965E5E"/>
<path d="M319.512 218.619C319.552 218.268 319.727 217.933 320.028 217.699L320.3 217.488C321.179 216.804 321.481 216.57 321.98 215.674C322.352 215.018 323.184 214.784 323.84 215.155C324.503 215.526 324.736 216.359 324.365 217.014C323.597 218.383 322.948 218.887 321.981 219.641L321.716 219.851C321.118 220.314 320.256 220.208 319.795 219.618C319.56 219.322 319.472 218.964 319.512 218.619Z" fill="#965E5E"/>
<path d="M310.058 226.065C310.098 225.715 310.272 225.386 310.567 225.15L314.712 221.86C315.304 221.392 316.167 221.491 316.635 222.08C317.106 222.67 317.008 223.526 316.415 224.002L312.27 227.292C311.677 227.762 310.816 227.663 310.347 227.071C310.113 226.777 310.018 226.41 310.058 226.065Z" fill="#965E5E"/>
<path d="M300.621 233.557C300.661 233.206 300.834 232.876 301.13 232.642L304.869 229.674C305.46 229.205 306.321 229.304 306.792 229.894C307.26 230.486 307.162 231.345 306.571 231.815L302.831 234.783C302.241 235.252 301.378 235.153 300.91 234.562C300.674 234.267 300.582 233.9 300.621 233.557Z" fill="#965E5E"/>
<path d="M290.999 241.192C291.038 240.847 291.211 240.511 291.507 240.277L295.246 237.316C295.839 236.84 296.694 236.939 297.162 237.535C297.632 238.125 297.535 238.98 296.942 239.45L293.209 242.417C292.611 242.887 291.756 242.788 291.287 242.197C291.052 241.903 290.959 241.536 290.999 241.192Z" fill="#965E5E"/>
<path d="M277.648 250.829C277.699 250.378 277.983 249.962 278.423 249.749C280.971 248.551 283.297 246.845 285.432 245.17C286.021 244.707 286.882 244.812 287.344 245.401C287.814 246 287.709 246.854 287.112 247.322C284.853 249.09 282.381 250.909 279.591 252.22C278.909 252.544 278.096 252.25 277.77 251.568C277.657 251.326 277.62 251.075 277.648 250.829Z" fill="#965E5E"/>
<path d="M256.449 209.114V208.54C257.95 208.54 259.177 207.306 259.177 205.805V203.078C259.177 201.572 257.95 200.344 256.449 200.344H227.746C226.244 200.344 225.009 201.572 225.009 203.078V205.805C225.009 207.306 226.244 208.54 227.746 208.54H229.114V209.114C229.114 214.428 219.544 211.614 219.544 221.403V251.719C219.544 258.04 224.675 263.168 231.002 263.168H254.553C260.886 263.168 266.011 258.04 266.011 251.719V221.403C266.011 211.614 256.449 214.428 256.449 209.114Z" fill="#F9DA49"/>
<path d="M256.447 200.343H227.744C226.242 200.343 225.007 201.571 225.007 203.077V205.804C225.007 207.305 226.242 208.539 227.744 208.539H256.447C257.948 208.539 259.175 207.305 259.175 205.804V203.077C259.175 201.571 257.948 200.343 256.447 200.343Z" fill="#38454F"/>
<path d="M219.542 252.24H266.01V223.565H219.542V252.24Z" fill="#F9EA80"/>
<path d="M236.626 248.143C230.973 248.143 226.375 243.55 226.375 237.9C226.375 232.251 230.973 227.657 236.626 227.657C237.38 227.657 237.995 228.271 237.995 229.025C237.995 229.778 237.38 230.392 236.626 230.392C232.481 230.392 229.112 233.758 229.112 237.9C229.112 242.042 232.481 245.408 236.626 245.408C237.38 245.408 237.995 246.023 237.995 246.775C237.995 247.53 237.38 248.143 236.626 248.143Z" fill="#DC9628"/>
<path d="M248.925 248.143C248.172 248.143 247.557 247.53 247.557 246.775C247.557 246.023 248.172 245.408 248.925 245.408C253.07 245.408 256.448 242.042 256.448 237.9C256.448 233.758 253.07 230.392 248.925 230.392C248.172 230.392 247.557 229.778 247.557 229.025C247.557 228.271 248.172 227.657 248.925 227.657C254.578 227.657 259.176 232.251 259.176 237.9C259.176 243.55 254.578 248.143 248.925 248.143Z" fill="#DC9628"/>
<path d="M398.801 200.351V199.78C400.303 199.78 401.539 198.545 401.539 197.045V194.31C401.539 192.811 400.303 191.584 398.801 191.584H357.798C356.297 191.584 355.07 192.811 355.07 194.31V197.045C355.07 198.545 356.297 199.78 357.798 199.78H359.167V200.351C359.167 205.668 349.596 202.846 349.596 212.643V255.248C349.596 261.57 354.728 266.698 361.055 266.698H396.914C403.24 266.698 408.373 261.57 408.373 255.248V212.643C408.373 202.846 398.801 205.668 398.801 200.351Z" fill="#DAE7EF"/>
<path d="M396.913 267.378H361.054C354.362 267.378 348.915 261.938 348.915 255.249V212.644C348.915 206.568 352.385 204.968 355.176 203.688C357.244 202.74 358.431 202.114 358.48 200.46H357.797C355.917 200.46 354.381 198.927 354.381 197.045V194.31C354.381 192.431 355.917 190.896 357.797 190.896H398.8C400.691 190.896 402.217 192.431 402.217 194.31V197.045C402.217 198.692 401.044 200.073 399.489 200.393C399.502 202.093 400.697 202.727 402.792 203.688C405.582 204.968 409.052 206.568 409.052 212.644V255.249C409.052 261.938 403.607 267.378 396.913 267.378ZM357.797 192.263C356.671 192.263 355.749 193.184 355.749 194.31V197.045C355.749 198.173 356.671 199.092 357.797 199.092H359.846V200.352C359.846 203.048 357.765 204 355.749 204.928C353.061 206.161 350.284 207.442 350.284 212.644V255.249C350.284 261.182 355.115 266.011 361.054 266.011H396.913C402.852 266.011 407.684 261.182 407.684 255.249V212.644C407.684 207.442 404.907 206.161 402.217 204.928C400.204 204 398.121 203.048 398.121 200.352V199.092H398.8C399.935 199.092 400.849 198.173 400.849 197.045V194.31C400.849 193.184 399.935 192.263 398.8 192.263H357.797Z" fill="#BBD7EA"/>
<path d="M400.008 190.216H356.596C355.001 190.216 353.701 191.517 353.701 193.109V198.251C353.701 199.839 355.001 201.138 356.596 201.138H400.008C401.597 201.138 402.906 199.839 402.906 198.251V193.109C402.906 191.517 401.597 190.216 400.008 190.216Z" fill="#546A79"/>
<path d="M374.203 253.72C374.203 258.621 369.61 262.596 363.952 262.596C358.284 262.596 353.701 258.621 353.701 253.72C353.701 248.819 358.284 244.845 363.952 244.845C369.61 244.845 374.203 248.819 374.203 253.72Z" fill="#88C057"/>
<path d="M386.502 248.938C386.502 251.959 383.746 254.408 380.348 254.408C376.952 254.408 374.203 251.959 374.203 248.938C374.203 245.925 376.952 243.477 380.348 243.477C383.746 243.477 386.502 245.925 386.502 248.938Z" fill="#A4E869"/>
<path d="M382.405 259.181C382.405 261.069 380.568 262.596 378.3 262.596C376.037 262.596 374.203 261.069 374.203 259.181C374.203 257.301 376.037 255.767 378.3 255.767C380.568 255.767 382.405 257.301 382.405 259.181Z" fill="#436B1C"/>
<path d="M404.266 241.53C404.266 245.732 400.597 249.133 396.073 249.133C391.54 249.133 387.871 245.732 387.871 241.53C387.871 237.323 391.54 233.922 396.073 233.922C400.597 233.922 404.266 237.323 404.266 241.53Z" fill="#88C057"/>
<path d="M397.432 261.236H390.598C387.597 261.236 385.133 258.775 385.133 255.766C385.133 252.767 387.597 250.305 390.598 250.305H397.432C400.443 250.305 402.906 252.767 402.906 255.766C402.906 258.775 400.443 261.236 397.432 261.236Z" fill="#659C35"/>
<path d="M404.266 218.212C404.266 226.135 399.99 232.557 394.704 232.557C389.418 232.557 385.133 226.135 385.133 218.212C385.133 210.298 389.418 203.875 394.704 203.875C399.99 203.875 404.266 210.298 404.266 218.212Z" fill="#A4E869"/>
<path d="M363.263 228.452C360.262 228.452 357.798 225.999 357.798 222.991V213.436C357.798 210.427 360.262 207.966 363.263 207.966C366.274 207.966 368.737 210.427 368.737 213.436V222.991C368.737 225.999 366.274 228.452 363.263 228.452Z" fill="#659C35"/>
<path d="M383.765 222.313C383.765 225.706 380.708 228.453 376.931 228.453C373.16 228.453 370.097 225.706 370.097 222.313C370.097 218.917 373.16 216.163 376.931 216.163C380.708 216.163 383.765 218.917 383.765 222.313Z" fill="#88C057"/>
<path d="M385.133 209.336C385.133 212.358 382.685 214.798 379.668 214.798C376.651 214.798 374.203 212.358 374.203 209.336C374.203 206.323 376.651 203.875 379.668 203.875C382.685 203.875 385.133 206.323 385.133 209.336Z" fill="#659C35"/>
<path d="M381.423 242.696H358.774C355.229 242.696 352.333 239.802 352.333 236.261C352.333 232.719 355.229 229.818 358.774 229.818H381.423C384.968 229.818 387.871 232.719 387.871 236.261C387.871 239.802 384.968 242.696 381.423 242.696Z" fill="#436B1C"/>
<path d="M319.204 172.106C318.304 172.987 317.41 173.859 316.528 174.706C315.44 175.741 314.246 176.634 312.978 177.427C309.394 179.648 300.358 185.977 297.421 189.831C295.026 192.972 296.608 194.919 298.162 195.946C298.716 196.313 299.237 196.733 299.703 197.199C300.178 197.674 300.599 198.186 300.966 198.748C301.993 200.294 303.942 201.88 307.086 199.486C310.942 196.552 317.27 187.516 319.498 183.944C320.285 182.67 321.188 181.475 322.221 180.396C323.048 179.528 323.903 178.655 324.777 177.78L319.204 172.106Z" fill="#D2D5D7"/>
<path d="M324.777 177.78C341.701 160.782 366.161 142.384 366.161 142.384L355.529 131.761C355.529 131.761 336.288 155.282 319.204 172.106L324.777 177.78Z" fill="#659C35"/>
<path d="M327.954 181.014C328.1 180.847 328.213 180.654 328.368 180.494C345.071 162.642 369.063 151.073 369.063 151.073L362.877 144.898C355.655 150.5 337.936 164.556 324.777 177.779L327.954 181.014Z" fill="#88C057"/>
<path d="M324.777 177.783C323.903 178.658 323.048 179.531 322.221 180.399C321.188 181.478 320.285 182.673 319.498 183.946C317.337 187.42 311.316 196.009 307.44 199.196L308.379 200.123C310.002 202.263 312.758 204.657 316.074 202.431C320.138 199.71 323.916 188.12 325.831 184.233C326.413 183.058 327.126 181.991 327.955 181.018L324.777 177.783Z" fill="#F3F3F3"/>
<path d="M316.048 168.883C315.006 169.81 313.847 170.59 312.565 171.219C308.673 173.132 297.081 176.907 294.352 180.966C292.13 184.281 294.525 187.035 296.668 188.648L297.623 189.582C300.732 185.715 309.468 179.608 312.978 177.426C314.246 176.632 315.44 175.739 316.528 174.699C317.41 173.858 318.304 172.992 319.204 172.105L316.048 168.883Z" fill="#EBEBEC"/>
<path d="M319.204 172.108C332.492 159.031 347.074 141.907 352.9 134.931L345.866 127.903C345.866 127.903 334.166 151.996 316.302 168.687C316.221 168.76 316.129 168.819 316.048 168.886L319.204 172.108Z" fill="#436B1C"/>
<path d="M304.395 197.854C304.048 197.854 303.694 197.721 303.428 197.454L299.331 193.359C298.797 192.826 298.797 191.959 299.331 191.425C299.864 190.892 300.732 190.892 301.265 191.425L305.363 195.52C305.896 196.06 305.896 196.92 305.363 197.454C305.097 197.721 304.749 197.854 304.395 197.854Z" fill="white"/>
<path d="M298.93 185.566C298.583 185.566 298.229 185.432 297.963 185.164L296.595 183.798C296.061 183.265 296.061 182.404 296.595 181.865C297.135 181.33 297.995 181.33 298.53 181.865L299.899 183.232C300.432 183.764 300.432 184.632 299.899 185.164C299.63 185.432 299.283 185.566 298.93 185.566Z" fill="white"/>
<path d="M313.966 200.589C313.612 200.589 313.265 200.455 312.999 200.187L311.63 198.819C311.096 198.287 311.096 197.419 311.63 196.887C312.163 196.353 313.032 196.353 313.566 196.887L314.933 198.253C315.468 198.787 315.468 199.654 314.933 200.187C314.667 200.455 314.313 200.589 313.966 200.589Z" fill="white"/>
<path d="M322.942 175.915L361.33 137.557L359.394 135.63L321.027 173.96L322.942 175.915Z" fill="#88C057"/>
<path d="M328.467 183.341C328.121 183.341 327.767 183.209 327.5 182.941L313.972 169.425C313.437 168.89 313.437 168.03 313.972 167.497C314.505 166.957 315.373 166.957 315.908 167.497L329.436 181.015C329.969 181.547 329.969 182.408 329.436 182.941C329.167 183.209 328.82 183.341 328.467 183.341Z" fill="#A46F3E"/>
<path d="M325.571 186.245C325.217 186.245 324.87 186.112 324.604 185.845L311.076 172.329C310.542 171.789 310.542 170.929 311.076 170.394C311.609 169.862 312.471 169.862 313.005 170.394L326.538 183.911C327.073 184.446 327.073 185.311 326.538 185.845C326.272 186.112 325.918 186.245 325.571 186.245Z" fill="#A46F3E"/>
<path d="M128.864 382.045C128.864 386.891 103.822 390.818 72.9319 390.818C42.0417 390.818 17 386.891 17 382.045C17 377.2 42.0417 373.272 72.9319 373.272C103.822 373.272 128.864 377.2 128.864 382.045Z" fill="#EDE8DC"/>
<path d="M443.67 382.045C443.67 386.891 380.227 390.818 301.965 390.818C223.704 390.818 160.261 386.891 160.261 382.045C160.261 377.2 223.704 373.272 301.965 373.272C380.227 373.272 443.67 377.2 443.67 382.045Z" fill="#EDE8DC"/>
<path d="M463.017 112.78C462.557 109.677 459.641 107.514 456.536 107.974L425.622 112.874C422.787 113.293 420.737 115.76 420.752 118.548L416.238 160.263L159.634 183.997C158.33 184.102 157.163 184.644 156.261 185.465C156.26 185.466 156.259 185.467 156.258 185.468C156.203 185.518 156.149 185.568 156.096 185.62C154.7 186.976 154.027 189.012 154.507 191.032L174.611 273.823C174.748 274.401 174.97 274.938 175.261 275.423C176.206 277.276 178.135 278.553 180.348 278.553H267.566C268.048 278.66 268.551 278.707 269.066 278.682C269.393 278.666 269.711 278.622 270.02 278.553H404.313L407.572 335.14H198.294C195.156 335.14 192.587 337.706 192.587 340.843C192.587 343.979 195.156 346.545 198.294 346.545H413.578C413.583 346.545 413.588 346.545 413.593 346.545C413.598 346.545 413.603 346.545 413.608 346.545C416.747 346.545 419.315 343.979 419.315 340.843L415.728 278.516L416.087 267.079L431.633 123.468L458.207 119.256C461.312 118.797 463.476 115.882 463.017 112.78ZM410.245 215.635L388.344 216.557V174.296L414.986 171.831L410.245 215.635ZM241.716 267.148L237.818 234.303L261.171 233.32L262.798 267.148H241.716ZM206.265 267.148L201.864 235.815L226.381 234.784L230.222 267.148H206.265ZM184.735 267.148L177.376 236.845L190.406 236.297L194.739 267.148H184.735ZM167.155 194.755L184.604 193.141C184.514 193.688 184.504 194.258 184.584 194.835L188.813 224.95L174.633 225.547L167.155 194.755ZM221.038 189.771L225.033 223.427L200.271 224.468L195.889 193.271C195.834 192.872 195.738 192.488 195.606 192.123L221.038 189.771ZM301.139 220.225L272.083 221.447L270.339 185.21L301.139 182.362V220.225ZM312.553 181.306L339.193 178.842V218.624L312.553 219.745V181.306ZM258.907 186.268L260.622 221.929L236.47 222.945L232.407 188.719L258.907 186.268ZM274.281 267.148L272.63 232.838L301.139 231.639V267.148H274.281ZM312.553 231.159L339.193 230.038V267.148H312.553V231.159ZM350.607 229.558L376.93 228.451V267.148H350.607V229.558ZM350.607 218.144V177.86C350.607 177.835 350.605 177.811 350.605 177.786L376.93 175.351V217.037L350.607 218.144ZM388.344 267.148V227.97L409.005 227.101L404.671 267.148H388.344Z" fill="#968978"/>
<path d="M456.138 108.038L425.623 112.875C422.787 113.295 420.738 115.762 420.753 118.549L416.238 160.264L159.635 183.999C158.331 184.104 157.164 184.646 156.262 185.467C156.261 185.468 156.26 185.468 156.258 185.469C156.204 185.519 156.15 185.57 156.097 185.622C154.702 186.978 154.028 189.014 154.508 191.034L174.612 273.824C174.749 274.402 174.971 274.939 175.263 275.425C176.208 277.277 178.136 278.555 180.349 278.555H265.156H267.567L267.589 278.559L267.611 278.555H270.021H401.903H404.314L407.573 335.141H405.163H198.296C195.156 335.141 192.588 337.708 192.588 340.844C192.588 343.98 195.156 346.547 198.296 346.547H411.168H411.171H411.175L411.183 346.546L411.19 346.547H411.194H411.198C414.337 346.547 416.905 343.98 416.905 340.844L413.318 278.517L413.677 267.08L429.223 123.47L455.797 119.257C458.901 118.798 461.066 115.884 460.607 112.781C460.249 110.366 458.403 108.521 456.138 108.038ZM388.345 216.457L385.934 216.558V174.297L412.576 171.833L412.552 172.058L414.987 171.833L410.246 215.637L388.345 216.558V216.457ZM239.307 267.15L235.408 234.304L258.761 233.322L258.766 233.423L261.172 233.322L262.799 267.15H260.388H241.717H239.307ZM203.855 267.15L199.455 235.817L223.971 234.785L223.983 234.886L226.382 234.785L230.224 267.15H227.813H206.266H203.855ZM182.325 267.15L174.967 236.847L187.997 236.299L188.011 236.4L190.408 236.299L194.74 267.15H192.329H184.736H182.325ZM164.746 194.756L182.195 193.142C182.182 193.217 182.172 193.292 182.163 193.368L184.606 193.142C184.516 193.69 184.505 194.259 184.585 194.836L188.814 224.952L174.634 225.548L174.609 225.448L172.223 225.548L164.746 194.756ZM218.628 189.772L218.654 189.993L221.039 189.772L225.034 223.429L200.272 224.47L200.258 224.369L197.861 224.47L193.48 193.272C193.425 192.873 193.328 192.49 193.196 192.125L218.628 189.772ZM272.079 221.348L269.673 221.449L267.93 185.212L298.73 182.363V182.586L301.14 182.363V220.227L272.084 221.449L272.079 221.348ZM310.143 181.307L336.784 178.843V179.066L339.194 178.843V218.626L312.554 219.746V219.645L310.143 219.746V181.307ZM256.497 186.27L256.508 186.491L258.908 186.27L260.624 221.931L236.471 222.947L236.459 222.846L234.06 222.947L229.997 188.72L256.497 186.27ZM271.872 267.15L270.221 232.84L298.73 231.64V231.742L301.14 231.64V267.15H298.73H274.282H271.872ZM310.143 231.16L336.784 230.04V230.141L339.194 230.04V267.15H336.784H312.554H310.143V231.16ZM348.198 229.559L374.52 228.452V228.553L376.931 228.452V267.15H374.52H350.608H348.198V229.559ZM348.198 218.146V177.861C348.198 177.837 348.195 177.812 348.195 177.788L374.52 175.353V175.576L376.931 175.353V217.038L350.608 218.146V218.044L348.198 218.146ZM385.934 267.15V227.972L406.595 227.103L406.584 227.205L409.006 227.103L404.672 267.15H402.261H388.345H385.934Z" fill="#CFC2B2"/>
<path d="M168.788 229.032L410.217 218.37L411.339 208.592L411.006 208.609L410.246 215.637L388.344 216.558V216.457L385.933 216.558V209.932L376.93 210.407V217.038L350.608 218.146V218.044L348.197 218.146V211.922L339.193 212.397V218.626L312.553 219.747V219.645L310.143 219.747V213.93L301.139 214.404V220.227L272.083 221.449L272.078 221.348L269.672 221.449L269.414 216.078L260.364 216.555L260.623 221.931L236.47 222.947L236.458 222.846L234.059 222.947L233.469 217.974L224.442 218.45L225.033 223.429L200.271 224.47L200.257 224.369L197.86 224.47L197.216 219.886L188.169 220.363L188.813 224.952L174.633 225.548L174.608 225.448L172.222 225.548L171.181 221.259L166.955 221.482L168.788 229.032Z" fill="#E0D8CE"/>
<path d="M453.521 108.45L425.623 112.872C422.787 113.292 420.738 115.759 420.753 118.546L416.238 160.261L159.635 183.996C158.331 184.101 157.164 184.643 156.262 185.464C156.261 185.465 156.26 185.465 156.258 185.466C156.204 185.516 156.15 185.567 156.097 185.619C154.702 186.975 154.028 189.011 154.508 191.031L173.769 270.352C173.872 270.358 173.977 270.361 174.082 270.361H258.888H261.299L261.321 270.366L261.342 270.361H263.753H395.635H398.045L398.517 278.552H401.903H404.314L407.573 335.138H405.163H198.296C196.048 335.138 194.093 336.454 193.164 338.353H404.899H404.903H404.907L404.915 338.353L404.922 338.353H404.926H404.93C408.069 338.353 410.637 335.786 410.637 332.65L407.05 270.324L407.409 258.887L417.371 166.863L417.959 161.429L422.955 115.276L449.528 111.064C451.238 110.811 452.663 109.814 453.521 108.45ZM159.446 190.549L416.075 166.983L415.876 169.05L405.507 259.425L404.672 267.147H402.261H388.345H385.934V259.422L376.931 259.402V267.147H374.52H350.608H348.198V259.338L339.194 259.318V267.147H336.784H312.554H310.143V259.254L301.14 259.234V267.147H298.73H274.282H271.872L271.488 259.168L262.414 259.148L262.799 267.147H260.388H241.717H239.307L238.351 259.094L229.265 259.074L230.224 267.147H227.813H206.266H203.855L202.713 259.015L193.595 258.995L194.74 267.147H192.329H184.736H182.325L180.339 258.966L176.057 258.956L174.788 253.73L162.216 201.959V201.959L159.446 190.549Z" fill="#E0D8CE"/>
<path d="M243.902 365.3C243.902 356.054 236.401 348.559 227.148 348.559C217.895 348.559 210.394 356.054 210.394 365.3C210.394 374.546 217.895 382.041 227.148 382.041C236.401 382.041 243.902 374.546 243.902 365.3Z" fill="#6A5F51"/>
<path d="M234.072 365.303C234.072 361.482 230.972 358.385 227.148 358.385C223.325 358.385 220.225 361.482 220.225 365.303C220.225 369.124 223.325 372.222 227.148 372.222C230.972 372.222 234.072 369.124 234.072 365.303Z" fill="#EB9655"/>
<path d="M226.856 366.311C223.074 366.311 220.732 363.565 219.718 360.031C219.262 358.439 219.076 357.847 218.726 356.416L216.044 346.545H230.984L233.836 357.044C235.065 361.568 231.801 366.148 227.113 366.306C227.027 366.309 226.942 366.311 226.856 366.311Z" fill="#B8AB99"/>
<path d="M405.098 365.3C405.098 356.054 397.597 348.559 388.344 348.559C379.091 348.559 371.59 356.054 371.59 365.3C371.59 374.546 379.091 382.041 388.344 382.041C397.597 382.041 405.098 374.546 405.098 365.3Z" fill="#6A5F51"/>
<path d="M395.269 365.303C395.269 361.482 392.169 358.385 388.345 358.385C384.521 358.385 381.421 361.482 381.421 365.303C381.421 369.124 384.521 372.222 388.345 372.222C392.169 372.222 395.269 369.124 395.269 365.303Z" fill="#EB9655"/>
<path d="M388.053 366.311C384.272 366.311 381.928 363.565 380.915 360.031C380.459 358.439 380.273 357.847 379.923 356.416L377.241 346.545H392.181L395.033 357.044C396.262 361.568 392.998 366.148 388.31 366.306C388.225 366.309 388.139 366.311 388.053 366.311Z" fill="#B8AB99"/>
<path d="M44.5815 321.387C43.963 321.387 43.36 321.081 43.0088 320.516C41.8863 318.684 39.7749 316.566 37.3511 316.648C36.3166 316.593 35.4821 315.876 35.4542 314.86C35.429 313.848 36.2177 313.004 37.2434 312.967C41.1136 312.85 44.4215 315.796 46.1455 318.585C46.6741 319.447 46.4058 320.58 45.5433 321.118C45.2466 321.306 44.9155 321.387 44.5815 321.387Z" fill="#436B1C"/>
<path d="M82.2399 296.908C81.989 293.326 79.006 290.499 75.3678 290.499C75.3495 290.499 75.3406 290.499 75.3321 290.499C75.3951 289.959 75.3587 289.385 75.1886 288.785C74.6938 287.106 73.2108 285.814 71.4697 285.608C70.0484 285.437 68.7382 285.947 67.8139 286.855C66.9423 286.064 65.8017 285.57 64.5344 285.57C61.8114 285.57 59.6017 287.778 59.6017 290.499C59.6017 290.509 59.6017 290.517 59.6017 290.525C56.2967 290.768 53.692 293.524 53.692 296.899C53.692 297.411 53.7621 297.903 53.8801 298.387C49.9357 298.551 46.8016 301.782 46.8016 305.757C46.8016 307.103 47.1607 308.361 47.7905 309.448C46.5858 310.434 45.8125 311.944 45.8125 313.63C45.8125 315.164 46.4683 316.548 47.5027 317.533C51.9387 313.908 56.6031 326.027 62.0898 335.703C63.9132 338.915 83.605 335.496 85.176 337.488C86.9659 335.882 88.1244 307.903 88.1675 305.444C88.2481 301.504 85.7437 298.137 82.2399 296.908Z" fill="#88C057"/>
<path d="M84.7545 333.558L86.0663 332.778C88.4918 331.313 91.5282 331.313 93.9533 332.778L95.2646 333.558C97.6904 335.013 100.727 335.013 103.152 333.558L106.862 331.916C107.4 330.39 107.779 329.295 107.931 328.811C111.389 317.689 113.618 305.983 113.922 294.316C114.048 289.62 110.159 282.295 103.7 285.626C97.357 288.892 92.8129 301.425 89.6233 307.374C85.0863 315.84 81.4938 325.031 78.9436 334.411C80.8823 334.896 82.9751 334.618 84.7545 333.558Z" fill="#EEAF4B"/>
<path d="M36.9205 331.674L39.3996 333.154C42.239 334.859 45.7942 334.859 48.634 333.154L49.2721 332.769C51.697 331.313 54.7336 331.313 57.1592 332.769L58.4707 333.558C59.8982 334.411 61.5241 334.752 63.1243 334.6C64.2998 330.803 63.9038 326.054 62.0806 322.841C55.9473 312.016 50.845 314.225 45.9298 318.918C44.9867 319.817 43.8374 320.481 42.5795 320.84C37.1888 322.375 33.2198 324.895 35.4829 331.745C35.8779 331.458 36.435 331.378 36.9205 331.674Z" fill="#ED3F32"/>
<path d="M89.4255 329.557C89.2278 329.557 89.0292 329.529 88.8314 329.458C87.87 329.133 87.3601 328.092 87.6816 327.132C88.9125 323.524 92.8471 321.594 96.46 322.805C98.148 323.379 99.9895 322.474 100.564 320.785C100.887 319.817 101.931 319.306 102.899 319.627C103.86 319.96 104.374 321.002 104.049 321.962C102.818 325.569 98.8833 327.509 95.2733 326.288C93.5858 325.713 91.7429 326.619 91.1678 328.309C90.9084 329.08 90.1888 329.557 89.4255 329.557Z" fill="#A46F3E"/>
<path d="M93.774 316.745C93.5856 316.745 93.3776 316.719 93.1799 316.656C92.2193 316.322 91.7063 315.283 92.0301 314.321C92.6331 312.571 93.8729 311.152 95.5234 310.337C97.1773 309.527 99.0561 309.401 100.806 309.994C102.506 310.569 104.336 309.663 104.911 307.965C105.235 307.004 106.287 306.495 107.248 306.816C108.209 307.15 108.722 308.19 108.398 309.15C107.167 312.759 103.232 314.698 99.6218 313.478C98.8025 313.2 97.9222 313.253 97.1498 313.639C96.3787 314.015 95.7951 314.68 95.5163 315.497C95.2542 316.27 94.5464 316.745 93.774 316.745Z" fill="#A46F3E"/>
<path d="M98.1296 303.937C97.9323 303.937 97.7341 303.912 97.5366 303.847C96.5759 303.517 96.0557 302.475 96.3866 301.515C97.4557 298.346 100.915 296.648 104.086 297.716C104.698 297.923 105.344 297.88 105.91 297.602C106.485 297.322 106.917 296.829 107.122 296.227C107.446 295.266 108.488 294.745 109.458 295.078C110.419 295.402 110.932 296.444 110.608 297.412C110.079 298.946 108.991 300.186 107.545 300.895C106.09 301.613 104.435 301.721 102.9 301.2C101.651 300.777 100.296 301.442 99.8735 302.698C99.6134 303.461 98.8931 303.937 98.1296 303.937Z" fill="#A46F3E"/>
<path d="M66.9422 310.698C65.1986 313.005 62.46 315.741 63.511 320.572L66.3577 333.559L67.6692 332.779C70.0941 331.314 73.1305 331.314 75.556 332.779L76.8675 333.559C77.9367 334.196 78.9436 334.412 78.9436 334.412C80.8571 327.383 83.3526 320.455 86.3992 313.858C84.9711 310.302 81.9333 309.107 79.7236 307.887C79.7073 307.887 79.6979 307.879 79.689 307.869C78.2861 307.072 78.2059 305.16 79.2562 303.946C79.67 303.461 79.859 302.807 79.7143 302.143L79.4913 301.129C79.2471 300.015 78.1344 299.298 77.0126 299.539L65.8353 301.982C64.7135 302.223 64.0032 303.338 64.2468 304.458L64.4718 305.472C64.6145 306.146 65.0819 306.668 65.6749 306.927C67.0414 307.511 67.8667 309.027 67.1737 310.339C67.1033 310.454 67.0309 310.58 66.9422 310.698Z" fill="#DAE7EF"/>
<path d="M78.6715 304.818L66.0148 307.581C64.6139 307.888 63.2226 306.998 62.9171 305.599L62.7379 304.774C62.4314 303.371 63.3211 301.982 64.7222 301.676L77.3789 298.912C78.7707 298.607 80.1649 299.505 80.4699 300.896L80.6591 301.729C80.9621 303.122 80.0659 304.512 78.6715 304.818Z" fill="white"/>
<path d="M110.079 331.351L106.862 377.361C106.629 381.957 102.827 385.558 98.2277 385.558H46.5854C41.9864 385.558 38.1865 381.957 37.9519 377.361L34.8179 332.858V332.714C34.8713 331.757 35.9473 331.16 36.8021 331.675L39.2739 333.155C42.122 334.86 45.67 334.86 48.5076 333.155L49.1446 332.77C51.58 331.314 54.6068 331.314 57.0327 332.77L58.3438 333.559C60.7785 335.014 63.8051 335.014 66.2313 333.559L67.5422 332.77C69.9778 331.314 73.0037 331.314 75.4301 332.77L76.741 333.559C79.1761 335.014 82.202 335.014 84.6285 333.559L85.9395 332.77C88.3749 331.314 91.4008 331.314 93.827 332.77L95.1379 333.559C97.5733 335.014 100.599 335.014 103.026 333.559L109.26 330.796C109.655 330.616 110.094 330.921 110.079 331.351Z" fill="#FBD490"/>
<path d="M56.8996 361.995H44.0165C43.0024 361.995 42.1746 361.17 42.1746 360.154C42.1746 359.141 43.0024 358.313 44.0165 358.313H56.8996C57.9133 358.313 58.7301 359.141 58.7301 360.154C58.7301 361.17 57.9133 361.995 56.8996 361.995Z" fill="#E0B877"/>
<path d="M60.5714 369.344H44.0165C43.0024 369.344 42.1746 368.519 42.1746 367.503C42.1746 366.49 43.0024 365.665 44.0165 365.665H60.5714C61.5882 365.665 62.4137 366.49 62.4137 367.503C62.4137 368.519 61.5882 369.344 60.5714 369.344Z" fill="#E0B877"/>
<path d="M64.2567 376.698H44.0165C43.0024 376.698 42.1746 375.883 42.1746 374.86C42.1746 373.845 43.0024 373.029 44.0165 373.029H64.2567C65.2708 373.029 66.0982 373.845 66.0982 374.86C66.0982 375.883 65.2708 376.698 64.2567 376.698Z" fill="#E0B877"/>
<path d="M75.2959 376.698H71.6115C70.5978 376.698 69.7693 375.883 69.7693 374.86C69.7693 373.845 70.5978 373.029 71.6115 373.029H75.2959C76.3103 373.029 77.1263 373.845 77.1263 374.86C77.1263 375.883 76.3103 376.698 75.2959 376.698Z" fill="#E0B877"/>
<path d="M107.284 371.153L106.863 377.175C106.63 381.771 102.828 385.371 98.2288 385.371H46.5864C41.9873 385.371 38.1877 381.771 37.9531 377.175L37.5288 371.153H37.8535L37.9531 372.567C38.1877 377.164 41.9873 380.764 46.5864 380.764H98.2288C102.828 380.764 106.63 377.164 106.863 372.567L106.962 371.153H107.284Z" fill="#E0BB7B"/>
<path d="M110.153 331.417L109.97 334.041C109.808 333.889 109.564 333.83 109.335 333.933L103.101 336.697C100.674 338.153 97.6483 338.153 95.2123 336.697L93.9018 335.908C91.4754 334.453 88.4493 334.453 86.0139 335.908L84.7028 336.697C82.2768 338.153 79.2509 338.153 76.8155 336.697L75.5044 335.908C73.0782 334.453 70.0525 334.453 67.6169 335.908L66.3061 336.697C63.8799 338.153 60.8531 338.153 58.4184 336.697L57.1075 335.908C54.6815 334.453 51.6547 334.453 49.2191 335.908L48.5823 336.293C45.7448 337.998 42.1967 337.998 39.3489 336.293L36.8769 334.813C36.2072 334.41 35.4022 334.688 35.0588 335.288L34.8926 332.925V332.781C34.9458 331.823 36.022 331.227 36.8769 331.742L39.3489 333.222C42.1967 334.926 45.7448 334.926 48.5823 333.222L49.2191 332.836C51.6547 331.381 54.6815 331.381 57.1075 332.836L58.4184 333.626C60.8531 335.081 63.8799 335.081 66.3061 333.626L67.6169 332.836C70.0525 331.381 73.0782 331.381 75.5044 332.836L76.8155 333.626C79.2509 335.081 82.2768 335.081 84.7028 333.626L86.0139 332.836C88.4493 331.381 91.4754 331.381 93.9018 332.836L95.2123 333.626C97.6483 335.081 100.674 335.081 103.101 333.626L109.335 330.862C109.73 330.683 110.169 330.988 110.153 331.417Z" fill="#FFEAA6"/>
<path fill-rule="evenodd" clip-rule="evenodd" d="M256.002 142.707L258.633 137.92L284.025 145.622L283.006 147.477L259.379 139.69L256.002 142.707Z" fill="#FEFEFE"/>
<defs>
<linearGradient id="paint0_linear" x1="224.103" y1="458.175" x2="516.151" y2="180.363" gradientUnits="userSpaceOnUse">
<stop offset="1" stop-color="#FAF9EC"/>
<stop offset="1" stop-color="#F6F2E4"/>
</linearGradient>
<linearGradient id="paint1_linear" x1="395.747" y1="189.522" x2="395.747" y2="25.8777" gradientUnits="userSpaceOnUse">
<stop offset="1" stop-color="#FFFEF0"/>
<stop offset="0.156863" stop-color="#F5F0E2"/>
<stop offset="0.258824" stop-color="#FBFAEC"/>
<stop offset="0.34902" stop-color="#F9F7E9"/>
<stop offset="1" stop-color="#EBE1D3"/>
</linearGradient>
</defs>
</svg>
