<svg width="23" height="26" viewBox="0 0 23 26" fill="none" xmlns="http://www.w3.org/2000/svg">
<g clip-path="url(#clip0)">
<path d="M21.535 4.52637H1.46499C0.657207 4.52637 0 5.2693 0 6.18245V19.818C0 20.7312 0.657207 21.4741 1.46499 21.4741H21.535C22.3428 21.4741 23 20.7312 23 19.818V6.18245C23 5.2693 22.3428 4.52637 21.535 4.52637ZM22.0234 19.818C22.0234 20.1224 21.8043 20.37 21.535 20.37H1.46499C1.19573 20.37 0.976646 20.1224 0.976646 19.818V6.18239C0.976646 5.87801 1.19573 5.63035 1.46499 5.63035H21.535C21.8043 5.63035 22.0234 5.87801 22.0234 6.18239V19.818Z" fill="#FF7308"/>
<path d="M22.5572 9.36963H0.884108C-0.113616 9.36963 -0.000530609 9.61683 -0.000530609 9.92167C-0.000530609 10.2266 -0.113616 10.4737 0.884108 10.4737H22.1149C23.1126 10.4737 22.9995 9.92167 22.9995 9.92167C22.9995 9.92167 23.5549 9.36963 22.5572 9.36963Z" fill="#FF7308"/>
<path d="M23.0372 12.4482H-0.0373124C-1.03504 12.4482 -5.46575e-05 12.6954 -5.46575e-05 13.0003C-5.46575e-05 13.3051 -0.113175 13.5523 0.88455 13.5523H22.1153C23.1131 13.5523 22.9999 13.3051 22.9999 13.0003C22.9999 12.6954 24.0349 12.4482 23.0372 12.4482Z" fill="#FF7308"/>
<path d="M18.9618 15.5264H13.721C13.4513 15.5264 13.2327 15.7736 13.2327 16.0784C13.2327 16.3832 13.4513 16.6305 13.721 16.6305H18.9618C19.2315 16.6305 19.4502 16.3832 19.4502 16.0784C19.4502 15.7736 19.2315 15.5264 18.9618 15.5264Z" fill="#FF7308"/>
</g>
<defs>
<clipPath id="clip0">
<rect width="23" height="26" fill="white"/>
</clipPath>
</defs>
</svg>
