<svg width="471" height="242" viewBox="0 0 471 242" fill="none" xmlns="http://www.w3.org/2000/svg">
<g clip-path="url(#clip0)">
<path d="M442.692 142.525L443.716 140.413L383.132 111.037L382.094 113.177C377.938 117.739 369.204 116.382 363.272 128.616L348.139 159.827C341.804 172.891 347.261 188.616 360.323 194.949L384.403 206.625L391.958 210.288C405.022 216.622 420.747 211.165 427.08 198.103L442.212 166.895C448.155 154.639 441.637 148.636 442.692 142.525Z" fill="#6A3311"/>
<path d="M359.904 168.166C358.724 167.594 358.232 166.178 358.805 164.998L373.938 133.788C377.438 126.568 381.977 123.632 385.54 121.881C386.714 121.302 388.136 121.783 388.712 122.964C389.292 124.138 388.805 125.56 387.63 126.136C384.571 127.641 381.059 129.97 378.205 135.857L363.072 167.067C362.5 168.247 361.084 168.738 359.904 168.166Z" fill="#A46F3E"/>
<path d="M422.814 201.206L388.779 184.703L406.366 148.432L441.408 165.423C442.087 165.752 442.37 166.569 442.042 167.248L426.136 200.052C425.537 201.287 424.05 201.805 422.814 201.206Z" fill="white"/>
<path d="M426.303 179.126L407 169.767L414.16 155L434.472 164.849C435.15 165.178 435.434 165.995 435.105 166.674L429.626 177.973C429.024 179.21 427.538 179.725 426.303 179.126Z" fill="#4E4E4E"/>
<path d="M432.303 182.126L413 172.767L420.16 158L440.472 167.849C441.15 168.178 441.434 168.995 441.105 169.674L435.626 180.973C435.024 182.21 433.538 182.725 432.303 182.126Z" fill="#E22F37"/>
<path d="M446.339 141.46L380.653 109.611C378.178 108.411 377.145 105.433 378.344 102.96L383.312 92.7148C384.511 90.2419 387.489 89.2088 389.964 90.4088L455.649 122.258C458.122 123.457 459.155 126.435 457.956 128.908L452.989 139.153C451.79 141.626 448.812 142.659 446.339 141.46Z" fill="#E6E6E6"/>
</g>
<g clip-path="url(#clip1)">
<path d="M129.295 104.875L140.172 100.075C141.434 99.5173 142.248 98.2515 142.241 96.8545L142.211 91.3597C142.201 89.4332 140.652 87.8771 138.749 87.8877L134.501 87.9114C132.602 87.9219 131.05 86.3686 131.04 84.4394L131.017 80.1314C131.006 78.2048 129.457 76.6488 127.555 76.6594L123.307 76.683C121.407 76.6936 119.856 75.1402 119.846 73.2111L119.822 68.903C119.812 66.9765 118.263 65.4205 116.361 65.4311L112.113 65.4547C110.213 65.4653 108.662 63.9119 108.651 61.9827L108.628 57.6774C108.62 55.7482 107.071 54.1948 105.169 54.2054L99.7481 54.2356C98.3706 54.2432 97.1313 55.083 96.5951 56.3686L91.9844 67.4507C68.693 96.3671 42.744 122.972 14.4873 146.908L3.52944 151.743C2.31482 152.28 1.5342 153.495 1.54146 154.836L1.57246 160.565C1.58248 162.417 3.07049 163.909 4.89673 163.899L9.42034 163.874C11.2466 163.864 12.7346 165.356 12.7446 167.208L12.7694 171.796C12.7795 173.648 14.2675 175.14 16.0937 175.13L20.6173 175.105C22.4436 175.095 23.9316 176.587 23.9416 178.439L23.9664 183.027C23.9764 184.879 25.4644 186.371 27.2907 186.361L31.8143 186.336C33.6405 186.326 35.1285 187.818 35.1386 189.67L35.1634 194.258C35.1734 196.11 36.6614 197.602 38.4877 197.592L44.1369 197.561C45.4594 197.553 46.6489 196.748 47.1644 195.513L51.8114 184.349C75.0897 155.419 101.041 128.811 129.295 104.875Z" fill="#9CB538"/>
<path d="M97.6176 79.4865C96.9459 79.4902 96.2727 79.2332 95.7583 78.7171C94.7267 77.6824 94.7176 76.0007 95.7379 74.9546L99.4277 71.1714C100.448 70.1253 102.106 70.116 103.138 71.1507C104.17 72.1855 104.179 73.8672 103.158 74.9133L99.4685 78.6965C98.957 79.2182 98.2867 79.4827 97.6176 79.4865Z" fill="#C8DB7F"/>
<path d="M105.079 86.9725C104.407 86.9763 103.734 86.7192 103.219 86.2032C102.188 85.1711 102.179 83.4868 103.199 82.4406L106.889 78.6548C107.909 77.6087 109.567 77.5994 110.599 78.6341C111.63 79.6662 111.64 81.3506 110.619 82.3967L106.929 86.1825C106.418 86.7043 105.75 86.9688 105.079 86.9725Z" fill="#C8DB7F"/>
<path d="M112.543 94.4572C111.871 94.4609 111.198 94.2039 110.683 93.6878C109.652 92.6531 109.643 90.9714 110.663 89.9253L114.353 86.1421C115.373 85.096 117.031 85.0867 118.063 86.1215C119.095 87.1562 119.104 88.8379 118.083 89.884L114.393 93.6672C113.885 94.1916 113.214 94.4534 112.543 94.4572Z" fill="#C8DB7F"/>
<path d="M120.004 101.941C119.332 101.944 118.659 101.687 118.144 101.171C117.113 100.137 117.104 98.4548 118.124 97.4087L121.814 93.6255C122.834 92.5794 124.492 92.5701 125.524 93.6049C126.556 94.6396 126.565 96.3213 125.544 97.3674L121.854 101.151C121.346 101.675 120.675 101.937 120.004 101.941Z" fill="#C8DB7F"/>
<path d="M20.1181 158.944C19.4463 158.948 18.7732 158.691 18.2587 158.175C17.2272 157.14 17.2181 155.459 18.2384 154.413L21.9282 150.629C22.9485 149.583 24.6069 149.574 25.6384 150.609C26.67 151.643 26.6791 153.325 25.6588 154.371L21.9689 158.154C21.4601 158.679 20.7898 158.941 20.1181 158.944Z" fill="#C8DB7F"/>
<path d="M27.5817 166.431C26.91 166.435 26.2368 166.177 25.7224 165.661C24.6908 164.627 24.6817 162.945 25.702 161.899L29.3918 158.116C30.4122 157.07 32.0705 157.06 33.1021 158.095C34.1336 159.13 34.1427 160.811 33.1224 161.858L29.4326 165.641C28.9211 166.165 28.2508 166.427 27.5817 166.431Z" fill="#C8DB7F"/>
<path d="M35.0429 173.918C34.3711 173.922 33.698 173.665 33.1835 173.149C32.152 172.114 32.1429 170.432 33.1632 169.386L36.853 165.603C37.8733 164.557 39.5317 164.548 40.5632 165.582C41.5948 166.617 41.6039 168.299 40.5836 169.345L36.8938 173.128C36.3823 173.65 35.712 173.914 35.0429 173.918Z" fill="#C8DB7F"/>
<path d="M42.5062 181.401C41.8345 181.405 41.1614 181.148 40.6469 180.632C39.6153 179.597 39.6062 177.916 40.6266 176.87L44.3164 173.086C45.3367 172.04 46.995 172.031 48.0266 173.066C49.0582 174.1 49.0673 175.782 48.047 176.828L44.3571 180.612C43.8457 181.133 43.178 181.398 42.5062 181.401Z" fill="#C8DB7F"/>
<path d="M75.4644 156.804C88.014 143.056 101.205 129.926 114.992 117.449L68.3179 94.978C55.7683 108.725 42.5778 121.856 28.7906 134.333L75.4644 156.804Z" fill="#F9D70B"/>
<path d="M73.8255 140.517C81.7958 140.473 88.2215 133.884 88.1778 125.802C88.134 117.719 81.6374 111.202 73.6671 111.247C65.6968 111.291 59.2711 117.879 59.3148 125.962C59.3585 134.045 65.8552 140.561 73.8255 140.517Z" fill="#FF7308"/>
</g>
<path d="M137.829 241.999L159.103 196.117L155.833 170.202C155.466 167.294 156.929 164.462 159.516 163.07L174.542 154.996L179.079 157.092L231.664 43.6823C232.77 41.2966 235.606 40.256 237.996 41.3598L335.367 86.3196C337.759 87.4243 338.8 90.2544 337.693 92.6405L285.108 206.05L292.021 209.242L295.046 213.861C296.597 216.233 296.349 219.349 294.44 221.446L275.713 241.999H137.829Z" fill="#3A6925"/>
<path d="M326.002 60.8765L228.633 15.9158C226.241 14.8115 223.406 15.8516 222.299 18.2383L142.766 189.768L248.795 238.727L328.328 67.1966C329.436 64.8099 328.393 61.9794 326.002 60.8765Z" fill="#5C3D31"/>
<path d="M252.993 33.1956L229.334 22.2706C228.032 21.6711 226.488 22.236 225.885 23.537L214.709 47.6424C214.106 48.9411 214.673 50.4824 215.975 51.0838L239.633 62.0064C240.936 62.6091 242.479 62.0419 243.082 60.7432L254.259 36.6378C254.862 35.3373 254.294 33.7969 252.993 33.1956Z" fill="#6F4534"/>
<path d="M246.197 36.3314L230.95 29.2907C229.937 28.8223 228.737 29.2634 228.268 30.2749L221.212 45.4896C220.744 46.5011 221.185 47.6992 222.198 48.1681L237.446 55.2083C238.457 55.6749 239.66 55.2356 240.128 54.2241L247.183 39.0093C247.652 37.9979 247.211 36.7984 246.197 36.3314Z" fill="#8E5F46"/>
<path d="M286.842 48.8263L262.686 37.6719C261.384 37.0706 259.84 37.6369 259.236 38.9369L248.06 63.0419C247.458 64.3424 248.025 65.8833 249.328 66.4837L273.483 77.6376C274.787 78.2398 276.331 77.6735 276.932 76.3748L288.11 52.269C288.713 50.9694 288.145 49.429 286.842 48.8263Z" fill="#6F4534"/>
<path d="M279.914 51.5853L264.666 44.5446C263.653 44.0762 262.452 44.5173 261.983 45.5274L254.928 60.7436C254.458 61.756 254.9 62.9536 255.914 63.4211L271.16 70.4618C272.174 70.9293 273.374 70.4895 273.843 69.4785L280.899 54.2624C281.368 53.2518 280.926 52.0528 279.914 51.5853Z" fill="#8E5F46"/>
<path d="M320.194 64.2266L296.537 53.3017C295.234 52.7004 293.69 53.2671 293.088 54.5667L281.91 78.6726C281.307 79.9722 281.874 81.5117 283.179 82.1149L306.835 93.0375C308.138 93.6397 309.682 93.073 310.284 91.7748L321.46 67.6689C322.064 66.3679 321.496 64.8266 320.194 64.2266Z" fill="#6F4534"/>
<path d="M313.444 67.3817L298.197 60.341C297.184 59.8735 295.984 60.3141 295.515 61.3261L288.458 76.5408C287.991 77.5523 288.432 78.75 289.444 79.2184L304.692 86.2581C305.704 86.7256 306.906 86.2859 307.375 85.274L314.43 70.0592C314.899 69.0477 314.458 67.8487 313.444 67.3817Z" fill="#8E5F46"/>
<path d="M237.329 66.975L213.672 56.0519C212.37 55.4505 210.825 56.0164 210.224 57.3164L199.277 80.9252C198.675 82.2239 199.242 83.7661 200.543 84.3666L224.201 95.2906C225.503 95.8928 227.047 95.3247 227.649 94.026L238.597 70.4172C239.199 69.1172 238.631 67.5763 237.329 66.975Z" fill="#6F4534"/>
<path d="M230.397 69.7446L215.151 62.7048C214.137 62.2364 212.935 62.6771 212.467 63.689L205.412 78.9051C204.942 79.9152 205.384 81.1129 206.396 81.5813L221.644 88.6206C222.656 89.089 223.858 88.6488 224.328 87.6387L231.383 72.4226C231.851 71.412 231.409 70.2121 230.397 69.7446Z" fill="#8E5F46"/>
<path d="M271.179 82.6065L247.023 71.4517C245.721 70.8495 244.177 71.4162 243.576 72.7149L232.628 96.3237C232.025 97.6237 232.592 99.1646 233.895 99.7668L258.052 110.92C259.352 111.523 260.899 110.954 261.501 109.656L272.448 86.047C273.05 84.7469 272.483 83.206 271.179 82.6065Z" fill="#6F4534"/>
<path d="M264.161 85.0357L248.916 77.995C247.902 77.5262 246.701 77.9677 246.233 78.9778L239.178 94.194C238.709 95.2041 239.15 96.4031 240.164 96.8701L255.411 103.911C256.423 104.38 257.625 103.938 258.092 102.928L265.147 87.7109C265.617 86.7013 265.175 85.5018 264.161 85.0357Z" fill="#8E5F46"/>
<path d="M304.532 98.0055L280.874 87.082C279.571 86.4811 278.027 87.0465 277.425 88.3452L266.477 111.954C265.876 113.254 266.442 114.795 267.744 115.397L291.402 126.321C292.705 126.922 294.25 126.355 294.852 125.056L305.8 101.448C306.401 100.147 305.833 98.6069 304.532 98.0055Z" fill="#6F4534"/>
<path d="M297.638 100.781L282.39 93.7403C281.376 93.2733 280.176 93.713 279.707 94.7236L272.653 109.939C272.183 110.95 272.624 112.15 273.638 112.617L288.885 119.657C289.898 120.125 291.1 119.686 291.569 118.675L298.622 103.458C299.092 102.447 298.65 101.249 297.638 100.781Z" fill="#8E5F46"/>
<path d="M221.897 100.256L198.241 89.3337C196.938 88.7328 195.393 89.2995 194.792 90.5982L183.614 114.704C183.013 116.004 183.579 117.545 184.882 118.145L208.538 129.069C209.841 129.671 211.385 129.105 211.988 127.804L223.164 103.699C223.767 102.4 223.199 100.858 221.897 100.256Z" fill="#6F4534"/>
<path d="M215.138 103.433L199.892 96.3932C198.877 95.9248 197.677 96.3659 197.207 97.3769L190.154 112.593C189.685 113.604 190.125 114.802 191.139 115.271L206.385 122.309C207.399 122.778 208.599 122.338 209.069 121.327L216.124 106.112C216.591 105.1 216.152 103.901 215.138 103.433Z" fill="#8E5F46"/>
<path d="M255.749 115.888L231.591 104.733C230.289 104.132 228.745 104.7 228.143 105.998L216.966 130.104C216.363 131.404 216.93 132.943 218.233 133.545L242.389 144.699C243.692 145.301 245.236 144.735 245.839 143.436L257.015 119.33C257.618 118.03 257.05 116.49 255.749 115.888Z" fill="#6F4534"/>
<path d="M248.849 118.673L233.601 111.633C232.589 111.166 231.387 111.606 230.917 112.618L223.864 127.833C223.395 128.842 223.837 130.043 224.848 130.51L240.097 137.55C241.109 138.018 242.311 137.578 242.78 136.566L249.835 121.351C250.303 120.34 249.862 119.142 248.849 118.673Z" fill="#8E5F46"/>
<path d="M289.1 131.288L265.442 120.364C264.14 119.763 262.595 120.329 261.992 121.629L250.816 145.734C250.213 147.033 250.781 148.574 252.084 149.176L275.739 160.1C277.043 160.701 278.587 160.136 279.189 158.835L290.367 134.73C290.969 133.431 290.401 131.888 289.1 131.288Z" fill="#6F4534"/>
<path d="M282.351 134.444L267.102 127.403C266.089 126.934 264.889 127.376 264.419 128.387L257.365 143.603C256.896 144.613 257.337 145.812 258.35 146.28L273.597 153.32C274.61 153.787 275.812 153.348 276.28 152.336L283.335 137.121C283.804 136.11 283.362 134.91 282.351 134.444Z" fill="#8E5F46"/>
<path d="M206.235 134.037L182.578 123.114C181.277 122.512 179.732 123.078 179.13 124.379L168.182 147.986C167.58 149.286 168.147 150.828 169.448 151.428L193.106 162.353C194.408 162.954 195.953 162.387 196.556 161.087L207.502 137.48C208.104 136.179 207.538 134.638 206.235 134.037Z" fill="#6F4534"/>
<path d="M199.323 136.851L184.075 129.811C183.063 129.343 181.861 129.784 181.392 130.795L174.337 146.012C173.868 147.023 174.31 148.221 175.323 148.689L190.57 155.73C191.584 156.197 192.784 155.757 193.253 154.746L200.308 139.529C200.776 138.519 200.335 137.32 199.323 136.851Z" fill="#8E5F46"/>
<path d="M240.086 149.668L215.929 138.515C214.626 137.912 213.083 138.477 212.481 139.779L201.533 163.386C200.932 164.686 201.497 166.227 202.801 166.828L226.957 177.983C228.259 178.584 229.804 178.017 230.406 176.718L241.353 153.11C241.955 151.809 241.387 150.269 240.086 149.668Z" fill="#6F4534"/>
<path d="M233.059 152.115L217.812 145.077C216.798 144.609 215.597 145.048 215.128 146.06L208.072 161.275C207.605 162.286 208.046 163.486 209.059 163.954L224.306 170.993C225.318 171.461 226.52 171.021 226.989 170.01L234.045 154.795C234.514 153.782 234.071 152.585 233.059 152.115Z" fill="#8E5F46"/>
<path d="M273.437 165.067L249.779 154.144C248.476 153.542 246.932 154.107 246.33 155.408L235.384 179.016C234.781 180.316 235.348 181.857 236.651 182.458L260.307 193.383C261.61 193.984 263.154 193.417 263.757 192.119L274.704 168.51C275.307 167.21 274.738 165.669 273.437 165.067Z" fill="#6F4534"/>
<path d="M266.553 167.86L251.306 160.82C250.293 160.351 249.092 160.793 248.623 161.803L241.567 177.019C241.1 178.029 241.54 179.228 242.554 179.697L257.801 186.737C258.813 187.204 260.016 186.762 260.483 185.753L267.539 170.536C268.008 169.526 267.566 168.327 266.553 167.86Z" fill="#8E5F46"/>
<path d="M118.873 237.238C118.159 238.777 117.836 240.402 117.865 241.998H252.044L279.668 182.419L168.163 130.933L118.873 237.238Z" fill="#FF7308"/>
<path d="M150.219 137.628C147.633 139.018 146.171 141.85 146.537 144.758L149.806 170.673L168.232 130.933L165.246 129.554L150.219 137.628Z" fill="#FF8B33"/>
<path d="M285.542 188.453L282.518 183.833L279.531 182.454L261.104 222.194L284.937 196.036C286.847 193.941 287.095 190.823 285.542 188.453Z" fill="#FF8B33"/>
<path d="M219.125 233.397C221.203 237.396 226.559 238.263 229.795 235.12L282.655 183.798L165.177 129.554L219.125 233.397Z" fill="#FF913D"/>
<defs>
<clipPath id="clip0">
<rect width="107" height="107" fill="white" transform="translate(374.683 83) rotate(25.8673)"/>
</clipPath>
<clipPath id="clip1">
<rect width="143" height="143" fill="white" transform="translate(0 54.7852) rotate(-0.314445)"/>
</clipPath>
</defs>
</svg>
