 <svg width="80" height="114" viewBox="0 0 80 114" fill="none" xmlns="http://www.w3.org/2000/svg">
                  <path d="M62.3532 25.679L62.6715 25.0055L42.3118 14.834L41.9893 15.5163C40.6576 16.95 37.7511 16.4162 35.9074 20.3169L31.2042 30.2681C29.2355 34.4335 31.1991 39.5879 35.5886 41.7809L43.6809 45.8237L46.2199 47.0921C50.6101 49.2855 55.7647 47.6864 57.7331 43.5217L62.436 33.5711C64.2829 29.6636 62.0643 27.6479 62.3532 25.679Z" fill="#3A6925"/>
                  <path d="M35.3001 33.4066C34.8906 33.2042 34.7081 32.7299 34.8918 32.3456L39.7497 22.1791C40.8735 19.8272 42.3959 18.9054 43.5969 18.365C43.9927 18.1861 44.4839 18.3611 44.6932 18.7584C44.9034 19.1536 44.7515 19.6189 44.3553 19.7968C43.3242 20.2613 42.1468 20.9937 41.2305 22.9112L36.3726 33.0777C36.1889 33.462 35.7095 33.6091 35.3001 33.4066Z" fill="#3A6925"/>
                  <path d="M56.1722 44.3021L44.7293 38.5851L50.1976 27.0146L61.9792 32.9008C62.2073 33.0148 62.3094 33.2828 62.2071 33.4993L57.2614 43.9637C57.0752 44.3578 56.5876 44.5096 56.1722 44.3021Z" fill="#3A6925"/>
                  <path d="M57.1562 37.0629L50.7048 33.8441L52.918 29.168L59.7066 32.555C59.9334 32.6681 60.0349 32.9342 59.9332 33.1491L58.2397 36.7273C58.0535 37.1189 57.5691 37.2689 57.1562 37.0629Z" fill="#3A6925"/>
                  <path d="M59.1237 38.0473L52.6724 34.8285L54.8855 30.1523L61.6742 33.5394C61.9009 33.6525 62.0024 33.9186 61.9007 34.1335L60.2072 37.7117C60.021 38.1032 59.5366 38.2533 59.1237 38.0473Z" fill="#3A6925"/>
                  <path d="M63.7989 24.7073L42.0765 13.9668C41.258 13.5621 40.8922 12.6115 41.259 11.8438L42.7786 8.66287C43.1454 7.89513 44.1061 7.6004 44.9246 8.0051L66.6471 18.7456C67.4648 19.1499 67.8306 20.1005 67.4638 20.8682L65.9442 24.0492C65.5774 24.8169 64.6167 25.1116 63.7989 24.7073Z" fill="#3A6925"/>
                  <path d="M60.7134 21.7454L61.0317 21.0719L40.672 10.9004L40.3495 11.5827C39.0178 13.0164 36.1113 12.4826 34.2677 16.3833L29.5644 26.3345C27.5957 30.4999 29.5593 35.6543 33.9489 37.8473L42.0411 41.8901L44.5801 43.1585C48.9704 45.3519 54.125 43.7528 56.0933 39.5881L60.7963 29.6375C62.6431 25.73 60.4245 23.7143 60.7134 21.7454Z" fill="#6A3311"/>
                  <path d="M33.6603 29.473C33.2509 29.2706 33.0684 28.7963 33.252 28.412L38.1099 18.2455C39.2337 15.8936 40.7562 14.9718 41.9571 14.4314C42.3529 14.2525 42.8441 14.4275 43.0534 14.8248C43.2636 15.22 43.1117 15.6853 42.7155 15.8632C41.6844 16.3277 40.507 17.0601 39.5907 18.9776L34.7328 29.1441C34.5492 29.5284 34.0698 29.6755 33.6603 29.473Z" fill="#A46F3E"/>
                  <path d="M54.5325 40.3685L43.0895 34.6515L48.5579 23.0811L60.3394 28.9672C60.5675 29.0812 60.6696 29.3492 60.5673 29.5657L55.6217 40.0301C55.4354 40.4242 54.9478 40.576 54.5325 40.3685Z" fill="white"/>
                  <path d="M55.5163 33.1293L49.0649 29.9105L51.2781 25.2344L58.0668 28.6214C58.2935 28.7345 58.395 29.0006 58.2933 29.2155L56.5998 32.7937C56.4136 33.1853 55.9292 33.3353 55.5163 33.1293Z" fill="#4E4E4E"/>
                  <path d="M57.4843 34.1137L51.033 30.8949L53.2461 26.2188L60.0348 29.6058C60.2615 29.7189 60.363 29.985 60.2613 30.1999L58.5678 33.7781C58.3816 34.1696 57.8972 34.3197 57.4843 34.1137Z" fill="#E22F37"/>
                  <path d="M62.1591 20.7737L40.4367 10.0332C39.6182 9.62855 39.2524 8.67793 39.6192 7.91019L41.1388 4.72928C41.5056 3.96154 42.4664 3.66681 43.2848 4.0715L65.0073 14.812C65.8251 15.2163 66.1909 16.1669 65.8241 16.9347L64.3044 20.1156C63.9376 20.8833 62.9769 21.178 62.1591 20.7737Z" fill="#E6E6E6"/>
                  <g clip-path="url(#clip0)">
                    <path d="M32.9228 83.2303L35.5035 82.1073C35.8029 81.9767 35.9962 81.6806 35.9944 81.3537L35.9873 80.0681C35.9848 79.6174 35.6174 79.2533 35.166 79.2558L34.158 79.2613C33.7073 79.2638 33.3392 78.9003 33.3367 78.449L33.3312 77.441C33.3287 76.9903 32.9613 76.6262 32.5099 76.6287L31.502 76.6342C31.0512 76.6367 30.6831 76.2732 30.6807 75.8219L30.6751 74.8139C30.6726 74.3632 30.3052 73.9991 29.8538 74.0016L28.8459 74.0071C28.3951 74.0096 28.027 73.6461 28.0246 73.1948L28.019 72.1874C28.0172 71.7361 27.6497 71.3726 27.1984 71.3751L25.9121 71.3822C25.5853 71.3839 25.2912 71.5804 25.164 71.8812L24.07 74.4741C18.5436 81.2397 12.3867 87.4646 5.6822 93.0649L3.08222 94.1961C2.79402 94.3216 2.60881 94.6058 2.61053 94.9196L2.61788 96.26C2.62026 96.6933 2.97332 97.0426 3.40664 97.0402L4.47996 97.0343C4.91327 97.0319 5.26633 97.3811 5.26871 97.8144L5.2746 98.8877C5.27698 99.3211 5.63004 99.6703 6.06335 99.6679L7.13667 99.662C7.56999 99.6596 7.92305 100.009 7.92543 100.442L7.93132 101.515C7.93369 101.949 8.28676 102.298 8.72007 102.296L9.79339 102.29C10.2267 102.287 10.5798 102.637 10.5821 103.07L10.588 104.143C10.5904 104.576 10.9435 104.926 11.3768 104.923L12.7172 104.916C13.031 104.914 13.3132 104.726 13.4355 104.437L14.5381 101.825C20.0614 95.0561 26.2189 88.8306 32.9228 83.2303Z" fill="#3A6925"/>
                    <path d="M25.4066 77.2892C25.2472 77.2901 25.0875 77.2299 24.9655 77.1092C24.7207 76.8671 24.7185 76.4736 24.9606 76.2289L25.8361 75.3437C26.0782 75.099 26.4717 75.0968 26.7164 75.3389C26.9612 75.581 26.9634 75.9745 26.7213 76.2192L25.8458 77.1044C25.7244 77.2264 25.5654 77.2883 25.4066 77.2892Z" fill="#3A6925"/>
                    <path d="M27.177 79.0408C27.0176 79.0417 26.8579 78.9815 26.7358 78.8608C26.4911 78.6193 26.4889 78.2252 26.731 77.9805L27.6065 77.0947C27.8486 76.8499 28.2421 76.8478 28.4868 77.0899C28.7316 77.3313 28.7337 77.7254 28.4917 77.9702L27.6162 78.856C27.4948 78.978 27.3364 79.0399 27.177 79.0408Z" fill="#3A6925"/>
                    <path d="M28.9479 80.7921C28.7885 80.793 28.6288 80.7329 28.5067 80.6121C28.2619 80.37 28.2598 79.9766 28.5019 79.7318L29.3774 78.8467C29.6195 78.6019 30.0129 78.5997 30.2577 78.8418C30.5025 79.0839 30.5046 79.4774 30.2625 79.7222L29.387 80.6073C29.2663 80.73 29.1073 80.7913 28.9479 80.7921Z" fill="#3A6925"/>
                    <path d="M30.7181 82.5441C30.5588 82.545 30.399 82.4848 30.277 82.3641C30.0322 82.122 30.0301 81.7285 30.2721 81.4838L31.1476 80.5986C31.3897 80.3538 31.7832 80.3517 32.028 80.5938C32.2727 80.8359 32.2749 81.2293 32.0328 81.4741L31.1573 82.3593C31.0366 82.482 30.8775 82.5432 30.7181 82.5441Z" fill="#3A6925"/>
                    <path d="M7.01819 95.881C6.85881 95.8819 6.69909 95.8217 6.57702 95.701C6.33226 95.4589 6.3301 95.0654 6.57219 94.8207L7.44768 93.9355C7.68978 93.6908 8.08324 93.6886 8.32801 93.9307C8.57277 94.1728 8.57493 94.5663 8.33284 94.811L7.45735 95.6962C7.33661 95.8189 7.17757 95.8801 7.01819 95.881Z" fill="#3A6925"/>
                    <path d="M8.78918 97.632C8.6298 97.6329 8.47009 97.5727 8.34802 97.452C8.10326 97.2099 8.1011 96.8164 8.34319 96.5717L9.21868 95.6865C9.46077 95.4417 9.85424 95.4396 10.099 95.6817C10.3438 95.9238 10.3459 96.3172 10.1038 96.562L9.22834 97.4471C9.10699 97.5698 8.94794 97.6311 8.78918 97.632Z" fill="#3A6925"/>
                    <path d="M10.5594 99.3839C10.4001 99.3848 10.2404 99.3247 10.1183 99.2039C9.87352 98.9618 9.87136 98.5684 10.1135 98.3236L10.9889 97.4385C11.231 97.1937 11.6245 97.1915 11.8693 97.4336C12.114 97.6757 12.1162 98.0692 11.8741 98.3139L10.9986 99.1991C10.8772 99.3212 10.7182 99.3831 10.5594 99.3839Z" fill="#3A6925"/>
                    <path d="M12.3303 101.136C12.1709 101.137 12.0112 101.077 11.8892 100.956C11.6444 100.714 11.6422 100.32 11.8843 100.076L12.7598 99.1904C13.0019 98.9456 13.3954 98.9435 13.6401 99.1856C13.8849 99.4277 13.8871 99.8211 13.645 100.066L12.7695 100.951C12.6481 101.073 12.4897 101.135 12.3303 101.136Z" fill="#3A6925"/>
                    <path d="M20.1503 95.3805C23.128 92.164 26.2577 89.0917 29.529 86.1725L18.4547 80.915C15.477 84.1315 12.3473 87.2038 9.07601 90.123L20.1503 95.3805Z" fill="#3A6925"/>
                    <path d="M19.7613 91.5688C21.6524 91.5584 23.1771 90.017 23.1667 88.1258C23.1563 86.2347 21.6149 84.7101 19.7237 84.7205C17.8326 84.7308 16.308 86.2723 16.3184 88.1634C16.3287 90.0545 17.8702 91.5792 19.7613 91.5688Z" fill="#3A6925"/>
                  </g>
                  <g clip-path="url(#clip1)">
                    <path d="M30.2516 81.9187L32.7964 80.7957C33.0916 80.6652 33.2822 80.369 33.2804 80.0422L33.2734 78.7566C33.271 78.3058 32.9087 77.9418 32.4636 77.9442L31.4696 77.9498C31.0252 77.9522 30.6622 77.5888 30.6598 77.1374L30.6543 76.1295C30.6519 75.6787 30.2895 75.3147 29.8444 75.3171L28.8505 75.3227C28.406 75.3251 28.0431 74.9617 28.0406 74.5103L28.0352 73.5024C28.0327 73.0516 27.6704 72.6876 27.2253 72.69L26.2313 72.6956C25.7869 72.6981 25.4239 72.3346 25.4215 71.8832L25.416 70.8759C25.4142 70.4245 25.0518 70.0611 24.6067 70.0636L23.3384 70.0706C23.0161 70.0724 22.7261 70.2689 22.6007 70.5697L21.5219 73.1626C16.0724 79.9282 10.0011 86.153 3.38988 91.7533L0.826068 92.8845C0.541881 93.01 0.359239 93.2943 0.360938 93.6081L0.368192 94.9485C0.370537 95.3818 0.718686 95.731 1.14597 95.7286L2.20436 95.7228C2.63165 95.7204 2.9798 96.0696 2.98214 96.5029L2.98795 97.5762C2.9903 98.0095 3.33845 98.3587 3.76573 98.3564L4.82413 98.3505C5.25141 98.3481 5.59956 98.6973 5.60191 99.1306L5.60772 100.204C5.61006 100.637 5.95821 100.986 6.3855 100.984L7.44389 100.978C7.87117 100.976 8.21932 101.325 8.22167 101.758L8.22748 102.832C8.22982 103.265 8.57797 103.614 9.00526 103.612L10.327 103.604C10.6364 103.603 10.9148 103.414 11.0354 103.125L12.1226 100.513C17.5691 93.7446 23.6409 87.519 30.2516 81.9187Z" fill="#9CB538"/>
                    <path d="M22.8396 75.9777C22.6824 75.9786 22.5249 75.9184 22.4045 75.7977C22.1632 75.5556 22.161 75.1621 22.3998 74.9174L23.2631 74.0322C23.5018 73.7874 23.8898 73.7853 24.1312 74.0274C24.3725 74.2695 24.3746 74.6629 24.1359 74.9077L23.2726 75.7929C23.1529 75.9149 22.9961 75.9768 22.8396 75.9777Z" fill="#C8DB7F"/>
                    <path d="M24.5853 77.7283C24.4281 77.7292 24.2706 77.669 24.1503 77.5483C23.9089 77.3068 23.9068 76.9127 24.1455 76.668L25.0088 75.7822C25.2475 75.5374 25.6355 75.5353 25.8769 75.7774C26.1182 76.0188 26.1204 76.4129 25.8817 76.6577L25.0183 77.5435C24.8987 77.6655 24.7425 77.7274 24.5853 77.7283Z" fill="#C8DB7F"/>
                    <path d="M26.3315 79.4796C26.1743 79.4805 26.0169 79.4204 25.8965 79.2996C25.6551 79.0575 25.653 78.6641 25.8917 78.4193L26.755 77.5342C26.9938 77.2894 27.3817 77.2872 27.6231 77.5293C27.8645 77.7714 27.8666 78.1649 27.6279 78.4097L26.7646 79.2948C26.6455 79.4175 26.4887 79.4788 26.3315 79.4796Z" fill="#C8DB7F"/>
                    <path d="M28.0772 81.2306C27.9201 81.2315 27.7626 81.1714 27.6422 81.0506C27.4008 80.8085 27.3987 80.4151 27.6374 80.1703L28.5008 79.2851C28.7395 79.0404 29.1275 79.0382 29.3688 79.2803C29.6102 79.5224 29.6123 79.9159 29.3736 80.1606L28.5103 81.0458C28.3912 81.1685 28.2344 81.2297 28.0772 81.2306Z" fill="#C8DB7F"/>
                    <path d="M4.70699 94.5685C4.54983 94.5694 4.39234 94.5092 4.27197 94.3885C4.03061 94.1464 4.02848 93.7529 4.2672 93.5082L5.13052 92.623C5.36924 92.3783 5.75724 92.3761 5.9986 92.6182C6.23996 92.8603 6.24209 93.2538 6.00336 93.4985L5.14005 94.3837C5.02099 94.5064 4.86416 94.5676 4.70699 94.5685Z" fill="#C8DB7F"/>
                    <path d="M6.45321 96.3195C6.29605 96.3204 6.13856 96.2602 6.01818 96.1395C5.77683 95.8974 5.7747 95.5039 6.01342 95.2592L6.87673 94.374C7.11546 94.1292 7.50345 94.1271 7.74481 94.3692C7.98617 94.6113 7.9883 95.0047 7.74958 95.2495L6.88626 96.1346C6.7666 96.2573 6.60976 96.3186 6.45321 96.3195Z" fill="#C8DB7F"/>
                    <path d="M8.19882 98.0714C8.04165 98.0723 7.88416 98.0122 7.76379 97.8914C7.52243 97.6493 7.5203 97.2559 7.75903 97.0111L8.62234 96.126C8.86106 95.8812 9.24906 95.879 9.49042 96.1211C9.73178 96.3632 9.73391 96.7567 9.49518 97.0014L8.63187 97.8866C8.5122 98.0087 8.35536 98.0706 8.19882 98.0714Z" fill="#C8DB7F"/>
                    <path d="M9.94528 99.8224C9.78811 99.8233 9.63062 99.7631 9.51025 99.6424C9.26889 99.4003 9.26676 99.0068 9.50549 98.7621L10.3688 97.8769C10.6075 97.6322 10.9955 97.63 11.2369 97.8721C11.4782 98.1142 11.4804 98.5077 11.2416 98.7524L10.3783 99.6376C10.2587 99.7596 10.1024 99.8215 9.94528 99.8224Z" fill="#C8DB7F"/>
                    <path d="M17.6565 94.067C20.5927 90.8505 23.6789 87.7783 26.9047 84.859L15.9844 79.6016C13.0482 82.8181 9.96198 85.8903 6.7362 88.8096L17.6565 94.067Z" fill="#F9D70B"/>
                    <path d="M17.273 90.2563C19.1378 90.2459 20.6412 88.7045 20.631 86.8133C20.6208 84.9222 19.1007 83.3976 17.2359 83.408C15.3711 83.4183 13.8677 84.9598 13.8779 86.8509C13.8881 88.742 15.4082 90.2667 17.273 90.2563Z" fill="#FF7308"/>
                  </g>
                  <path d="M32.2479 114L37.2255 103.265L36.4603 97.2015C36.3745 96.5212 36.7169 95.8584 37.322 95.533L40.8377 93.6439L41.8992 94.1341L54.2026 67.5997C54.4613 67.0415 55.1249 66.798 55.6841 67.0563L78.4661 77.5755C79.0256 77.834 79.2692 78.4962 79.0103 79.0545L66.707 105.589L68.3243 106.336L69.0322 107.417C69.3949 107.971 69.337 108.701 68.8902 109.191L64.5087 114H32.2479Z" fill="#3A6925"/>
                  <path d="M76.2748 71.6227L53.4934 61.1032C52.9336 60.8449 52.2704 61.0882 52.0114 61.6466L33.4031 101.78L58.2107 113.234L76.819 73.1014C77.0782 72.543 76.8343 71.8808 76.2748 71.6227Z" fill="#5C3D31"/>
                  <path d="M59.1929 65.1463L53.6575 62.5902C53.3529 62.4499 52.9916 62.5821 52.8505 62.8865L50.2357 68.5264C50.0947 68.8303 50.2273 69.1909 50.5318 69.3316L56.0671 71.8872C56.3719 72.0282 56.733 71.8955 56.874 71.5916L59.4893 65.9517C59.6302 65.6474 59.4975 65.287 59.1929 65.1463Z" fill="#6F4534"/>
                  <path d="M57.603 65.8796L54.0356 64.2323C53.7985 64.1227 53.5177 64.2259 53.408 64.4625L51.7573 68.0223C51.6477 68.259 51.7508 68.5393 51.9879 68.649L55.5553 70.2962C55.792 70.4054 56.0734 70.3026 56.183 70.066L57.8337 66.5061C57.9434 66.2695 57.8402 65.9889 57.603 65.8796Z" fill="#8E5F46"/>
                  <path d="M67.1127 68.8027L61.4609 66.1929C61.1562 66.0522 60.7951 66.1847 60.6538 66.4889L58.0388 72.1288C57.898 72.433 58.0305 72.7936 58.3354 72.934L63.9871 75.5437C64.2921 75.6846 64.6533 75.5521 64.794 75.2483L67.4092 69.6082C67.5503 69.3041 67.4175 68.9437 67.1127 68.8027Z" fill="#6F4534"/>
                  <path d="M65.4917 69.4489L61.924 67.8016C61.687 67.692 61.406 67.7952 61.2963 68.0316L59.6456 71.5917C59.5357 71.8286 59.6392 72.1088 59.8763 72.2181L63.4435 73.8655C63.6807 73.9748 63.9615 73.872 64.0713 73.6354L65.722 70.0753C65.832 69.8388 65.7284 69.5583 65.4917 69.4489Z" fill="#8E5F46"/>
                  <path d="M74.9158 72.4072L69.3809 69.8511C69.076 69.7104 68.7148 69.843 68.5738 70.1471L65.9584 75.7872C65.8175 76.0912 65.9501 76.4514 66.2554 76.5925L71.7902 79.1481C72.0951 79.289 72.4563 79.1564 72.5973 78.8527L75.2122 73.2126C75.3534 72.9082 75.2206 72.5476 74.9158 72.4072Z" fill="#6F4534"/>
                  <path d="M73.3366 73.1451L69.7694 71.4978C69.5323 71.3884 69.2515 71.4915 69.1418 71.7283L67.4908 75.2881C67.3814 75.5247 67.4846 75.8049 67.7213 75.9145L71.2889 77.5616C71.5258 77.671 71.8069 77.5681 71.9168 77.3314L73.5675 73.7716C73.6772 73.5349 73.5739 73.2544 73.3366 73.1451Z" fill="#8E5F46"/>
                  <path d="M55.528 73.0494L49.9929 70.4937C49.6882 70.353 49.3268 70.4854 49.1863 70.7896L46.625 76.3134C46.484 76.6172 46.6166 76.9781 46.921 77.1185L52.4563 79.6744C52.7611 79.8153 53.1224 79.6824 53.2631 79.3786L55.8246 73.8548C55.9656 73.5506 55.8327 73.1901 55.528 73.0494Z" fill="#6F4534"/>
                  <path d="M53.9062 73.6977L50.339 72.0506C50.1019 71.9411 49.8206 72.0442 49.711 72.2809L48.0604 75.841C47.9506 76.0774 48.0539 76.3576 48.2907 76.4672L51.8584 78.1142C52.0951 78.2238 52.3763 78.1208 52.4862 77.8844L54.137 74.3243C54.2464 74.0879 54.1431 73.8071 53.9062 73.6977Z" fill="#8E5F46"/>
                  <path d="M63.448 76.7063L57.7962 74.0964C57.4916 73.9555 57.1303 74.0881 56.9896 74.3919L54.4282 79.9157C54.2872 80.2199 54.4199 80.5804 54.7247 80.7213L60.3766 83.3309C60.6808 83.4718 61.0426 83.3388 61.1836 83.035L63.7448 77.5112C63.8857 77.2071 63.753 76.8465 63.448 76.7063Z" fill="#6F4534"/>
                  <path d="M61.8061 77.2751L58.2391 75.6278C58.0019 75.5181 57.7208 75.6214 57.6114 75.8578L55.9608 79.4179C55.851 79.6542 55.9543 79.9348 56.1914 80.044L59.7588 81.6914C59.9955 81.8011 60.2768 81.6976 60.3861 81.4614L62.0368 77.9011C62.1467 77.6648 62.0432 77.3842 61.8061 77.2751Z" fill="#8E5F46"/>
                  <path d="M71.2515 80.3093L65.7164 77.7535C65.4115 77.6129 65.0502 77.7452 64.9093 78.049L62.3479 83.5728C62.2071 83.8769 62.3396 84.2375 62.6444 84.3784L68.1796 86.9343C68.4844 87.0747 68.8458 86.9421 68.9868 86.6383L71.5481 81.1146C71.6889 80.8104 71.556 80.4499 71.2515 80.3093Z" fill="#6F4534"/>
                  <path d="M69.6385 80.9594L66.0709 79.3122C65.8338 79.2029 65.553 79.3058 65.4432 79.5423L63.7927 83.1023C63.6828 83.3388 63.7861 83.6195 64.0233 83.7289L67.5905 85.376C67.8276 85.4855 68.1089 85.3828 68.2187 85.1461L69.8689 81.5859C69.9787 81.3492 69.8753 81.069 69.6385 80.9594Z" fill="#8E5F46"/>
                  <path d="M51.9173 80.8363L46.3824 78.2807C46.0776 78.1402 45.7162 78.2728 45.5755 78.5766L42.9603 84.2166C42.8195 84.5209 42.952 84.8814 43.2568 85.0216L48.7916 87.5778C49.0965 87.7184 49.4577 87.5861 49.5989 87.2818L52.2138 81.6418C52.3548 81.338 52.222 80.977 51.9173 80.8363Z" fill="#6F4534"/>
                  <path d="M50.336 81.5795L46.7689 79.9325C46.5314 79.8229 46.2506 79.9261 46.1407 80.1626L44.4905 83.7226C44.3807 83.9593 44.4837 84.2395 44.7208 84.3493L48.288 85.9961C48.5253 86.1057 48.8061 86.0028 48.916 85.7662L50.5668 82.2063C50.676 81.9697 50.5733 81.689 50.336 81.5795Z" fill="#8E5F46"/>
                  <path d="M59.8377 84.4942L54.1856 81.8843C53.881 81.7435 53.5197 81.8765 53.3789 82.1802L50.7636 87.8203C50.6226 88.1246 50.7553 88.4846 51.0601 88.6253L56.7118 91.2351C57.0167 91.376 57.3781 91.2434 57.5191 90.9397L60.134 85.2996C60.275 84.9953 60.1422 84.6349 59.8377 84.4942Z" fill="#6F4534"/>
                  <path d="M58.2234 85.146L54.6559 83.4987C54.4191 83.3894 54.138 83.4924 54.028 83.7292L52.3777 87.289C52.268 87.5252 52.3713 87.8062 52.608 87.9155L56.1758 89.5626C56.4126 89.6721 56.6937 89.5691 56.8034 89.3323L58.4541 85.7725C58.5637 85.5359 58.4606 85.2556 58.2234 85.146Z" fill="#8E5F46"/>
                  <path d="M67.6408 88.0965L62.1055 85.5406C61.8008 85.3999 61.4394 85.5323 61.2984 85.8365L58.6835 91.4764C58.5423 91.7803 58.6752 92.1408 58.9801 92.2816L64.5148 94.8376C64.8197 94.9782 65.181 94.8459 65.322 94.5416L67.9372 88.9017C68.0781 88.5978 67.9451 88.2369 67.6408 88.0965Z" fill="#6F4534"/>
                  <path d="M66.0619 88.8347L62.4942 87.1874C62.2571 87.0777 61.9763 87.181 61.8665 87.4176L60.2159 90.9776C60.1063 91.214 60.2094 91.4944 60.4464 91.6039L64.0137 93.2512C64.2508 93.3604 64.5321 93.2576 64.6416 93.021L66.2923 89.4612C66.402 89.2245 66.2986 88.9438 66.0619 88.8347Z" fill="#8E5F46"/>
                  <path d="M48.2529 88.7399L42.7178 86.1843C42.4135 86.0433 42.0521 86.1759 41.9111 86.4802L39.3498 92.0036C39.2089 92.3077 39.3414 92.6685 39.6458 92.8089L45.1811 95.3651C45.4859 95.5058 45.8473 95.3729 45.9884 95.0688L48.5494 89.5454C48.6904 89.2412 48.5578 88.8805 48.2529 88.7399Z" fill="#6F4534"/>
                  <path d="M46.6357 89.399L43.0682 87.7517C42.8314 87.6423 42.55 87.7454 42.4404 87.9821L40.7897 91.5423C40.68 91.7788 40.7833 92.0592 41.0204 92.1688L44.5878 93.816C44.8249 93.9252 45.1057 93.8224 45.2154 93.5857L46.8662 90.0255C46.9757 89.7891 46.8726 89.5086 46.6357 89.399Z" fill="#8E5F46"/>
                  <path d="M56.1732 92.3973L50.5211 89.7879C50.2164 89.647 49.8553 89.779 49.7143 90.0836L47.1529 95.6071C47.0122 95.9112 47.1446 96.2718 47.4495 96.4124L53.1013 99.0223C53.406 99.1628 53.7674 99.0302 53.9084 98.7264L56.4697 93.2027C56.6105 92.8984 56.4776 92.538 56.1732 92.3973Z" fill="#6F4534"/>
                  <path d="M54.529 92.9699L50.9616 91.3231C50.7244 91.2136 50.4435 91.3164 50.3337 91.5531L48.6829 95.1129C48.5736 95.3496 48.6766 95.6302 48.9138 95.7398L52.4811 97.3868C52.7178 97.4963 52.999 97.3932 53.1089 97.1566L54.7597 93.5968C54.8694 93.3599 54.7659 93.0797 54.529 92.9699Z" fill="#8E5F46"/>
                  <path d="M63.9762 95.9997L58.441 93.4441C58.1361 93.3032 57.775 93.4354 57.634 93.7396L55.0729 99.2633C54.9318 99.5676 55.0646 99.9281 55.3695 100.069L60.9043 102.625C61.2091 102.765 61.5704 102.633 61.7115 102.329L64.2728 96.8053C64.4138 96.501 64.2807 96.1405 63.9762 95.9997Z" fill="#6F4534"/>
                  <path d="M62.3656 96.6539L58.7982 95.0068C58.5612 94.8971 58.2803 95.0003 58.1705 95.2366L56.5197 98.7968C56.4104 99.0331 56.5133 99.3137 56.7505 99.4233L60.3178 101.071C60.5546 101.18 60.8362 101.076 60.9455 100.84L62.5962 97.28C62.7061 97.0437 62.6026 96.7631 62.3656 96.6539Z" fill="#8E5F46"/>
                  <path d="M27.8127 112.886C27.6457 113.246 27.5703 113.626 27.5771 114H58.9709L65.4342 100.06L39.3453 88.0137L27.8127 112.886Z" fill="#FF7308"/>
                  <path d="M35.1468 89.5795C34.5417 89.9048 34.1997 90.5674 34.2854 91.2478L35.0503 97.3111L39.3614 88.0131L38.6627 87.6904L35.1468 89.5795Z" fill="#FF8B33"/>
                  <path d="M66.8087 101.472L66.101 100.391L65.4022 100.068L61.0908 109.366L66.667 103.246C67.1138 102.756 67.172 102.026 66.8087 101.472Z" fill="#FF8B33"/>
                  <path d="M51.2689 111.987C51.7551 112.922 53.0084 113.125 53.7654 112.39L66.133 100.382L38.6466 87.6904L51.2689 111.987Z" fill="#FF913D"/>
                  <defs>
                    <clipPath id="clip0">
                      <rect width="33.4578" height="33.4578" fill="white" transform="translate(2.48206 71.5107) rotate(-0.314445)"/>
                    </clipPath>
                    <clipPath id="clip1">
                      <rect width="33.4578" height="33.4578" fill="white" transform="translate(0 70.1982) rotate(-0.314445)"/>
                    </clipPath>
                  </defs>
                </svg>