<svg width="26" height="26" viewBox="0 0 26 26" fill="none" xmlns="http://www.w3.org/2000/svg">
<path d="M25.4412 5.61914H0.558848C0.250199 5.61914 0 5.86934 0 6.17799V19.8224C0 20.1311 0.250199 20.3813 0.558848 20.3813H25.4411C25.7498 20.3813 25.9999 20.1311 25.9999 19.8224V6.17799C26 5.86934 25.7498 5.61914 25.4412 5.61914ZM1.11775 6.73689H3.955C3.71698 8.18796 2.56882 9.33607 1.11775 9.57414V6.73689ZM1.11775 19.2635V16.4263C2.56882 16.6643 3.71693 17.8124 3.955 19.2635H1.11775ZM24.8823 19.2635H22.045C22.283 17.8124 23.4312 16.6643 24.8823 16.4263V19.2635ZM24.8823 15.2979C22.8141 15.552 21.1708 17.1953 20.9167 19.2636H5.0833C4.82925 17.1953 3.18591 15.552 1.11775 15.2979V10.7024C3.18591 10.4484 4.82925 8.80505 5.0833 6.73689H20.9167C21.1708 8.80505 22.8141 10.4484 24.8823 10.7024V15.2979ZM24.8823 9.57409C23.4312 9.33607 22.2831 8.18791 22.045 6.73684H24.8823V9.57409Z" fill="#FF7308"/>
<path d="M20.1708 10.5934C19.5545 10.5934 19.0531 10.092 19.0531 9.47564C19.0531 9.19782 18.8279 8.97266 18.5501 8.97266H7.45002C7.17219 8.97266 6.94703 9.19782 6.94703 9.47564C6.94703 10.092 6.44561 10.5934 5.82928 10.5934C5.55146 10.5934 5.32629 10.8186 5.32629 11.0964V14.9042C5.32629 15.182 5.55146 15.4072 5.82928 15.4072C6.44561 15.4072 6.94703 15.9086 6.94703 16.5249C6.94703 16.8028 7.17219 17.0279 7.45002 17.0279H18.55C18.8279 17.0279 19.053 16.8028 19.053 16.5249C19.053 15.9086 19.5544 15.4072 20.1708 15.4072C20.4486 15.4072 20.6738 15.182 20.6738 14.9042V11.0964C20.6738 10.8186 20.4486 10.5934 20.1708 10.5934ZM19.6678 14.4613C18.9001 14.6485 18.2945 15.2541 18.1073 16.0219H7.89288C7.7057 15.2542 7.10008 14.6485 6.33232 14.4613V11.5391C7.10003 11.352 7.7057 10.7463 7.89288 9.97858H18.1073C18.2945 10.7463 18.9002 11.352 19.6679 11.5391V14.4613H19.6678Z" fill="#FF7308"/>
<path d="M11.0952 10.6904H10.3403C10.0624 10.6904 9.83728 10.9156 9.83728 11.1934C9.83728 11.4712 10.0624 11.6964 10.3403 11.6964H10.5922V14.8083C10.5922 15.0861 10.8174 15.3113 11.0952 15.3113C11.3731 15.3113 11.5982 15.0861 11.5982 14.8083V11.1934C11.5982 10.9156 11.373 10.6904 11.0952 10.6904Z" fill="#FF7308"/>
<path d="M15.6312 10.6904H13.3183C13.0405 10.6904 12.8153 10.9156 12.8153 11.1934V14.8083C12.8153 15.0861 13.0405 15.3113 13.3183 15.3113H15.6312C15.909 15.3113 16.1342 15.0861 16.1342 14.8083V11.1934C16.1342 10.9156 15.909 10.6904 15.6312 10.6904ZM15.1282 14.3052H13.8213V11.6964H15.1282V14.3052Z" fill="#FF7308"/>
</svg>
