<svg width="521" height="218" viewBox="0 0 521 218" fill="none" xmlns="http://www.w3.org/2000/svg">
<g clip-path="url(#clip0)">
<path d="M291.173 74.8093H140.832C135.497 74.8093 131.132 70.4446 131.132 65.1099V46.5403C131.132 41.2056 135.497 36.8408 140.832 36.8408H291.173C296.508 36.8408 300.873 41.2056 300.873 46.5403V65.1099C300.873 70.4446 296.508 74.8093 291.173 74.8093Z" fill="#D2D5D7"/>
<path d="M284.311 36.8403H147.689V20.2785C147.689 15.7052 151.399 12 155.973 12L276.033 20.2785C280.606 20.2785 284.311 23.9837 284.311 28.557V36.8403Z" fill="#E6E6E6"/>
<path d="M145.682 74.8096L160.221 221.722C160.221 226.276 163.946 230.001 168.5 230.001H263.719C268.273 230.001 271.998 226.276 271.998 221.722L286.537 74.8096H145.682Z" fill="#9CB538"/>
<path d="M183.097 128.157C190.653 118.118 202.632 111.595 216.163 111.595C229.693 111.595 241.672 118.118 249.228 128.157L281.697 122.361L286.542 74.8096H145.682L150.527 122.361L183.097 128.157Z" fill="#E6E6E6"/>
<path d="M249.223 166.954C241.668 176.993 229.689 183.516 216.158 183.516C202.627 183.516 190.648 176.993 183.093 166.954L155.372 172.041L160.216 221.722C160.216 226.276 163.941 230.001 168.495 230.001H263.714C268.268 230.001 271.993 226.276 271.993 221.722L276.848 172.041L249.223 166.954Z" fill="#E6E6E6"/>
<path d="M216.003 175.813C233.412 175.813 247.526 163.267 247.526 147.791C247.526 132.315 233.412 119.77 216.003 119.77C198.593 119.77 184.479 132.315 184.479 147.791C184.479 163.267 198.593 175.813 216.003 175.813Z" fill="#C8DB7F"/>
</g>
<g clip-path="url(#clip1)">
<path d="M485.959 120.654L463.165 202.886C461.775 207.9 456.583 210.84 451.567 209.449L391.379 192.765C388.869 192.069 386.881 190.424 385.696 188.325C384.507 186.226 384.12 183.674 384.815 181.167L407.58 99.045C408.328 96.3463 410.281 94.0963 413.028 92.7664L419.338 89.6536L425.96 85.9956L477.571 100.302L481.121 107.005L484.638 112.646C486.219 115.159 486.689 118.021 485.959 120.654Z" fill="#D65D00"/>
<path d="M405.774 186.977L428.539 104.855C429.287 102.156 431.24 99.9062 433.987 98.5762L440.296 95.4634L446.919 91.8055L425.96 85.9956L419.338 89.6536L413.028 92.7664C410.281 94.0963 408.328 96.3463 407.58 99.045L384.815 181.167C384.12 183.674 384.507 186.226 385.696 188.325C386.881 190.424 388.869 192.069 391.379 192.765L412.338 198.575C409.828 197.879 407.84 196.234 406.655 194.135C405.466 192.035 405.079 189.484 405.774 186.977Z" fill="#D65D00"/>
<path d="M483.086 131.019L467.325 187.875L467.083 187.808L389.575 166.323L388.976 166.157L404.737 109.301L405.91 109.626L482.351 130.816L483.086 131.019Z" fill="#D65D00"/>
<path d="M406.07 109.67L404.883 109.341L389.123 166.197L389.729 166.365L410.323 172.074L426.084 115.218L406.07 109.67Z" fill="#D65D00"/>
<path d="M478.812 146.437L472.134 170.529L471.891 170.462L394.384 148.976L393.785 148.81L400.463 124.719L401.636 125.044L478.077 146.234L478.812 146.437Z" fill="#D65D00"/>
<path d="M401.796 125.089L400.609 124.76L393.931 148.851L394.537 149.019L415.132 154.728L421.81 130.637L401.796 125.089Z" fill="#D65D00"/>
<g clip-path="url(#clip2)">
<path d="M426.209 144.224C428.056 141.183 433.381 139.876 439.048 141.298C445.483 142.914 449.919 147.438 448.957 151.403C448.955 151.408 448.953 151.412 448.952 151.418C446.991 151.73 442.44 151.852 437.176 147.921C432.354 144.32 428.459 143.975 426.209 144.224ZM448.459 152.635C447.214 152.747 445.47 152.726 443.405 152.208C441.329 151.687 438.931 150.663 436.396 148.77C431.252 144.929 427.368 145.111 425.678 145.473C425.671 145.5 425.662 145.525 425.656 145.552C424.694 149.517 429.13 154.04 435.564 155.656C441.29 157.093 446.665 155.743 448.459 152.635Z" fill="#D65D00"/>
</g>
</g>
<path d="M484.72 83.3763L480.627 98.1413C479.645 101.682 477.217 104.098 475.202 103.54L425.642 89.802C423.628 89.2435 422.79 85.9213 423.771 82.3809L427.864 67.6159C428.846 64.0756 431.274 61.6587 433.289 62.2172L482.849 75.9552C484.863 76.5137 485.701 79.8359 484.72 83.3763Z" fill="#D65D00"/>
<path d="M456.192 68.5664L448.546 96.1497L448.546 96.1512L452.064 97.1263L452.064 97.1248L459.71 69.5415L456.192 68.5664Z" fill="#D65D00"/>
<path d="M448.322 66.3848L440.676 93.968L440.676 93.9695L444.193 94.9446L444.194 94.9432L451.84 67.3599L448.322 66.3848Z" fill="#D65D00"/>
<path d="M440.451 64.2021L432.805 91.7854L432.804 91.7869L436.322 92.762L436.322 92.7605L443.969 65.1773L440.451 64.2021Z" fill="#D65D00"/>
<path d="M432.58 62.0205L424.933 89.6038L424.933 89.6053L428.451 90.5804L428.451 90.5789L436.097 62.9957L432.58 62.0205Z" fill="#D65D00"/>
<path d="M464.064 70.748L456.418 98.3313L456.417 98.3328L459.935 99.3079L459.936 99.3064L467.582 71.7232L464.064 70.748Z" fill="#D65D00"/>
<path d="M471.934 72.9297L464.288 100.513L464.288 100.514L467.805 101.49L467.806 101.488L475.452 73.9048L471.934 72.9297Z" fill="#D65D00"/>
<path d="M479.806 75.1113L472.16 102.695L472.16 102.696L475.677 103.671L475.678 103.67L483.324 76.0865L479.806 75.1113Z" fill="#D65D00"/>
<g clip-path="url(#clip3)">
<path d="M473.932 110.265L451.137 192.496C449.747 197.51 444.556 200.45 439.539 199.059L379.352 182.375C376.842 181.68 374.854 180.035 373.668 177.936C372.48 175.836 372.093 173.285 372.788 170.777L395.552 88.6554C396.3 85.9566 398.253 83.7067 401.001 82.3767L407.31 79.2639L413.933 75.606L465.544 89.9127L469.094 96.6149L472.611 102.256C474.191 104.77 474.662 107.631 473.932 110.265Z" fill="#AD8259"/>
<path d="M393.747 176.587L416.511 94.4652C417.259 91.7665 419.212 89.5165 421.96 88.1866L428.269 85.0738L434.892 81.4158L413.933 75.606L407.31 79.2639L401.001 82.3767C398.253 83.7067 396.3 85.9566 395.552 88.6554L372.788 170.777C372.093 173.285 372.48 175.836 373.668 177.936C374.854 180.035 376.842 181.68 379.352 182.375L400.311 188.185C397.801 187.49 395.813 185.844 394.627 183.745C393.439 181.646 393.052 179.094 393.747 176.587Z" fill="#9A6C41"/>
<path d="M471.059 120.63L455.298 177.486L455.056 177.418L377.548 155.933L376.949 155.767L392.709 98.9111L393.883 99.2365L470.324 120.426L471.059 120.63Z" fill="#48673A"/>
<path d="M394.043 99.2802L392.856 98.9512L377.095 155.807L377.701 155.975L398.296 161.684L414.057 104.828L394.043 99.2802Z" fill="#3E5E30"/>
<path d="M466.785 136.048L460.106 160.139L459.864 160.072L382.356 138.587L381.757 138.421L388.436 114.329L389.609 114.654L466.05 135.844L466.785 136.048Z" fill="#ECAE35"/>
<path d="M389.769 114.699L388.582 114.37L381.904 138.462L382.51 138.63L403.104 144.338L409.783 120.247L389.769 114.699Z" fill="#DD9B1A"/>
<g clip-path="url(#clip4)">
<path d="M414.182 133.835C416.029 130.794 421.354 129.486 427.021 130.909C433.455 132.525 437.891 137.048 436.93 141.013C436.928 141.018 436.926 141.023 436.925 141.029C434.964 141.34 430.413 141.463 425.149 137.531C420.326 133.93 416.431 133.585 414.182 133.835ZM436.431 142.245C435.187 142.358 433.443 142.337 431.378 141.818C429.302 141.297 426.903 140.273 424.368 138.381C419.224 134.539 415.341 134.721 413.651 135.083C413.644 135.11 413.635 135.135 413.628 135.162C412.666 139.127 417.102 143.651 423.537 145.266C429.263 146.704 434.638 145.353 436.431 142.245Z" fill="#BA8828"/>
</g>
</g>
<path d="M474.692 71.9856L470.599 86.7507C469.618 90.291 467.19 92.7079 465.175 92.1494L415.615 78.4114C413.6 77.8529 412.763 74.5306 413.744 70.9903L417.837 56.2253C418.818 52.685 421.247 50.2681 423.262 50.8266L472.821 64.5646C474.836 65.1231 475.674 68.4453 474.692 71.9856Z" fill="#48673A"/>
<path d="M446.165 57.1758L438.519 84.759L438.519 84.7605L442.036 85.7357L442.037 85.7342L449.683 58.1509L446.165 57.1758Z" fill="#3E5D30"/>
<path d="M438.295 54.9941L430.649 82.5774L430.648 82.5789L434.166 83.554L434.167 83.5525L441.813 55.9693L438.295 54.9941Z" fill="#3E5D30"/>
<path d="M430.423 52.8115L422.777 80.3948L422.777 80.3963L426.295 81.3714L426.295 81.3699L433.941 53.7867L430.423 52.8115Z" fill="#3E5D30"/>
<path d="M422.552 50.6299L414.906 78.2131L414.906 78.2147L418.424 79.1898L418.424 79.1883L426.07 51.605L422.552 50.6299Z" fill="#3E5D30"/>
<path d="M454.037 59.3574L446.391 86.9407L446.39 86.9422L449.908 87.9172L449.908 87.9158L457.554 60.3326L454.037 59.3574Z" fill="#3E5D30"/>
<path d="M461.907 61.5391L454.261 89.1223L454.26 89.1238L457.778 90.099L457.778 90.0975L465.425 62.5142L461.907 61.5391Z" fill="#3E5D30"/>
<path d="M469.779 63.7207L462.133 91.304L462.132 91.3054L465.65 92.2805L465.651 92.2791L473.297 64.6958L469.779 63.7207Z" fill="#3E5D30"/>
<path d="M73.4814 147.608C73.626 147.943 73.7607 148.282 73.8813 148.629L73.5215 147.594L73.4814 147.608Z" fill="#CE9541"/>
<path d="M48.303 182.017C29.9794 188.392 11.6689 183.625 7.52441 171.712L12.3387 185.551C17.2853 196.551 35.0039 200.751 52.6811 194.602C70.3582 188.452 81.6442 174.162 78.6951 162.466L73.8809 148.628C78.0253 160.541 66.6266 175.643 48.303 182.017Z" fill="#CE9541"/>
<path d="M7.16455 170.679L7.52434 171.713C7.40374 171.366 7.29884 171.017 7.2046 170.665L7.16455 170.679Z" fill="#CE9541"/>
<path d="M33.1792 138.543C14.8556 144.917 3.38046 159.799 7.52493 171.713C11.6694 183.626 29.9799 188.392 48.3035 182.018C66.6271 175.643 78.0258 160.541 73.8813 148.628C69.7369 136.715 51.5028 132.168 33.1792 138.543Z" fill="#EEAF4B"/>
<path d="M66.8754 154.01C63.6734 153.466 62.8196 151.034 64.9766 148.607C68.7411 144.641 64.2104 141.527 58.4769 143.77C55.0091 145.113 51.813 144.737 51.2355 142.52C50.2435 138.861 42.4487 138.556 39.7449 142.67L38.3791 144.893C37.8205 145.651 36.942 146.241 35.977 146.586C35.0051 146.915 33.9512 146.997 33.0431 146.75L30.5921 145.854C25.9178 144.307 19.9962 149.384 21.4895 152.868C22.4125 154.965 20.1386 157.244 16.5864 158.344C10.6996 160.143 9.07983 165.396 14.4919 166.17C17.6903 166.733 18.5294 169.171 16.3576 171.585C12.6395 176.119 17.589 179.142 23.3312 176.596C26.8078 175.275 29.6811 175.818 30.2456 178.038C31.2912 182.393 38.9574 182.155 41.6241 177.212L42.3598 176.226C43.0967 175.24 44.2606 174.482 45.533 174.055C46.7958 173.6 48.1775 173.472 49.3673 173.788L50.5571 174.104C55.7159 176.325 61.8747 171.753 59.9917 167.69C59.0554 165.599 60.9722 163.39 64.5181 162.268C70.5997 160.701 72.6039 155.258 66.8754 154.01Z" fill="#6A3311"/>
<defs>
<clipPath id="clip0">
<rect width="218" height="218" fill="white" transform="translate(107)"/>
</clipPath>
<clipPath id="clip1">
<rect width="125" height="125" fill="white" transform="translate(394.635 63.9541) rotate(15.4934)"/>
</clipPath>
<clipPath id="clip2">
<rect width="31" height="27" fill="white" transform="translate(427.162 130.045) rotate(15.4934)"/>
</clipPath>
<clipPath id="clip3">
<rect width="125" height="125" fill="white" transform="translate(382.607 53.5645) rotate(15.4934)"/>
</clipPath>
<clipPath id="clip4">
<rect width="31" height="27" fill="white" transform="translate(415.135 119.655) rotate(15.4934)"/>
</clipPath>
</defs>
</svg>
