<svg width="85" height="134" viewBox="0 0 85 134" fill="none" xmlns="http://www.w3.org/2000/svg">
<path d="M20.0476 105.108C20.0823 105.189 20.1147 105.27 20.1436 105.353L20.0572 105.105L20.0476 105.108Z" fill="#D65D00"/>
<path d="M14.0011 113.371C9.60074 114.902 5.20353 113.757 4.20825 110.896L5.36438 114.22C6.55228 116.862 10.8074 117.87 15.0525 116.393C19.2976 114.917 22.0079 111.485 21.2996 108.676L20.1435 105.353C21.1388 108.214 18.4014 111.84 14.0011 113.371Z" fill="#D65D00"/>
<path d="M4.12207 110.648L4.20847 110.897C4.17951 110.814 4.15432 110.73 4.13169 110.645L4.12207 110.648Z" fill="#D65D00"/>
<path d="M10.3692 102.933C5.9689 104.464 3.21318 108.038 4.20846 110.899C5.20374 113.76 9.60095 114.904 14.0013 113.374C18.4016 111.843 21.139 108.216 20.1437 105.355C19.1484 102.494 14.7696 101.402 10.3692 102.933Z" fill="#D65D00"/>
<path d="M18.4612 106.647C17.6923 106.516 17.4872 105.932 18.0052 105.349C18.9093 104.397 17.8212 103.649 16.4443 104.188C15.6116 104.51 14.844 104.42 14.7054 103.888C14.4671 103.009 12.5952 102.936 11.9459 103.924L11.6179 104.458C11.4838 104.639 11.2728 104.781 11.0411 104.864C10.8077 104.943 10.5546 104.963 10.3365 104.903L9.74791 104.688C8.62539 104.317 7.20335 105.536 7.56195 106.373C7.7836 106.876 7.23755 107.423 6.3845 107.688C4.97081 108.12 4.58182 109.381 5.88151 109.567C6.6496 109.702 6.8511 110.288 6.32955 110.867C5.43666 111.956 6.62525 112.682 8.00424 112.071C8.83912 111.754 9.52915 111.884 9.66471 112.417C9.91579 113.463 11.7568 113.406 12.3972 112.219L12.5739 111.982C12.7508 111.745 13.0304 111.563 13.3359 111.461C13.6392 111.351 13.971 111.321 14.2567 111.397L14.5424 111.472C15.7813 112.006 17.2603 110.908 16.8081 109.932C16.5833 109.43 17.0436 108.899 17.8951 108.63C19.3556 108.254 19.8369 106.947 18.4612 106.647Z" fill="#D65D00"/>
<path d="M17.646 102.949C17.6807 103.03 17.7131 103.111 17.742 103.194L17.6556 102.946L17.646 102.949Z" fill="#CE9541"/>
<path d="M11.5995 111.212C7.19913 112.743 2.80192 111.598 1.80664 108.737L2.96277 112.061C4.15067 114.702 8.40575 115.711 12.6508 114.234C16.8959 112.757 19.6063 109.326 18.898 106.517L17.7419 103.194C18.7372 106.055 15.9998 109.681 11.5995 111.212Z" fill="#CE9541"/>
<path d="M1.7207 108.489L1.80711 108.738C1.77814 108.654 1.75295 108.57 1.73032 108.486L1.7207 108.489Z" fill="#CE9541"/>
<path d="M7.96885 100.772C3.56851 102.303 0.812791 105.877 1.80807 108.738C2.80335 111.599 7.20056 112.743 11.6009 111.212C16.0012 109.682 18.7386 106.055 17.7433 103.194C16.748 100.333 12.3692 99.2413 7.96885 100.772Z" fill="#EEAF4B"/>
<path d="M16.0597 104.486C15.2908 104.355 15.0857 103.771 15.6037 103.188C16.5078 102.236 15.4197 101.488 14.0429 102.027C13.2101 102.349 12.4426 102.259 12.3039 101.727C12.0656 100.848 10.1937 100.775 9.54443 101.763L9.21644 102.296C9.0823 102.478 8.87134 102.62 8.63958 102.703C8.4062 102.782 8.15311 102.802 7.93502 102.742L7.34642 102.527C6.2239 102.156 4.80186 103.375 5.16046 104.212C5.38211 104.715 4.83606 105.262 3.98301 105.526C2.56932 105.958 2.18033 107.22 3.48002 107.406C4.24811 107.541 4.44961 108.127 3.92806 108.706C3.03517 109.795 4.22376 110.521 5.60275 109.91C6.43763 109.592 7.12766 109.723 7.26322 110.256C7.5143 111.302 9.35533 111.245 9.99572 110.058L10.1724 109.821C10.3494 109.584 10.6289 109.402 10.9344 109.299C11.2377 109.19 11.5695 109.16 11.8552 109.235L12.1409 109.311C13.3798 109.845 14.8588 108.747 14.4066 107.771C14.1818 107.269 14.6421 106.738 15.4936 106.469C16.9541 106.093 17.4354 104.786 16.0597 104.486Z" fill="#6A3311"/>
<g clip-path="url(#clip0)">
<path d="M76.746 101.107H40.4472C39.1592 101.107 38.1053 100.105 38.1053 98.8793V94.6138C38.1053 93.3884 39.1592 92.3857 40.4472 92.3857H76.746C78.0341 92.3857 79.0879 93.3884 79.0879 94.6138V98.8793C79.0879 100.105 78.0341 101.107 76.746 101.107Z" fill="#D65D00"/>
<path d="M75.0892 92.3856H42.1029V88.5813C42.1029 87.5308 42.9987 86.6797 44.1029 86.6797L73.0904 88.5813C74.1946 88.5813 75.0892 89.4324 75.0892 90.4829V92.3856Z" fill="#D65D00"/>
<path d="M41.618 101.107L45.1285 134.854C45.1285 135.9 46.0278 136.756 47.1273 136.756H70.1173C71.2168 136.756 72.1161 135.9 72.1161 134.854L75.6265 101.107H41.618Z" fill="#D65D00"/>
<path d="M50.6518 113.362C52.4761 111.056 55.3683 109.557 58.6352 109.557C61.9021 109.557 64.7943 111.056 66.6186 113.362L74.458 112.03L75.6277 101.107H41.618L42.7878 112.03L50.6518 113.362Z" fill="#D65D00"/>
<path d="M66.6175 122.273C64.7932 124.579 61.901 126.078 58.6341 126.078C55.3672 126.078 52.475 124.579 50.6507 122.273L43.9576 123.442L45.1274 134.854C45.1274 135.9 46.0267 136.756 47.1262 136.756H70.1162C71.2157 136.756 72.115 135.9 72.115 134.854L73.2871 123.442L66.6175 122.273Z" fill="#D65D00"/>
<path d="M58.5966 124.309C62.8001 124.309 66.2077 121.427 66.2077 117.872C66.2077 114.317 62.8001 111.436 58.5966 111.436C54.3932 111.436 50.9856 114.317 50.9856 117.872C50.9856 121.427 54.3932 124.309 58.5966 124.309Z" fill="#D65D00"/>
</g>
<g clip-path="url(#clip1)">
<path d="M71.2066 99.1869H34.6557C33.3588 99.1869 32.2976 98.1258 32.2976 96.8288V92.3142C32.2976 91.0172 33.3588 89.9561 34.6557 89.9561H71.2066C72.5036 89.9561 73.5648 91.0172 73.5648 92.3142V96.8288C73.5648 98.1258 72.5036 99.1869 71.2066 99.1869Z" fill="#D2D5D7"/>
<path d="M69.5383 89.9561H36.323V85.9297C36.323 84.8178 37.225 83.917 38.3368 83.917L67.5257 85.9297C68.6375 85.9297 69.5383 86.8305 69.5383 87.9423V89.9561Z" fill="#E6E6E6"/>
<path d="M35.8347 99.1865L39.3695 134.904C39.3695 136.011 40.2751 136.916 41.3822 136.916H64.5319C65.639 136.916 66.5446 136.011 66.5446 134.904L70.0794 99.1865H35.8347Z" fill="#9CB538"/>
<path d="M44.9312 112.156C46.7682 109.716 49.6804 108.13 52.97 108.13C56.2596 108.13 59.1719 109.716 61.0089 112.156L68.9027 110.747L70.0806 99.1865H35.8347L37.0126 110.747L44.9312 112.156Z" fill="#E6E6E6"/>
<path d="M61.0078 121.589C59.1708 124.03 56.2585 125.615 52.9689 125.615C49.6793 125.615 46.767 124.03 44.9301 121.589L38.1906 122.826L39.3684 134.904C39.3684 136.011 40.274 136.917 41.3811 136.917H64.5308C65.6379 136.917 66.5434 136.011 66.5434 134.904L67.7237 122.826L61.0078 121.589Z" fill="#E6E6E6"/>
<path d="M52.9311 123.742C57.1638 123.742 60.595 120.692 60.595 116.93C60.595 113.167 57.1638 110.117 52.9311 110.117C48.6985 110.117 45.2672 113.167 45.2672 116.93C45.2672 120.692 48.6985 123.742 52.9311 123.742Z" fill="#C8DB7F"/>
</g>
<g clip-path="url(#clip2)">
<path d="M63.5044 33.8225L53.8799 68.5429C53.293 70.6602 51.1011 71.9015 48.9829 71.3143L23.5699 64.2698C22.5102 63.976 21.6709 63.2814 21.1702 62.3952C20.6684 61.5086 20.5051 60.4314 20.7986 59.3728L30.4103 24.6984C30.7262 23.5589 31.5507 22.6089 32.7107 22.0474L35.3748 20.7331L38.1711 19.1886L59.9628 25.2293L61.4616 28.0592L62.9468 30.441C63.6139 31.5024 63.8126 32.7107 63.5044 33.8225Z" fill="#D65D00"/>
<path d="M29.6476 61.8259L39.2593 27.1515C39.5752 26.012 40.3997 25.062 41.5597 24.5005L44.2238 23.1862L47.0201 21.6417L38.1706 19.1886L35.3743 20.7331L32.7102 22.0474C31.5502 22.6089 30.7257 23.5589 30.4098 24.6984L20.7981 59.3728C20.5046 60.4314 20.668 61.5086 21.1697 62.3952C21.6704 63.2814 22.5097 63.976 23.5694 64.2698L32.4189 66.7229C31.3592 66.4291 30.5199 65.7345 30.0192 64.8482C29.5174 63.9617 29.3541 62.8845 29.6476 61.8259Z" fill="#D65D00"/>
<path d="M62.2903 38.2004L55.6357 62.2067L55.5333 62.1783L22.8073 53.1067L22.5544 53.0366L29.209 29.0303L29.7045 29.1676L61.9801 38.1145L62.2903 38.2004Z" fill="#D65D00"/>
<path d="M29.7721 29.1839L29.2709 29.0449L22.6163 53.0512L22.8721 53.1221L31.5678 55.5326L38.2224 31.5263L29.7721 29.1839Z" fill="#D65D00"/>
<path d="M60.4857 44.7092L57.666 54.8814L57.5636 54.853L24.8376 45.7813L24.5847 45.7112L27.4044 35.5391L27.8999 35.6764L60.1755 44.6232L60.4857 44.7092Z" fill="#D65D00"/>
<path d="M27.9675 35.6956L27.4663 35.5566L24.6466 45.7288L24.9024 45.7997L33.5981 48.2102L36.4178 38.038L27.9675 35.6956Z" fill="#D65D00"/>
<g clip-path="url(#clip3)">
<path d="M38.2755 43.7737C39.0554 42.4897 41.3036 41.9376 43.6965 42.5382C46.4133 43.2205 48.2863 45.1305 47.8803 46.8046C47.8796 46.8066 47.8786 46.8086 47.8783 46.8111C47.0503 46.9426 45.1287 46.9944 42.9062 45.3344C40.8698 43.8141 39.2252 43.6684 38.2755 43.7737ZM47.6699 47.3248C47.1444 47.3723 46.4079 47.3635 45.5361 47.1445C44.6595 46.9246 43.6469 46.4923 42.5766 45.6931C40.4046 44.0711 38.7648 44.1479 38.0512 44.3007C38.0484 44.3122 38.0445 44.3229 38.0417 44.3341C37.6356 46.0082 39.5086 47.9182 42.2255 48.6003C44.643 49.2074 46.9125 48.637 47.6699 47.3248Z" fill="#D65D00"/>
</g>
</g>
<path d="M62.9805 18.0816L61.2524 24.3159C60.838 25.8107 59.8126 26.8311 58.9619 26.5953L38.0364 20.7947C37.1857 20.5589 36.832 19.1562 37.2464 17.6614L38.9745 11.4271C39.3889 9.9323 40.4143 8.91184 41.265 9.14765L62.1905 14.9482C63.0412 15.1841 63.3949 16.5868 62.9805 18.0816Z" fill="#D65D00"/>
<path d="M50.9353 11.8271L47.7069 23.4736L47.7067 23.4742L49.192 23.886L49.1922 23.8853L52.4206 12.2389L50.9353 11.8271Z" fill="#D65D00"/>
<path d="M47.6122 10.9053L44.3838 22.5517L44.3836 22.5524L45.8688 22.9641L45.8691 22.9635L49.0975 11.317L47.6122 10.9053Z" fill="#D65D00"/>
<path d="M44.2887 9.98438L41.0603 21.6308L41.0601 21.6315L42.5454 22.0432L42.5456 22.0426L45.774 10.3961L44.2887 9.98438Z" fill="#D65D00"/>
<path d="M40.9648 9.06738L37.7364 20.7138L37.7364 20.7145L39.2216 21.1262L39.2218 21.1256L42.4502 9.47912L40.9648 9.06738Z" fill="#D65D00"/>
<path d="M54.259 12.7471L51.0306 24.3935L51.0304 24.3942L52.5157 24.8059L52.5159 24.8053L55.7444 13.1588L54.259 12.7471Z" fill="#D65D00"/>
<path d="M57.582 13.6689L54.3536 25.3154L54.3534 25.316L55.8388 25.7278L55.8389 25.7271L59.0674 14.0807L57.582 13.6689Z" fill="#D65D00"/>
<path d="M60.9055 14.5918L57.6771 26.2383L57.6769 26.2389L59.1622 26.6506L59.1624 26.65L62.3908 15.0035L60.9055 14.5918Z" fill="#D65D00"/>
<g clip-path="url(#clip4)">
<path d="M58.4264 29.4348L48.8019 64.1553C48.215 66.2725 46.0231 67.5138 43.9049 66.9266L18.4919 59.8821C17.4322 59.5883 16.5929 58.8937 16.0922 58.0075C15.5904 57.1209 15.4271 56.0437 15.7205 54.9851L25.3323 20.3107C25.6482 19.1712 26.4727 18.2212 27.6327 17.6597L30.2968 16.3454L33.0931 14.8009L54.8848 20.8416L56.3836 23.6715L57.8688 26.0533C58.5359 27.1147 58.7346 28.323 58.4264 29.4348Z" fill="#AD8259"/>
<path d="M24.57 57.4382L34.1818 22.7638C34.4977 21.6243 35.3222 20.6743 36.4822 20.1128L39.1463 18.7985L41.9426 17.254L33.0931 14.8009L30.2968 16.3454L27.6327 17.6597C26.4727 18.2212 25.6482 19.1712 25.3323 20.3107L15.7205 54.9851C15.4271 56.0437 15.5904 57.1209 16.0922 58.0075C16.5929 58.8937 17.4322 59.5883 18.4919 59.8821L27.3414 62.3352C26.2817 62.0414 25.4424 61.3468 24.9417 60.4605C24.4399 59.574 24.2766 58.4968 24.57 57.4382Z" fill="#9A6C41"/>
<path d="M57.2124 33.8127L50.5578 57.819L50.4555 57.7906L17.7294 48.719L17.4765 48.6489L24.1311 24.6426L24.6266 24.7799L56.9022 33.7268L57.2124 33.8127Z" fill="#48673A"/>
<path d="M24.6942 24.7971L24.193 24.6582L17.5384 48.6645L17.7942 48.7354L26.4899 51.1459L33.1445 27.1396L24.6942 24.7971Z" fill="#3E5E30"/>
<path d="M55.4078 40.3225L52.5881 50.4947L52.4857 50.4663L19.7597 41.3946L19.5068 41.3245L22.3265 31.1523L22.8221 31.2897L55.0976 40.2365L55.4078 40.3225Z" fill="#ECAE35"/>
<path d="M22.8897 31.3079L22.3884 31.1689L19.5687 41.3411L19.8245 41.412L28.5202 43.8225L31.3399 33.6503L22.8897 31.3079Z" fill="#DD9B1A"/>
<g clip-path="url(#clip5)">
<path d="M33.1978 39.387C33.9777 38.103 36.2259 37.5509 38.6188 38.1514C41.3355 38.8338 43.2085 40.7437 42.8025 42.4179C42.8019 42.4199 42.8009 42.4219 42.8005 42.4244C41.9726 42.5559 40.051 42.6076 37.8284 40.9477C35.7921 39.4274 34.1474 39.2817 33.1978 39.387ZM42.5921 42.9381C42.0666 42.9856 41.3301 42.9767 40.4583 42.7578C39.5817 42.5378 38.5691 42.1055 37.4988 41.3064C35.3268 39.6844 33.687 39.7612 32.9735 39.914C32.9706 39.9255 32.9667 39.9362 32.9639 39.9474C32.5578 41.6215 34.4308 43.5315 37.1478 44.2136C39.5652 44.8206 41.8348 44.2503 42.5921 42.9381Z" fill="#BA8828"/>
</g>
</g>
<path d="M58.7465 13.2721L57.0184 19.5063C56.604 21.0011 55.5786 22.0216 54.7279 21.7858L33.8024 15.9852C32.9517 15.7494 32.598 14.3466 33.0124 12.8518L34.7405 6.61756C35.1549 5.12273 36.1802 4.10227 37.0309 4.33808L57.9565 10.1387C58.8072 10.3745 59.1609 11.7772 58.7465 13.2721Z" fill="#48673A"/>
<path d="M46.7018 7.01758L43.4734 18.664L43.4732 18.6647L44.9585 19.0764L44.9587 19.0758L48.1871 7.42931L46.7018 7.01758Z" fill="#3E5D30"/>
<path d="M43.3785 6.09766L40.1501 17.7441L40.15 17.7447L41.6352 18.1565L41.6355 18.1559L44.8639 6.50939L43.3785 6.09766Z" fill="#3E5D30"/>
<path d="M40.0553 5.17676L36.8269 16.8232L36.8267 16.8238L38.312 17.2356L38.3122 17.235L41.5406 5.58849L40.0553 5.17676Z" fill="#3E5D30"/>
<path d="M36.7307 4.25684L33.5023 15.9033L33.5022 15.904L34.9875 16.3157L34.9876 16.315L38.216 4.66857L36.7307 4.25684Z" fill="#3E5D30"/>
<path d="M50.0253 7.9375L46.7969 19.584L46.7967 19.5846L48.2819 19.9963L48.2822 19.9957L51.5106 8.34923L50.0253 7.9375Z" fill="#3E5D30"/>
<path d="M53.3483 8.86035L50.1199 20.5068L50.1197 20.5074L51.605 20.9192L51.6052 20.9185L54.8336 9.27209L53.3483 8.86035Z" fill="#3E5D30"/>
<path d="M56.6718 9.78418L53.4433 21.4306L53.4432 21.4313L54.9284 21.843L54.9287 21.8424L58.1571 10.1959L56.6718 9.78418Z" fill="#3E5D30"/>
<defs>
<clipPath id="clip0">
<rect width="52.6345" height="50.0759" fill="white" transform="translate(32.2787 83.9238)"/>
</clipPath>
<clipPath id="clip1">
<rect width="53" height="53" fill="white" transform="translate(26.4304 81)"/>
</clipPath>
<clipPath id="clip2">
<rect width="52.7787" height="52.7787" fill="white" transform="translate(24.9436 9.88184) rotate(15.4934)"/>
</clipPath>
<clipPath id="clip3">
<rect width="13.0891" height="11.4002" fill="white" transform="translate(38.6775 37.7861) rotate(15.4934)"/>
</clipPath>
<clipPath id="clip4">
<rect width="52.7787" height="52.7787" fill="white" transform="translate(19.8656 5.49512) rotate(15.4934)"/>
</clipPath>
<clipPath id="clip5">
<rect width="13.0891" height="11.4002" fill="white" transform="translate(33.5999 33.3994) rotate(15.4934)"/>
</clipPath>
</defs>
</svg>
