<svg width="127" height="82" viewBox="0 0 127 82" fill="none" xmlns="http://www.w3.org/2000/svg">
<g clip-path="url(#clip0)">
<path d="M34.2443 22.2484C32.4331 18.6346 32.4331 11.407 32.4331 11.407L32.8825 8.81641H24.7114L25.1608 11.407C25.1608 11.407 25.1608 18.6346 23.3496 22.2484C23.3496 22.2484 17.9022 30.1626 17.9022 35.5768V49.9673C17.9022 49.9673 17.9158 50.0709 17.9431 50.2652C18.1746 51.7547 19.2096 58.6068 19.5773 63.775C19.7241 65.821 19.5264 67.876 18.9918 69.8628C18.3713 72.0105 18.0058 74.2177 17.9022 76.4428V80.0566H39.6918V76.4428C39.5882 74.2177 39.2227 72.0105 38.6022 69.8628C38.0676 67.8762 37.8699 65.821 38.0167 63.775C38.3844 58.6068 39.4194 51.7549 39.6509 50.2652C39.6782 50.0709 39.6918 49.9673 39.6918 49.9673V35.5768C39.6918 30.1626 34.2443 22.2484 34.2443 22.2484Z" fill="#3A6925"/>
<path d="M39.6918 36.0166V49.9667C39.6918 49.9667 39.6782 50.0704 39.6509 50.2646H17.943C17.9157 50.0704 17.9021 49.9667 17.9021 49.9667V36.0166H39.6918Z" fill="#3A6925"/>
<path d="M26.0732 4.93066H31.5205C33.0249 4.93066 34.2443 6.09049 34.2443 7.52126V10.1117C34.2443 10.8271 33.6347 11.4069 32.8825 11.4069H24.7114C23.9592 11.4069 23.3496 10.8269 23.3496 10.1117V7.52111C23.3496 6.09049 24.5691 4.93066 26.0732 4.93066Z" fill="#3A6925"/>
</g>
<path d="M30.2685 18.9546C28.4387 15.1416 28.4387 7.51561 28.4387 7.51561L28.8927 4.78223H20.6377L21.0917 7.51561C21.0917 7.51561 21.0917 15.1416 19.2619 18.9546C19.2619 18.9546 13.7585 27.305 13.7585 33.0176V48.2012C13.7585 48.2012 13.7722 48.3106 13.7998 48.5156C14.0338 50.0872 15.0794 57.317 15.4508 62.77C15.5992 64.9288 15.3994 67.0971 14.8593 69.1934C14.2324 71.4594 13.8632 73.7883 13.7585 76.136V79.949H35.772V76.136C35.6674 73.7883 35.2982 71.4594 34.6713 69.1934C34.1312 67.0973 33.9314 64.9288 34.0797 62.77C34.4512 57.317 35.4968 50.0874 35.7308 48.5156C35.7583 48.3106 35.772 48.2012 35.772 48.2012V33.0176C35.772 27.305 30.2685 18.9546 30.2685 18.9546Z" fill="#59474E"/>
<path d="M35.7721 33.4834V48.2024C35.7721 48.2024 35.7584 48.3118 35.7308 48.5168H13.7997C13.7721 48.3118 13.7584 48.2024 13.7584 48.2024V33.4834H35.7721Z" fill="#E64C3C"/>
<path d="M22.0135 0.682617H27.5169C29.0366 0.682617 30.2686 1.90637 30.2686 3.416V6.14923C30.2686 6.90405 29.6527 7.51584 28.8928 7.51584H20.6378C19.8779 7.51584 19.262 6.90389 19.262 6.14923V3.41584C19.262 1.90637 20.4939 0.682617 22.0135 0.682617Z" fill="#E64C3C"/>
<g clip-path="url(#clip1)">
<path d="M73.8426 22.2484C72.0051 18.6346 72.0051 11.407 72.0051 11.407L72.461 8.81641H64.1715L64.6274 11.407C64.6274 11.407 64.6274 18.6346 62.79 22.2484C62.79 22.2484 57.2637 30.1626 57.2637 35.5768V49.9673C57.2637 49.9673 57.2774 50.0709 57.3051 50.2652C57.54 51.7547 58.59 58.6068 58.963 63.775C59.112 65.821 58.9114 67.876 58.369 69.8628C57.7395 72.0105 57.3687 74.2177 57.2637 76.4428V80.0566H79.369V76.4428C79.2639 74.2177 78.8932 72.0105 78.2637 69.8628C77.7213 67.8762 77.5207 65.821 77.6697 63.775C78.0427 58.6068 79.0926 51.7549 79.3276 50.2652C79.3553 50.0709 79.369 49.9673 79.369 49.9673V35.5768C79.369 30.1626 73.8426 22.2484 73.8426 22.2484Z" fill="#3A6925"/>
<path d="M79.3691 36.0166V49.9667C79.3691 49.9667 79.3553 50.0704 79.3276 50.2646H57.305C57.2773 50.0704 57.2635 49.9667 57.2635 49.9667V36.0166H79.3691Z" fill="#3A6925"/>
<path d="M65.5531 4.93066H71.0794C72.6055 4.93066 73.8426 6.09049 73.8426 7.52126V10.1117C73.8426 10.8271 73.2241 11.4069 72.4611 11.4069H64.1716C63.4085 11.4069 62.79 10.8269 62.79 10.1117V7.52111C62.79 6.09049 64.0272 4.93066 65.5531 4.93066Z" fill="#3A6925"/>
</g>
<path d="M69.4327 18.9546C67.6029 15.1416 67.6029 7.51561 67.6029 7.51561L68.0569 4.78223H59.8019L60.2559 7.51561C60.2559 7.51561 60.2559 15.1416 58.4261 18.9546C58.4261 18.9546 52.9227 27.305 52.9227 33.0176V48.2012C52.9227 48.2012 52.9364 48.3106 52.964 48.5156C53.198 50.0872 54.2435 57.317 54.615 62.77C54.7634 64.9288 54.5636 67.0971 54.0235 69.1934C53.3966 71.4594 53.0274 73.7883 52.9227 76.136V79.949H74.9362V76.136C74.8316 73.7883 74.4623 71.4594 73.8355 69.1934C73.2954 67.0973 73.0956 64.9288 73.2439 62.77C73.6154 57.317 74.661 50.0874 74.8949 48.5156C74.9225 48.3106 74.9362 48.2012 74.9362 48.2012V33.0176C74.9362 27.305 69.4327 18.9546 69.4327 18.9546Z" fill="#59474E"/>
<path d="M74.9362 33.4834V48.2024C74.9362 48.2024 74.9225 48.3118 74.895 48.5168H52.9639C52.9363 48.3118 52.9226 48.2024 52.9226 48.2024V33.4834H74.9362Z" fill="#E64C3C"/>
<path d="M61.1777 0.682617H66.6811C68.2008 0.682617 69.4328 1.90637 69.4328 3.416V6.14923C69.4328 6.90405 68.8169 7.51584 68.057 7.51584H59.8019C59.0421 7.51584 58.4261 6.90389 58.4261 6.14923V3.41584C58.4261 1.90637 59.6581 0.682617 61.1777 0.682617Z" fill="#E64C3C"/>
<g clip-path="url(#clip2)">
<path d="M113.797 22.2484C111.985 18.6346 111.985 11.407 111.985 11.407L112.435 8.81641H104.264L104.713 11.407C104.713 11.407 104.713 18.6346 102.902 22.2484C102.902 22.2484 97.4545 30.1626 97.4545 35.5768V49.9673C97.4545 49.9673 97.468 50.0709 97.4953 50.2652C97.7269 51.7547 98.7618 58.6068 99.1295 63.775C99.2764 65.821 99.0786 67.876 98.544 69.8628C97.9235 72.0105 97.558 74.2177 97.4545 76.4428V80.0566L117.537 80H118.537L119.244 79.8208V76.4428C119.14 74.2177 118.775 72.0105 118.154 69.8628C117.62 67.8762 117.422 65.821 117.569 63.775C117.937 58.6068 118.972 51.7549 119.203 50.2652C119.23 50.0709 119.244 49.9673 119.244 49.9673V35.5768C119.244 30.1626 113.797 22.2484 113.797 22.2484Z" fill="#3A6925"/>
<path d="M119.244 36.0166V49.9667C119.244 49.9667 119.23 50.0704 119.203 50.2646H97.4952C97.4679 50.0704 97.4543 49.9667 97.4543 49.9667V36.0166H119.244Z" fill="#3A6925"/>
<path d="M105.625 4.93066H111.073C112.577 4.93066 113.797 6.09049 113.797 7.52126V10.1117C113.797 10.8271 113.187 11.4069 112.435 11.4069H104.264C103.511 11.4069 102.902 10.8269 102.902 10.1117V7.52111C102.902 6.09049 104.121 4.93066 105.625 4.93066Z" fill="#3A6925"/>
</g>
<path d="M109.209 18.9546C107.379 15.1416 107.379 7.51561 107.379 7.51561L107.833 4.78223H99.5779L100.032 7.51561C100.032 7.51561 100.032 15.1416 98.2021 18.9546C98.2021 18.9546 92.6987 27.305 92.6987 33.0176V48.2012C92.6987 48.2012 92.7124 48.3106 92.74 48.5156C92.974 50.0872 94.0195 57.317 94.391 62.77C94.5394 64.9288 94.3396 67.0971 93.7995 69.1934C93.1726 71.4594 92.8034 73.7883 92.6987 76.136V79.949H114.712V76.136C114.608 73.7883 114.238 71.4594 113.611 69.1934C113.071 67.0973 112.872 64.9288 113.02 62.77C113.391 57.317 114.437 50.0874 114.671 48.5156C114.699 48.3106 114.712 48.2012 114.712 48.2012V33.0176C114.712 27.305 109.209 18.9546 109.209 18.9546Z" fill="#59474E"/>
<path d="M114.712 33.4834V48.2024C114.712 48.2024 114.699 48.3118 114.671 48.5168H92.7399C92.7123 48.3118 92.6986 48.2024 92.6986 48.2024V33.4834H114.712Z" fill="#E64C3C"/>
<path d="M100.954 0.682617H106.457C107.977 0.682617 109.209 1.90637 109.209 3.416V6.14923C109.209 6.90405 108.593 7.51584 107.833 7.51584H99.5779C98.8181 7.51584 98.2021 6.90389 98.2021 6.14923V3.41584C98.2021 1.90637 99.4341 0.682617 100.954 0.682617Z" fill="#E64C3C"/>
<defs>
<clipPath id="clip0">
<rect width="42.2239" height="77.7164" fill="white" transform="translate(4.28357 4.2832)"/>
</clipPath>
<clipPath id="clip1">
<rect width="42.8358" height="77.7164" fill="white" transform="translate(43.4478 4.2832)"/>
</clipPath>
<clipPath id="clip2">
<rect width="42.2239" height="77.7164" fill="white" transform="translate(83.8358 4.2832)"/>
</clipPath>
</defs>
</svg>
