<svg width="532" height="250" viewBox="0 0 312 209" fill="none" xmlns="http://www.w3.org/2000/svg">
<path d="M76.6331 48.3137C72.0004 38.5952 72.0004 19.1582 72.0004 19.1582L73.1499 12.1914H52.2499L53.3994 19.1582C53.3994 19.1582 53.3994 38.5952 48.7667 48.3137C48.7667 48.3137 34.8335 69.597 34.8335 84.1572V122.857C34.8335 122.857 34.8682 123.136 34.938 123.658C35.5303 127.664 38.1775 146.091 39.118 159.99C39.4935 165.492 38.9878 171.018 37.6203 176.361C36.0332 182.137 35.0984 188.073 34.8335 194.057V203.775H90.5667V194.057C90.3018 188.073 89.367 182.137 87.7799 176.361C86.4124 171.019 85.9067 165.492 86.2822 159.99C87.2227 146.091 89.8699 127.664 90.4622 123.658C90.532 123.136 90.5667 122.857 90.5667 122.857V84.1572C90.5667 69.597 76.6331 48.3137 76.6331 48.3137Z" fill="#59474E"/>
<path d="M90.5666 85.3428V122.858C90.5666 122.858 90.5319 123.137 90.4621 123.66H34.9375C34.8677 123.137 34.833 122.858 34.833 122.858V85.3428H90.5666Z" fill="#E64C3C"/>
<path d="M55.733 1.74219H69.6662C73.5139 1.74219 76.633 4.86127 76.633 8.70899V15.6754C76.633 17.5992 75.0737 19.1586 73.1498 19.1586H52.2498C50.3259 19.1586 48.7666 17.5988 48.7666 15.6754V8.70858C48.7666 4.86127 51.8857 1.74219 55.733 1.74219Z" fill="#E64C3C"/>
<path d="M176.633 48.3137C172 38.5952 172 19.1582 172 19.1582L173.15 12.1914H152.25L153.399 19.1582C153.399 19.1582 153.399 38.5952 148.767 48.3137C148.767 48.3137 134.833 69.597 134.833 84.1572V122.857C134.833 122.857 134.868 123.136 134.938 123.658C135.53 127.664 138.177 146.091 139.118 159.99C139.494 165.492 138.988 171.018 137.62 176.361C136.033 182.137 135.098 188.073 134.833 194.057V203.775H190.567V194.057C190.302 188.073 189.367 182.137 187.78 176.361C186.412 171.019 185.907 165.492 186.282 159.99C187.223 146.091 189.87 127.664 190.462 123.658C190.532 123.136 190.567 122.857 190.567 122.857V84.1572C190.567 69.597 176.633 48.3137 176.633 48.3137Z" fill="#59474E"/>
<path d="M190.567 85.3428V122.858C190.567 122.858 190.532 123.137 190.462 123.66H134.938C134.868 123.137 134.833 122.858 134.833 122.858V85.3428H190.567Z" fill="#E64C3C"/>
<path d="M155.733 1.74219H169.666C173.514 1.74219 176.633 4.86127 176.633 8.70899V15.6754C176.633 17.5992 175.074 19.1586 173.15 19.1586H152.25C150.326 19.1586 148.767 17.5988 148.767 15.6754V8.70858C148.767 4.86127 151.886 1.74219 155.733 1.74219Z" fill="#E64C3C"/>
<path d="M278.633 48.3137C274 38.5952 274 19.1582 274 19.1582L275.15 12.1914H254.25L255.399 19.1582C255.399 19.1582 255.399 38.5952 250.767 48.3137C250.767 48.3137 236.833 69.597 236.833 84.1572V122.857C236.833 122.857 236.868 123.136 236.938 123.658C237.53 127.664 240.177 146.091 241.118 159.99C241.494 165.492 240.988 171.018 239.62 176.361C238.033 182.137 237.098 188.073 236.833 194.057V203.775H292.567V194.057C292.302 188.073 291.367 182.137 289.78 176.361C288.412 171.019 287.907 165.492 288.282 159.99C289.223 146.091 291.87 127.664 292.462 123.658C292.532 123.136 292.567 122.857 292.567 122.857V84.1572C292.567 69.597 278.633 48.3137 278.633 48.3137Z" fill="#59474E"/>
<path d="M292.567 85.3428V122.858C292.567 122.858 292.532 123.137 292.462 123.66H236.938C236.868 123.137 236.833 122.858 236.833 122.858V85.3428H292.567Z" fill="#E64C3C"/>
<path d="M257.733 1.74219H271.666C275.514 1.74219 278.633 4.86127 278.633 8.70899V15.6754C278.633 17.5992 277.074 19.1586 275.15 19.1586H254.25C252.326 19.1586 250.767 17.5988 250.767 15.6754V8.70858C250.767 4.86127 253.886 1.74219 257.733 1.74219Z" fill="#E64C3C"/>
</svg>
 