<svg width="24" height="24" viewBox="0 0 24 24" fill="none" xmlns="http://www.w3.org/2000/svg">
<g clip-path="url(#clip0)">
<path d="M20.9443 23.1547L17.7803 16.4618C17.7171 16.3283 17.6077 16.2259 17.4765 16.1701L15.9025 15.4694L18.6299 10.8982C18.6364 10.8872 18.6426 10.8761 18.6484 10.8648C19.1907 9.8064 19.4656 8.6627 19.4656 7.46565C19.4656 5.45195 18.676 3.5641 17.2421 2.14993C15.8085 0.736088 13.9092 -0.0275526 11.8943 0.000759945C9.93735 0.0279006 8.09479 0.813948 6.70593 2.2142C5.31721 3.61435 4.54602 5.46324 4.5344 7.42042C4.52727 8.61643 4.80988 9.80743 5.35148 10.8647C5.35729 10.876 5.36343 10.8872 5.36995 10.8982L8.09732 15.4693L6.51416 16.1739C6.38465 16.2315 6.28012 16.3336 6.21956 16.4618L3.05563 23.1547C2.94974 23.3785 2.99441 23.6447 3.16757 23.8217C3.34068 23.9987 3.60562 24.0495 3.83188 23.9488L7.79554 22.1841L11.7592 23.9488C11.9125 24.017 12.0876 24.017 12.2409 23.9488L16.2046 22.1841L20.1682 23.9488C20.2457 23.9832 20.3277 24 20.4089 24C20.5651 24 20.7187 23.9382 20.8326 23.8217C21.0056 23.6446 21.0502 23.3786 20.9443 23.1547ZM6.39716 10.3081C5.94107 9.41129 5.71284 8.44224 5.71888 7.42749C5.73895 4.03238 8.51666 1.23203 11.9108 1.18501C13.6061 1.16223 15.2044 1.80371 16.4105 2.99326C17.6169 4.18309 18.2813 5.7714 18.2813 7.4657C18.2813 8.4669 18.0531 9.42306 17.6029 10.3081L12.5086 18.8463C12.3531 19.1069 12.1011 19.135 12 19.135C11.8989 19.135 11.647 19.1069 11.4915 18.8463L6.39716 10.3081ZM16.4453 20.9949C16.292 20.9267 16.1169 20.9267 15.9636 20.9949L11.9999 22.7596L8.03629 20.9949C7.88296 20.9267 7.70788 20.9267 7.55455 20.9949L4.80871 22.2174L7.19643 17.1667L8.70852 16.4937L10.4742 19.4531C10.7978 19.9955 11.3682 20.3194 11.9999 20.3194C12.6315 20.3194 13.2019 19.9955 13.5255 19.4531L15.2912 16.4938L16.8034 17.1669L19.191 22.2174L16.4453 20.9949Z" fill="#FF7308"/>
<path d="M12.0001 4.7627C10.5098 4.7627 9.29736 5.97512 9.29736 7.46541C9.29736 8.95571 10.5098 10.1681 12.0001 10.1681C13.4904 10.1682 14.7028 8.95571 14.7028 7.46541C14.7028 5.97512 13.4904 4.7627 12.0001 4.7627ZM12.0001 8.98379C11.1629 8.98384 10.4817 8.30274 10.4817 7.46541C10.4817 6.62818 11.1628 5.94704 12.0001 5.94704C12.8374 5.94704 13.5185 6.62818 13.5185 7.46541C13.5185 8.30265 12.8374 8.98379 12.0001 8.98379Z" fill="#FF7308"/>
</g>
<defs>
<clipPath id="clip0">
<rect width="24" height="24" fill="white"/>
</clipPath>
</defs>
</svg>
