<svg width="26" height="26" viewBox="0 0 26 26" fill="none" xmlns="http://www.w3.org/2000/svg">
<g clip-path="url(#clip0)">
<path d="M24.8088 8.88265H14.9163V1.37271C14.9163 0.830062 14.4749 0.388672 13.9323 0.388672H12.0678C11.5251 0.388672 11.0837 0.830113 11.0837 1.37271V8.88265H1.19123C0.534422 8.88265 0 9.41702 0 10.0739V12.6419C0 13.2988 0.534422 13.8332 1.19123 13.8332H1.36261L2.70512 23.3744C2.88458 24.6499 3.99125 25.6117 5.27927 25.6117H20.7206C22.0087 25.6117 23.1153 24.6499 23.2948 23.3744L24.6373 13.8331H24.8087C25.4656 13.8331 25.9999 13.2987 25.9999 12.6419V10.0739C26 9.41702 25.4657 8.88265 24.8088 8.88265ZM12.1195 1.42451H13.8804V11.3169H12.1195V1.42451ZM22.2691 23.2301C22.1612 23.9973 21.4954 24.5759 20.7207 24.5759H5.27927C4.5045 24.5759 3.83881 23.9974 3.73085 23.2301L2.40866 13.8331H23.5913L22.2691 23.2301ZM24.9642 12.6419C24.9642 12.7276 24.8944 12.7973 24.8088 12.7973H1.19123C1.10556 12.7973 1.03584 12.7276 1.03584 12.6419V10.0739C1.03584 9.98821 1.10556 9.91848 1.19123 9.91848H11.0837V11.3687C11.0837 11.9113 11.5251 12.3527 12.0677 12.3527H13.9322C14.4749 12.3527 14.9163 11.9113 14.9163 11.3687V9.91848H24.8087C24.8944 9.91848 24.9641 9.98821 24.9641 10.0739V12.6419H24.9642Z" fill="#FF7308"/>
<path d="M5.5936 15.0454C5.30755 15.0454 5.07568 15.2773 5.07568 15.5633V22.8143C5.07568 23.1003 5.30755 23.3323 5.5936 23.3323C5.87965 23.3323 6.11152 23.1003 6.11152 22.8143V15.5633C6.11157 15.2773 5.87965 15.0454 5.5936 15.0454Z" fill="#FF7308"/>
<path d="M8.55613 15.0454C8.27007 15.0454 8.03821 15.2773 8.03821 15.5633V22.8143C8.03821 23.1003 8.27007 23.3323 8.55613 23.3323C8.84218 23.3323 9.07404 23.1003 9.07404 22.8143V15.5633C9.07404 15.2773 8.84218 15.0454 8.55613 15.0454Z" fill="#FF7308"/>
<path d="M11.5188 15.0454C11.2327 15.0454 11.0009 15.2773 11.0009 15.5633V22.8143C11.0009 23.1003 11.2327 23.3323 11.5188 23.3323C11.8048 23.3323 12.0367 23.1003 12.0367 22.8143V15.5633C12.0367 15.2773 11.8048 15.0454 11.5188 15.0454Z" fill="#FF7308"/>
<path d="M14.4813 15.0454C14.1953 15.0454 13.9634 15.2773 13.9634 15.5633V22.8143C13.9634 23.1003 14.1952 23.3323 14.4813 23.3323C14.7673 23.3323 14.9992 23.1003 14.9992 22.8143V15.5633C14.9992 15.2773 14.7673 15.0454 14.4813 15.0454Z" fill="#FF7308"/>
<path d="M17.4438 15.0454C17.1578 15.0454 16.9259 15.2773 16.9259 15.5633V22.8143C16.9259 23.1003 17.1578 23.3323 17.4438 23.3323C17.7298 23.3323 17.9617 23.1003 17.9617 22.8143V15.5633C17.9617 15.2773 17.7298 15.0454 17.4438 15.0454Z" fill="#FF7308"/>
<path d="M20.4065 15.0454C20.1205 15.0454 19.8885 15.2773 19.8885 15.5633V15.9779C19.8885 16.2639 20.1205 16.4958 20.4065 16.4958C20.6925 16.4958 20.9244 16.2639 20.9244 15.9779V15.5633C20.9244 15.2773 20.6925 15.0454 20.4065 15.0454Z" fill="#FF7308"/>
<path d="M20.4065 17.4282C20.1205 17.4282 19.8885 17.6601 19.8885 17.9461V22.8146C19.8885 23.1006 20.1205 23.3325 20.4065 23.3325C20.6925 23.3325 20.9244 23.1006 20.9244 22.8146V17.9461C20.9244 17.6601 20.6925 17.4282 20.4065 17.4282Z" fill="#FF7308"/>
</g>
<defs>
<clipPath id="clip0">
<rect width="26" height="26" fill="white"/>
</clipPath>
</defs>
</svg>
