<svg width="28" height="28" viewBox="0 0 28 28" fill="none" xmlns="http://www.w3.org/2000/svg">
<path d="M13.6304 1.14807C13.8287 0.930396 14.1713 0.930396 14.3696 1.14807L16.0974 3.04448C16.4921 3.47768 17.1029 3.64136 17.6614 3.46354L20.1059 2.68511C20.3865 2.59575 20.6831 2.76703 20.746 3.05471L21.2942 5.56095C21.4194 6.13346 21.8665 6.58062 22.4391 6.70583L24.9453 7.25395C25.233 7.31687 25.4042 7.61353 25.3149 7.89412L24.5365 10.3386C24.3586 10.8971 24.5223 11.5079 24.9555 11.9026L26.8519 13.6304C27.0696 13.8287 27.0696 14.1713 26.8519 14.3696L24.9555 16.0974C24.5223 16.4921 24.3586 17.1029 24.5365 17.6614L25.3149 20.1059C25.4042 20.3865 25.233 20.6831 24.9453 20.746L22.4391 21.2942C21.8665 21.4194 21.4194 21.8665 21.2942 22.4391L20.746 24.9453C20.6831 25.233 20.3865 25.4042 20.1059 25.3149L17.6614 24.5365C17.1029 24.3586 16.4921 24.5223 16.0974 24.9555L14.3696 26.8519C14.1713 27.0696 13.8287 27.0696 13.6304 26.8519L11.9026 24.9555C11.5079 24.5223 10.8971 24.3586 10.3386 24.5365L7.89412 25.3149C7.61353 25.4042 7.31687 25.233 7.25395 24.9453L6.70583 22.4391C6.58062 21.8665 6.13346 21.4194 5.56095 21.2942L3.05471 20.746C2.76703 20.6831 2.59575 20.3865 2.68511 20.1059L3.46354 17.6614C3.64136 17.1029 3.47768 16.4921 3.04448 16.0974L1.14807 14.3696C0.930396 14.1713 0.930396 13.8287 1.14807 13.6304L3.04448 11.9026C3.47768 11.5079 3.64136 10.8971 3.46354 10.3387L2.68511 7.89412C2.59575 7.61353 2.76703 7.31687 3.05471 7.25395L5.56095 6.70583C6.13346 6.58062 6.58062 6.13346 6.70583 5.56095L7.25395 3.05471C7.31687 2.76703 7.61353 2.59575 7.89412 2.68511L10.3386 3.46354C10.8971 3.64136 11.5079 3.47768 11.9026 3.04448L13.6304 1.14807Z" stroke="#B8B6B6"/>
<line x1="10.0841" y1="20.4471" x2="19.2428" y2="6.72335" stroke="#B8B6B6"/>
<circle cx="10.5013" cy="10.4993" r="1.83333" stroke="#B8B6B6"/>
<circle cx="17.5013" cy="17.4993" r="1.83333" stroke="#B8B6B6"/>
</svg>
