<svg width="26" height="24" viewBox="0 0 26 24" fill="none" xmlns="http://www.w3.org/2000/svg">
<path d="M12.5644 0.791084C12.7557 0.45176 13.2443 0.451761 13.4356 0.791082L16.7834 6.73063C16.9974 7.1104 17.3661 7.37825 17.7934 7.46448L24.4768 8.81298C24.8586 8.89002 25.0096 9.35474 24.746 9.64149L20.1316 14.6608C19.8366 14.9818 19.6958 15.4152 19.7458 15.8482L20.5286 22.6212C20.5733 23.0081 20.178 23.2953 19.8238 23.1332L13.6242 20.2958C13.2279 20.1144 12.7721 20.1144 12.3758 20.2958L6.17617 23.1332C5.82199 23.2953 5.42667 23.0081 5.47139 22.6212L6.25416 15.8482C6.30421 15.4152 6.16339 14.9818 5.86836 14.6608L1.25403 9.64149C0.990416 9.35474 1.14141 8.89002 1.52323 8.81298L8.2066 7.46448C8.63392 7.37825 9.00259 7.1104 9.21665 6.73063L12.5644 0.791084Z" stroke="#B8B6B6"/>
</svg>
