<svg width="22" height="19" viewBox="0 0 22 19" fill="none" xmlns="http://www.w3.org/2000/svg">
<path d="M3.83578 18.6532C3.70674 18.747 3.55425 18.7939 3.3783 18.7939C3.20235 18.7939 3.04985 18.747 2.92082 18.6532L0.193548 15.011C0.0645161 14.9171 0 14.7998 0 14.659C0 14.5183 0.0645161 14.401 0.193548 14.3071H2.26979V1.92005C2.26979 1.61506 2.3783 1.35113 2.59531 1.12826C2.81232 0.905382 3.07625 0.793945 3.3871 0.793945C3.69795 0.793945 3.96481 0.905382 4.18768 1.12826C4.41056 1.35113 4.52199 1.61506 4.52199 1.92005V14.3071H6.58064C6.69795 14.401 6.7566 14.5183 6.7566 14.659C6.7566 14.7998 6.69795 14.9171 6.58064 15.011L3.83578 18.6532Z" fill="#9CB538"/>
<g clip-path="url(#clip0)">
<path d="M12.0625 8.91895C13.7551 8.91895 15.125 7.54902 15.125 5.85645C15.125 4.16387 13.7551 2.79395 12.0625 2.79395C10.3699 2.79395 9 4.16387 9 5.85645C9 7.54902 10.3699 8.91895 12.0625 8.91895ZM12.0625 4.54395C12.7871 4.54395 13.375 5.13184 13.375 5.85645C13.375 6.58105 12.7871 7.16895 12.0625 7.16895C11.3379 7.16895 10.75 6.58105 10.75 5.85645C10.75 5.13184 11.3379 4.54395 12.0625 4.54395ZM18.1875 10.6689C16.4949 10.6689 15.125 12.0389 15.125 13.7314C15.125 15.424 16.4949 16.7939 18.1875 16.7939C19.8801 16.7939 21.25 15.424 21.25 13.7314C21.25 12.0389 19.8801 10.6689 18.1875 10.6689ZM18.1875 15.0439C17.4629 15.0439 16.875 14.4561 16.875 13.7314C16.875 13.0068 17.4629 12.4189 18.1875 12.4189C18.9121 12.4189 19.5 13.0068 19.5 13.7314C19.5 14.4561 18.9121 15.0439 18.1875 15.0439ZM19.727 2.79941L20.591 2.79668C21.1215 2.79395 21.4359 3.39277 21.1297 3.83027L11.1164 16.5096C11.056 16.5957 10.9758 16.666 10.8825 16.7145C10.7892 16.7631 10.6856 16.7884 10.5805 16.7885L9.66719 16.7912C9.13398 16.7912 8.82227 16.1924 9.12852 15.7576L19.191 3.07832C19.3141 2.90332 19.5137 2.79941 19.727 2.79941Z" fill="#9CB538"/>
</g>
<defs>
<clipPath id="clip0">
<rect width="12.25" height="14" fill="white" transform="translate(9 2.79395)"/>
</clipPath>
</defs>
</svg>
