<svg width="9" height="16" viewBox="0 0 9 16" fill="none" xmlns="http://www.w3.org/2000/svg">
<path d="M7.875 0.43H1.125C0.820313 0.43 0.556641 0.537279 0.333984 0.751838C0.111328 0.966396 0 1.22735 0 1.53469C0 1.84203 0.111328 2.10588 0.333984 2.32623C0.556641 2.54659 0.820313 2.65677 1.125 2.65677H7.875C8.19141 2.65677 8.45801 2.54659 8.67481 2.32623C8.8916 2.10588 9 1.84203 9 1.53469C9 1.22735 8.8916 0.966396 8.67481 0.751838C8.45801 0.537279 8.19141 0.43 7.875 0.43ZM5.625 4.88354H1.125C0.820313 4.88354 0.556641 4.99082 0.333984 5.20538C0.111328 5.41994 0 5.68089 0 5.98823C0 6.29557 0.111328 6.55652 0.333984 6.77108C0.556641 6.98564 0.820313 7.09292 1.125 7.09292H5.625C5.94141 7.09292 6.20801 6.98564 6.4248 6.77108C6.6416 6.55652 6.75 6.29557 6.75 5.98823C6.75 5.68089 6.6416 5.41994 6.4248 5.20538C6.20801 4.99082 5.94141 4.88354 5.625 4.88354ZM3.375 9.31969H1.125C0.820313 9.31969 0.556641 9.42987 0.333984 9.65022C0.111328 9.87058 0 10.1344 0 10.4418C0 10.7491 0.111328 11.0101 0.333984 11.2246C0.556641 11.4392 0.820313 11.5465 1.125 11.5465H3.375C3.69141 11.5465 3.95801 11.4392 4.17481 11.2246C4.3916 11.0101 4.5 10.7491 4.5 10.4418C4.5 10.1344 4.3916 9.87058 4.17481 9.65022C3.95801 9.42987 3.69141 9.31969 3.375 9.31969ZM1.13379 13.7732C0.823242 13.7732 0.556641 13.8834 0.333984 14.1038C0.111328 14.3241 0 14.588 0 14.8953C0 15.2027 0.111328 15.4636 0.333984 15.6782C0.556641 15.8927 0.823242 16 1.13379 16C1.44434 16 1.70801 15.8898 1.9248 15.6695C2.1416 15.4491 2.25 15.1882 2.25 14.8866C2.25 14.5851 2.1416 14.3241 1.9248 14.1038C1.70801 13.8834 1.44434 13.7732 1.13379 13.7732Z" fill="#9CB538"/>
</svg>
