<svg width="19" height="18" viewBox="0 0 19 18" fill="none" xmlns="http://www.w3.org/2000/svg">
<path d="M16.8915 3.3783H10.1349C9.82991 3.3783 9.56598 3.26686 9.34311 3.04399C9.12023 2.82111 9.0088 2.55425 9.0088 2.2434C9.0088 1.93255 9.12023 1.66862 9.34311 1.45161C9.56598 1.2346 9.82991 1.1261 10.1349 1.1261H16.8915C17.2082 1.1261 17.4751 1.23754 17.6921 1.46041C17.9091 1.68328 18.0176 1.94721 18.0176 2.2522C18.0176 2.55718 17.9091 2.82111 17.6921 3.04399C17.4751 3.26686 17.2082 3.3783 16.8915 3.3783ZM3.83578 17.8592C3.70674 17.9531 3.55425 18 3.3783 18C3.20235 18 3.04985 17.9531 2.92082 17.8592L0.193548 14.217C0.0645161 14.1232 0 14.0059 0 13.8651C0 13.7243 0.0645161 13.607 0.193548 13.5132H2.26979V1.1261C2.26979 0.821114 2.3783 0.557185 2.59531 0.334311C2.81232 0.111437 3.07625 0 3.3871 0C3.69795 0 3.96481 0.111437 4.18768 0.334311C4.41056 0.557185 4.52199 0.821114 4.52199 1.1261V13.5132H6.58064C6.69795 13.607 6.7566 13.7243 6.7566 13.8651C6.7566 14.0059 6.69795 14.1232 6.58064 14.217L3.83578 17.8592ZM10.1349 5.6305H14.6393C14.956 5.6305 15.2229 5.739 15.4399 5.95601C15.6569 6.17302 15.7654 6.43695 15.7654 6.7478C15.7654 7.05865 15.6569 7.32551 15.4399 7.54839C15.2229 7.77126 14.956 7.8827 14.6393 7.8827H10.1349C9.82991 7.8827 9.56598 7.77126 9.34311 7.54839C9.12023 7.32551 9.0088 7.05865 9.0088 6.7478C9.0088 6.43695 9.12023 6.17302 9.34311 5.95601C9.56598 5.739 9.82991 5.6305 10.1349 5.6305ZM10.1349 10.1349H12.3871C12.7038 10.1349 12.9707 10.2434 13.1877 10.4604C13.4047 10.6774 13.5132 10.9413 13.5132 11.2522C13.5132 11.5631 13.4047 11.827 13.1877 12.044C12.9707 12.261 12.7038 12.3695 12.3871 12.3695H10.1349C9.82991 12.3695 9.56598 12.261 9.34311 12.044C9.12023 11.827 9.0088 11.5631 9.0088 11.2522C9.0088 10.9413 9.12023 10.6774 9.34311 10.4604C9.56598 10.2434 9.82991 10.1349 10.1349 10.1349ZM10.1437 14.6217C10.4545 14.6217 10.7185 14.7331 10.9355 14.956C11.1525 15.1789 11.261 15.4457 11.261 15.7566C11.261 16.0674 11.1525 16.3314 10.9355 16.5484C10.7185 16.7654 10.4545 16.8739 10.1437 16.8739C9.83284 16.8739 9.56598 16.7654 9.34311 16.5484C9.12023 16.3314 9.0088 16.0674 9.0088 15.7566C9.0088 15.4457 9.12023 15.1789 9.34311 14.956C9.56598 14.7331 9.83284 14.6217 10.1437 14.6217Z" fill="#9CB538"/>
</svg>
