<svg width="18" height="18" viewBox="0 0 18 18" fill="none" xmlns="http://www.w3.org/2000/svg">
<path d="M16.6981 16.6807H10.0188C9.71735 16.6807 9.45644 16.5734 9.23612 16.3589C9.0158 16.1444 8.90564 15.8835 8.90564 15.5762C8.90564 15.2689 9.0158 15.0051 9.23612 14.7847C9.45644 14.5644 9.71735 14.4543 10.0188 14.4543H16.6981C17.0112 14.4543 17.275 14.5644 17.4895 14.7847C17.704 15.0051 17.8113 15.2689 17.8113 15.5762C17.8113 15.8835 17.704 16.1444 17.4895 16.3589C17.275 16.5734 17.0112 16.6807 16.6981 16.6807ZM14.4717 12.2279H10.0188C9.71735 12.2279 9.45644 12.1206 9.23612 11.9061C9.0158 11.6915 8.90564 11.4306 8.90564 11.1233C8.90564 10.8161 9.0158 10.5552 9.23612 10.3406C9.45644 10.1261 9.71735 10.0188 10.0188 10.0188H14.4717C14.7847 10.0188 15.0486 10.1261 15.2631 10.3406C15.4776 10.5552 15.5849 10.8161 15.5849 11.1233C15.5849 11.4306 15.4776 11.6915 15.2631 11.9061C15.0486 12.1206 14.7847 12.2279 14.4717 12.2279ZM12.2453 7.79243H10.0188C9.71735 7.79243 9.45644 7.68227 9.23612 7.46195C9.0158 7.24163 8.90564 6.97782 8.90564 6.67053C8.90564 6.36324 9.0158 6.10233 9.23612 5.88781C9.45644 5.67328 9.71735 5.56602 10.0188 5.56602H12.2453C12.5583 5.56602 12.8221 5.67328 13.0367 5.88781C13.2512 6.10233 13.3585 6.36324 13.3585 6.67053C13.3585 6.97782 13.2512 7.24163 13.0367 7.46195C12.8221 7.68227 12.5583 7.79243 12.2453 7.79243ZM10.0275 3.33961C9.72025 3.33961 9.45644 3.22945 9.23612 3.00913C9.0158 2.78881 8.90564 2.525 8.90564 2.21771C8.90564 1.91042 9.0158 1.64951 9.23612 1.43499C9.45644 1.22047 9.72025 1.1132 10.0275 1.1132C10.3348 1.1132 10.5957 1.22337 10.8103 1.44369C11.0248 1.66401 11.132 1.92492 11.132 2.22641C11.132 2.5279 11.0248 2.78881 10.8103 3.00913C10.5957 3.22945 10.3348 3.33961 10.0275 3.33961ZM3.79185 17.6547C3.6643 17.7475 3.51355 17.7939 3.33961 17.7939C3.16568 17.7939 3.01493 17.7475 2.88737 17.6547L0.191332 14.0542C0.0637773 13.9614 0 13.8455 0 13.7063C0 13.5672 0.0637773 13.4512 0.191332 13.3585H2.2438V1.1132C2.2438 0.811712 2.35106 0.550804 2.56559 0.330483C2.78011 0.110161 3.04102 0 3.34831 0C3.6556 0 3.91941 0.110161 4.13973 0.330483C4.36005 0.550804 4.47021 0.811712 4.47021 1.1132V13.3585H6.50529C6.62125 13.4512 6.67923 13.5672 6.67923 13.7063C6.67923 13.8455 6.62125 13.9614 6.50529 14.0542L3.79185 17.6547Z" fill="#9CB538"/>
</svg>
